<?xml version="1.0" standalone="no"?>
<!DOCTYPE svg PUBLIC "-//W3C//DTD SVG 1.1//EN" "http://www.w3.org/Graphics/SVG/1.1/DTD/svg11.dtd" >
<svg xmlns="http://www.w3.org/2000/svg">
<metadata></metadata>
<defs>
<font id="citroenbold" horiz-adv-x="1124" >
<font-face units-per-em="2048" ascent="1638" descent="-410" />
<missing-glyph horiz-adv-x="450" />
<glyph horiz-adv-x="2048" />
<glyph horiz-adv-x="2048" />
<glyph unicode="&#xd;" horiz-adv-x="2048" />
<glyph unicode=" "  horiz-adv-x="450" />
<glyph unicode="&#x09;" horiz-adv-x="450" />
<glyph unicode="&#xa0;" horiz-adv-x="450" />
<glyph unicode="!" horiz-adv-x="692" d="M203 121q0 59 42 100t101 41t99 -41t40 -100t-39.5 -100t-99.5 -41q-59 0 -101 40.5t-42 100.5zM211 391v926h266v-926h-266z" />
<glyph unicode="&#x22;" horiz-adv-x="735" d="M86 1313h221l-35 -572h-151zM430 1313h219l-33 -572h-153z" />
<glyph unicode="#" horiz-adv-x="1130" d="M86 301v197h197l41 217h-166v196h202l68 353h186l-69 -353h176l67 353h185l-68 -353h139v-196h-172l-41 -217h164v-197h-207l-57 -301h-184l57 301h-176l-57 -301h-185l58 301h-158zM467 498h178l45 217h-180z" />
<glyph unicode="$" horiz-adv-x="1339" d="M127 131l119 201q78 -59 185.5 -96t211.5 -46v340q-53 20 -104.5 40t-87.5 36q-133 59 -191.5 147.5t-58.5 198.5q0 82 30.5 149.5t89 117t140.5 80t182 38.5v181h139v-177q47 -4 98.5 -14t100.5 -27.5t92 -42t76 -55.5l-105 -180q-43 45 -113.5 75.5t-148.5 39.5v-359 q53 -23 101.5 -42t77.5 -31q125 -55 188 -135t61 -205q0 -72 -23.5 -136.5t-74.5 -117t-133 -87t-197 -44.5v-230h-139v225q-164 6 -295 49.5t-221 106.5zM479 991q0 -39 28.5 -77.5t102.5 -73.5q6 -4 14.5 -7.5t18.5 -7.5v312q-86 -8 -125 -50.5t-39 -95.5zM782 195 q49 4 82 17t52.5 32.5t26.5 42t7 45.5q0 31 -20.5 63.5t-79.5 61.5q-31 14 -68 30v-292z" />
<glyph unicode="%" horiz-adv-x="1423" d="M31 1032q0 70 24.5 127.5t67.5 98t100 64.5t125 24t126 -24t100 -64.5t67 -98t25 -127.5q0 -68 -24 -125t-67 -99t-101 -64.5t-126 -22.5t-126 22.5t-101 64.5t-66.5 99.5t-23.5 124.5zM207 1032q0 -31 10 -59.5t28.5 -52t44 -38t58.5 -14.5t59.5 14.5t45 38t27.5 52 t9 59.5t-9 60.5t-27.5 54t-45 40t-59.5 15.5t-58.5 -15.5t-44 -40t-28.5 -54t-10 -60.5zM293 8l711 1346l124 -54l-710 -1347zM758 279q0 70 24.5 127t66.5 98t100 64.5t126 23.5t126.5 -23.5t100 -64.5t66.5 -98.5t25 -126.5q0 -68 -23.5 -125.5t-66.5 -99.5t-101.5 -64.5 t-126.5 -22.5t-126 22.5t-101 64.5t-66.5 99.5t-23.5 125.5zM936 279q0 -31 9 -61t27.5 -53.5t44 -37.5t58.5 -14t58.5 14t44 37.5t27.5 53.5t9 61t-9 60.5t-27.5 53t-44 38.5t-58.5 15t-58.5 -15t-44 -38.5t-27.5 -53.5t-9 -60z" />
<glyph unicode="&#x26;" horiz-adv-x="1470" d="M23 442q-2 135 81.5 257t243.5 210q-2 10 -3 20.5t-1 20.5q-4 72 20.5 142.5t77 126t131 90t183.5 32.5q102 -4 196 -45q106 -51 146 -137l-158 -104q-20 37 -71.5 66.5t-108.5 27.5q-86 -4 -131 -50t-45 -138q2 -29 11 -60t28 -63q47 -86 143 -184.5t225 -192.5 q6 -6 10 -8q16 29 26.5 57.5t16.5 52.5q18 68 5 113h-142v192h586v-192h-221q12 -61 3 -137t-44 -148q-8 -16 -16.5 -30.5t-18.5 -30.5q74 -41 142.5 -73t127.5 -48l-69 -242q-82 23 -174.5 66t-190.5 102q-18 -14 -36.5 -26.5t-37.5 -24.5q-96 -57 -192 -83t-188 -26 q-111 0 -211.5 35t-176 96.5t-120.5 147.5t-47 188zM291 506.5q-2 -60.5 19.5 -116.5t56.5 -93q53 -55 117.5 -82t130 -30t128 15.5t109.5 55.5q-2 2 -4 3t-4 3q-150 111 -259.5 230.5t-170.5 230.5q-2 2 -2 4q-63 -43 -91 -101.5t-30 -119z" />
<glyph unicode="'" horiz-adv-x="583" d="M111 872l163 459l199 -20l-221 -451z" />
<glyph unicode="(" horiz-adv-x="536" d="M98 567q0 104 10.5 219t33 228.5t57 222.5t84.5 203l155 -103q-84 -178 -116.5 -382.5t-32.5 -399.5q0 -94 8 -196.5t25.5 -204t46 -199.5t69.5 -182l-155 -105q-51 96 -86 208t-56.5 228.5t-32 235.5t-10.5 227z" />
<glyph unicode=")" horiz-adv-x="536" d="M98 -227q41 84 70 182t46 199.5t25.5 204t8.5 196.5q0 195 -33 399.5t-117 382.5l156 103q49 -94 84 -203t57.5 -222.5t32.5 -228t10 -219.5q0 -109 -10 -227.5t-31.5 -235t-56.5 -228.5t-86 -208z" />
<glyph unicode="*" horiz-adv-x="970" d="M213 1108l63 119l142 -90l-6 176h149l-4 -178l137 92l64 -119l-144 -86l144 -90l-64 -119l-137 94l4 -174h-151l8 174l-139 -92l-64 119l139 88z" />
<glyph unicode="+" d="M117 338v213h340v340h211v-340h340v-213h-340v-338h-211v338h-340z" />
<glyph unicode="," horiz-adv-x="686" d="M133 -242l166 457l199 -18l-224 -453z" />
<glyph unicode="-" horiz-adv-x="468" d="M0 455v207h469v-207h-469z" />
<glyph unicode="." horiz-adv-x="632" d="M178 131q0 59 41 98t100 39q57 0 96.5 -39t39.5 -98q0 -57 -39 -98t-97 -41q-59 0 -100 41t-41 98z" />
<glyph unicode="/" horiz-adv-x="903" d="M41 -215l641 1688l180 -56l-645 -1685z" />
<glyph unicode="0" d="M61 657q0 172 41 300t109 213t158 126t188 41q104 0 196.5 -44t160 -130t107.5 -213t40 -293q0 -143 -32 -267t-95.5 -216t-157.5 -144.5t-219 -52.5q-111 0 -202 44.5t-156.5 130.5t-101.5 213t-36 292zM336 662q0 -229 61.5 -341t159.5 -112q100 0 163.5 106.5 t63.5 346.5q0 125 -19.5 209.5t-52 137t-72.5 75t-83 22.5t-83 -22.5t-70.5 -75t-49 -137.5t-18.5 -209z" />
<glyph unicode="1" d="M209 1032q57 16 117.5 49t115 72t99.5 82t71 80h201v-1315h-266v961q-70 -47 -139.5 -82t-135.5 -56z" />
<glyph unicode="2" d="M109 0v205q49 45 115.5 107.5t134 128t131 129t108.5 110.5q68 70 99.5 131t29.5 131q0 74 -51 115t-137 43q-53 0 -119 -26.5t-125 -92.5l-168 170q33 45 79 80t101 58.5t116.5 35.5t125.5 12q98 2 191.5 -32.5t158.5 -106.5q104 -111 105 -264q0 -61 -17.5 -118.5 t-60.5 -120t-115 -137.5t-180 -173q-47 -43 -92 -85t-84 -77h559v-223h-905z" />
<glyph unicode="3" d="M104 172l156 139q12 -14 34.5 -34.5t54.5 -40t74 -33t91 -13.5q111 0 171 47.5t60 157.5q0 39 -10 75t-36.5 63.5t-76 44t-124.5 16.5h-18.5t-30 -1t-29.5 -1h-17v209h84q115 -2 169.5 47t54.5 121q0 66 -45 106.5t-144 40.5q-57 0 -115.5 -21.5t-99.5 -64.5l-139 135 q68 86 177.5 129t227.5 43q199 0 302.5 -95t103.5 -247q0 -80 -42 -156.5t-146 -129.5v-2q113 -39 171 -130t58 -200q0 -76 -32 -147.5t-92 -128t-149.5 -90.5t-203.5 -34q-84 0 -150.5 15.5t-120 42t-95.5 62.5t-73 75z" />
<glyph unicode="4" d="M47 238v124q57 117 136 249t173 266q31 43 70 97t85 111.5t97 116t105 113.5h239v-864h125v-213h-125v-238h-250v238h-655zM334 451h368v536q-100 -125 -195 -264t-173 -272z" />
<glyph unicode="5" d="M117 100l108 213q59 -47 128 -75.5t155 -28.5q106 0 166.5 53t60.5 162q0 47 -16.5 89t-55 72.5t-100 50t-149.5 19.5q-92 0 -197 -32l-12 4v688h717v-232h-490v-229q23 2 44 2h44q123 0 215 -31.5t153.5 -88t91.5 -133.5t30 -169q0 -109 -40 -194.5t-109.5 -144 t-162 -88.5t-196.5 -30q-98 0 -193.5 27t-191.5 96z" />
<glyph unicode="6" d="M86 455q0 127 52 251.5t143 237.5q104 131 240 234.5t284 167.5l88 -222q-41 -16 -130 -65t-194 -150q-8 -8 -29.5 -30.5t-29.5 -30.5q31 12 81 14t109.5 -9t119 -40t108.5 -77t79.5 -120.5t30.5 -173.5q0 -96 -31.5 -181t-93 -147.5t-148.5 -99.5t-198 -37t-198.5 38 t-151 103.5t-97.5 151.5t-34 185zM348 442q0 -104 55.5 -174.5t155.5 -70.5q94 0 149.5 64.5t55.5 180.5q0 111 -56.5 172.5t-148.5 61.5q-86 0 -148.5 -61.5t-62.5 -172.5z" />
<glyph unicode="7" d="M84 55q31 92 75 195.5t99 212t117.5 216t130.5 206.5q31 47 66.5 97t76.5 101h-547v232h934v-172q-115 -109 -223 -255.5t-203.5 -306t-169 -317.5t-116.5 -287z" />
<glyph unicode="8" d="M86 360q0 68 20.5 124.5t53.5 99.5t76 74t90 47q-80 39 -128 110.5t-48 173.5q0 74 28.5 137.5t81.5 110.5t129 73.5t172 26.5q90 0 166 -24.5t130 -69.5t85 -109.5t31 -144.5q0 -92 -43 -166.5t-133 -117.5q123 -45 181 -136.5t58 -208.5q0 -72 -31.5 -140t-92 -122.5 t-149.5 -87.5t-202 -33q-106 0 -194 29t-150.5 79t-96.5 120.5t-34 154.5zM354 387q0 -80 53.5 -141.5t153.5 -61.5q51 0 90 18.5t65.5 47.5t39 64.5t12.5 72.5q0 104 -60.5 157.5t-146.5 53.5q-39 0 -75.5 -12.5t-66.5 -38t-47.5 -65.5t-17.5 -95zM389 983q0 -82 46 -129 t126 -47q43 0 76 15.5t54.5 40t31.5 56t10 64.5q0 82 -52 126t-120 44q-31 0 -61.5 -11.5t-55 -33t-40 -53t-15.5 -72.5z" />
<glyph unicode="9" d="M86 870q0 96 32 181.5t92 149t147 100t198 36.5t200 -37.5t151.5 -103.5t97 -153t34.5 -185q0 -125 -53 -249t-143 -238q-102 -131 -239.5 -233.5t-285.5 -166.5l-86 222q39 14 129.5 63t192.5 150q10 10 31.5 32.5t29.5 30.5q-31 -12 -82 -14t-109 9t-118.5 38.5 t-109 76t-79 120t-30.5 171.5zM360 870q0 -111 56.5 -170t146.5 -59q86 0 148.5 59.5t62.5 169.5q0 106 -55.5 177t-155.5 71q-92 0 -147.5 -65.5t-55.5 -182.5z" />
<glyph unicode=":" horiz-adv-x="632" d="M178 113q0 59 41 99t100 40q57 0 96.5 -40t39.5 -99q0 -57 -39 -97.5t-97 -40.5q-59 0 -100 40t-41 98zM178 690q0 59 41 98t100 39q57 0 96.5 -38.5t39.5 -98.5q0 -57 -39 -98t-97 -41q-59 0 -100 41t-41 98z" />
<glyph unicode=";" horiz-adv-x="741" d="M131 -242l166 457l199 -18l-224 -453zM283 688q0 59 41 99t100 40q57 0 96 -39.5t39 -99.5q0 -57 -39 -97t-96 -40q-59 0 -100 40t-41 97z" />
<glyph unicode="&#x3c;" horiz-adv-x="1116" d="M78 367v165q76 43 170 87.5t203 87.5q145 59 282 101t244 62l39 -206q-66 -12 -147 -34t-168 -50.5t-175 -62.5t-166 -68q78 -35 166 -69t175 -61.5t168 -49t147 -33.5l-39 -209q-106 20 -243.5 62t-282.5 101q-109 43 -203 88.5t-170 88.5z" />
<glyph unicode="=" d="M117 133v211h891v-211h-891zM117 545v213h891v-213h-891z" />
<glyph unicode="&#x3e;" d="M74 236q63 12 145 33.5t169 49t175 61.5t166 69q-78 35 -166 68.5t-175 62t-169 50t-145 34.5l39 206q106 -20 243.5 -62t282.5 -101q109 -43 203 -87.5t170 -87.5v-165q-76 -43 -170 -88.5t-203 -88.5q-145 -59 -282.5 -101t-243.5 -62z" />
<glyph unicode="?" horiz-adv-x="905" d="M98 1245q39 31 129 63.5t203 32.5q88 0 158.5 -21.5t119 -60t74 -90t25.5 -108.5q0 -74 -38 -145.5t-107 -143.5q-45 -47 -83 -82t-66 -68.5t-43 -69.5t-15 -81q0 -23 2 -37t10 -43h-250q-8 27 -10 40t-2 42q0 41 8 75t30.5 69.5t58.5 77.5t91 100q14 14 31.5 33.5t34 39 t30 38t21.5 30.5q20 35 24.5 70.5t-8 63.5t-42 45.5t-74.5 17.5q-63 0 -117.5 -18.5t-87.5 -41.5zM201 119q0 59 41 100t100 41t99 -41t40 -100t-40 -100.5t-99 -41.5t-100 41t-41 101z" />
<glyph unicode="@" horiz-adv-x="1380" d="M53 657q0 147 51.5 273.5t141.5 219.5t212 145.5t261 52.5q113 0 221.5 -42t192.5 -117t136 -177.5t52 -223.5q0 -127 -35 -224t-89 -163.5t-118.5 -101.5t-124.5 -35q-84 0 -104 107q-43 -43 -100.5 -75t-135.5 -32q-57 0 -109 25.5t-92 69.5t-64.5 102.5t-24.5 126.5 q0 80 25.5 155.5t71.5 134t111.5 94.5t145.5 36q66 0 122 -28t107 -95l25 108h129l-88 -452q-4 -23 -9.5 -48.5t-5.5 -48.5t8.5 -37t30.5 -14q29 0 59.5 28t57.5 74t43.5 106.5t16.5 125.5q0 111 -34 198t-95.5 147.5t-146.5 92t-185 31.5q-111 0 -204 -42t-160.5 -113.5 t-105.5 -171t-38 -212.5q0 -121 46 -222t123 -175t178 -115t214 -41q109 0 186.5 20.5t126.5 55.5q33 -27 58.5 -47t58.5 -49q-47 -25 -94 -46.5t-102.5 -37.5t-122 -25.5t-148.5 -9.5q-141 0 -264 52.5t-214 144.5t-144.5 219t-53.5 276zM479 602q0 -76 41 -134t119 -58 q55 0 95 19.5t66.5 53t41 75.5t20.5 89q2 10 2 18.5v18.5q0 86 -47 128t-127 42q-51 0 -90 -21.5t-65.5 -57.5t-41 -81t-14.5 -92z" />
<glyph unicode="A" horiz-adv-x="1280" d="M-8 0q43 166 109.5 364.5t146.5 403.5q41 104 104.5 251.5t139.5 295.5h296q76 -147 139.5 -295t104.5 -252q80 -205 146.5 -403.5t109.5 -364.5h-260q-20 70 -43.5 145.5t-50.5 155.5h-588q-29 -80 -51.5 -155.5t-42.5 -145.5h-260zM422 520h436q-16 39 -30.5 78 t-30.5 78q-39 100 -80 200.5t-78 184.5q-39 -86 -78 -185.5t-78 -199.5q-16 -39 -30.5 -78t-30.5 -78z" />
<glyph unicode="B" horiz-adv-x="1159" d="M127 0v1315h455q109 0 185.5 -26.5t125.5 -73t72.5 -106.5t23.5 -126q0 -84 -40 -159.5t-132 -121.5q68 -12 119 -45.5t85 -80t50 -99.5t16 -104q0 -82 -30.5 -150.5t-87 -118t-137 -77t-179.5 -27.5h-526zM393 199h168q139 0 197.5 47t58.5 149q0 104 -65.5 140 t-202.5 36h-156v-372zM393 770h146q96 0 141 38t45 132q0 84 -44 130t-140 46h-148v-346z" />
<glyph unicode="C" horiz-adv-x="1259" d="M47 672q0 143 49 265t137.5 211t212 139t273.5 50q119 0 226.5 -34.5t193.5 -100.5l-144 -188q-45 35 -115.5 56.5t-148.5 21.5q-98 0 -175 -32t-129 -87t-78.5 -132t-26.5 -169q0 -102 26.5 -185.5t77.5 -143.5t128 -92t177 -32q82 0 159 25.5t130 77.5l162 -166 q-86 -84 -204 -131.5t-265 -47.5q-150 0 -273 47.5t-210 136.5t-135 218t-48 293z" />
<glyph unicode="D" horiz-adv-x="1302" d="M127 0v1315h483q154 0 274 -45t202.5 -130t125.5 -207t43 -278q0 -135 -40.5 -254.5t-121.5 -209t-202 -140.5t-283 -51h-481zM393 217h150q231 0 333.5 102.5t102.5 337.5q0 211 -100.5 325t-335.5 114h-150v-879z" />
<glyph unicode="E" horiz-adv-x="1007" d="M127 0v1315h788v-225h-522v-285h445v-223h-445v-359h565v-223h-831z" />
<glyph unicode="F" horiz-adv-x="948" d="M127 0v1315h788v-225h-522v-318h447v-223h-447v-549h-266z" />
<glyph unicode="G" horiz-adv-x="1323" d="M47 672q0 137 47 258t139.5 211t226.5 143t306 53q121 0 237.5 -31.5t208.5 -103.5l-143 -188q-47 37 -129 60q-75 20 -161 20h-15q-92 0 -173 -26t-140.5 -78t-94 -132t-34.5 -186q0 -102 29.5 -187.5t86 -144.5t140.5 -92t192 -33q109 0 193 39v225h-250v215h516v-573 q-25 -20 -69 -46t-106.5 -47.5t-141 -36t-169.5 -14.5q-168 0 -297 51.5t-218 143.5t-135 220t-46 280z" />
<glyph unicode="H" horiz-adv-x="1427" d="M127 0v1315h266v-516h641v516h266v-1315h-266v582h-641v-582h-266z" />
<glyph unicode="I" horiz-adv-x="520" d="M127 0v1315h266v-1315h-266z" />
<glyph unicode="J" horiz-adv-x="540" d="M23 -109q92 0 127.5 52.5t35.5 179.5v1192h267v-1200q0 -98 -11.5 -172t-54.5 -122t-129 -71q-79 -20 -211 -20h-24v161z" />
<glyph unicode="K" horiz-adv-x="1220" d="M127 0v1315h266v-514l473 514h336l6 -6l-571 -592q66 -47 131.5 -107.5t134.5 -138.5q100 -111 186.5 -229.5t157.5 -241.5h-295q-53 78 -111.5 154.5t-123.5 146.5q-63 72 -128 130t-126 106l-70 -70v-467h-266z" />
<glyph unicode="L" horiz-adv-x="915" d="M127 0v1315h266v-1092h529v-223h-795z" />
<glyph unicode="M" horiz-adv-x="1744" d="M127 0v1315h375q78 -104 150.5 -223t138.5 -250q23 -45 43 -89t38 -89q20 45 41 89t43 89q66 131 138.5 249.5t148.5 223.5h375v-1315h-266v1028q-92 -141 -170 -299q-47 -92 -86 -183t-72 -184h-301q-35 92 -74 183.5t-84 183.5q-82 164 -172 299v-1028h-266z" />
<glyph unicode="N" horiz-adv-x="1536" d="M127 0v1339h121q141 -94 280.5 -205.5t268.5 -236.5q80 -78 169 -174t177 -213v805h266v-1315h-231q-61 113 -131 215t-143 193.5t-144.5 168t-136.5 140.5q-55 53 -112.5 103t-117.5 100v-920h-266z" />
<glyph unicode="O" horiz-adv-x="1421" d="M47 674q0 143 47 264t133 210t208 139t274 50q154 0 276.5 -50t208.5 -138t133 -210t47 -265q0 -145 -42 -272.5t-125 -221.5t-207.5 -148.5t-290.5 -54.5q-152 0 -274 48.5t-208 138.5t-133 219t-47 291zM322 676q0 -100 26.5 -187.5t75.5 -151t120.5 -100t164.5 -36.5 q106 0 181 40t121 105.5t67.5 151.5t21.5 178q0 88 -25.5 168t-76 140t-123 95t-166.5 35q-180 0 -283.5 -116.5t-103.5 -321.5z" />
<glyph unicode="P" horiz-adv-x="1107" d="M127 0v1315h471q131 0 223 -32t148.5 -88t82 -136t25.5 -174t-28.5 -173t-88 -136.5t-149.5 -89t-211 -31.5h-209v-455h-264zM391 657h197q111 0 163 62.5t52 169.5q0 49 -10.5 90t-35 70.5t-65.5 46t-100 16.5h-201v-455z" />
<glyph unicode="Q" horiz-adv-x="1470" d="M70 676q0 143 47 264t133 209t208 138t273 50q154 0 276.5 -49t210 -137t133.5 -210t46 -265q0 -106 -21.5 -203.5t-68.5 -181.5q41 -23 78.5 -39t74.5 -27l-61 -243q-61 16 -128 45.5t-132 70.5q-78 -57 -179.5 -89t-228.5 -32q-152 0 -273.5 48.5t-207.5 139.5 t-133 220t-47 291zM344 680q0 -102 26.5 -189.5t76 -152t121 -101t163.5 -36.5q123 0 207 55q-72 70 -129 143.5t-88 141.5l227 108q20 -43 57 -92t85 -96q32 95 32 212v7q0 88 -25.5 167t-75.5 138t-123 94t-167 35q-180 0 -283.5 -114.5t-103.5 -319.5z" />
<glyph unicode="R" horiz-adv-x="1138" d="M127 0v1315h448q131 0 223.5 -29t149 -81t82 -129t25.5 -171q0 -147 -70 -234t-172 -122q47 -37 84 -80t74 -100q117 -176 180 -369h-270q-27 68 -60 129t-69 115q-57 86 -122 153.5t-120 96.5h-117v-494h-266zM393 696h172q66 0 108 17.5t65.5 47.5t31.5 67.5t8 78.5 q0 61 -15 101.5t-43 64t-67 31.5t-84 8h-176v-416z" />
<glyph unicode="S" horiz-adv-x="1159" d="M53 133l119 201q43 -31 95 -57.5t110.5 -45t118 -28.5t114.5 -10q78 0 124 15t70.5 36.5t32 45t7.5 42.5q0 31 -20.5 63.5t-80.5 61.5q-39 18 -88 38.5t-99 40t-97 37t-82 33.5q-133 59 -191.5 146.5t-58.5 197.5q0 90 37 162t105.5 122t165.5 76.5t214 26.5 q47 0 101.5 -9t107.5 -26.5t100.5 -44t81.5 -59.5l-102 -178q-51 51 -138 84t-179 33q-104 0 -159.5 -43t-55.5 -105q0 -39 28.5 -77t102.5 -72q25 -12 67.5 -29.5t89.5 -38t90 -38t68 -29.5q126 -55 190 -135q62 -78 62 -197v-8q0 -78 -28.5 -148t-92 -123t-162 -85 t-239.5 -32q-78 0 -155 13.5t-145.5 35t-127 49t-101.5 58.5z" />
<glyph unicode="T" horiz-adv-x="1015" d="M-8 1087v228h1032v-228h-383v-1087h-266v1087h-383z" />
<glyph unicode="U" horiz-adv-x="1300" d="M115 512v803h266v-758q0 -92 12.5 -160.5t43 -114.5t81.5 -70t131 -24q82 0 134.5 22.5t83 69t42 116t11.5 161.5v758h266v-803q0 -96 -16.5 -192.5t-72 -172t-162 -123t-286.5 -47.5q-182 0 -287.5 45.5t-161 121t-70.5 171t-15 197.5z" />
<glyph unicode="V" horiz-adv-x="1220" d="M-6 1315h256q31 -145 95.5 -345t156.5 -423q27 -66 55.5 -136.5t52.5 -131.5q25 61 53.5 131.5t55.5 136.5q90 223 155.5 422.5t96.5 345.5h256q-29 -160 -99.5 -383t-175.5 -479q-49 -123 -100 -236t-102 -217h-279q-51 104 -102.5 217t-100.5 236q-104 256 -174.5 479 t-99.5 383z" />
<glyph unicode="W" horiz-adv-x="1794" d="M-6 1315h256q20 -147 65 -332.5t107 -384.5q25 -78 51.5 -157t52.5 -150q10 23 19.5 43t19.5 43q31 74 58.5 151.5t50 152.5t40 143.5t29.5 123.5h308q12 -55 29.5 -123.5t40 -143.5t50 -152.5t58.5 -151.5q10 -23 19 -43.5t20 -42.5q29 72 54.5 150.5t49.5 156.5 q61 199 106.5 384t67.5 333h254q-23 -160 -71 -367t-117 -426q-35 -111 -83 -245t-108 -277h-291q-35 70 -68.5 140.5t-64.5 144.5q-29 66 -53 147.5t-47 147.5q-10 -29 -21.5 -66t-23.5 -77t-26.5 -80t-28.5 -72q-31 -74 -65 -144.5t-68 -140.5h-289q-61 143 -109.5 277.5 t-83.5 244.5q-68 219 -117 426t-71 367z" />
<glyph unicode="X" horiz-adv-x="1263" d="M2 0q80 143 204 335.5t269 397.5q-123 166 -241.5 317.5t-221.5 264.5h332q76 -92 147.5 -189.5t137.5 -183.5q76 102 146.5 196.5t135.5 176.5h332q-102 -115 -220 -265.5t-239 -316.5l7 -6q76 -106 145.5 -209.5t130.5 -198t110.5 -175.5t84.5 -144h-291 q-66 106 -153 242.5t-187 279.5q-98 -139 -183.5 -274t-154.5 -248h-291z" />
<glyph unicode="Y" horiz-adv-x="1146" d="M-8 1315h268q53 -135 113.5 -251t113.5 -202q23 -35 45.5 -73.5t40.5 -69.5q18 33 42 70.5t44 72.5q53 86 115 202t113 251h268q-59 -176 -136 -325.5t-145 -260.5q-41 -63 -81.5 -123.5t-83.5 -118.5v-487h-267v481q-43 59 -85 121t-83 127q-68 111 -145.5 260.5 t-136.5 325.5z" />
<glyph unicode="Z" horiz-adv-x="1048" d="M8 0v166q147 272 326 528q70 102 144.5 199.5t154.5 196.5h-531v225h906v-176q-129 -141 -245 -287.5t-222 -300.5q-55 -80 -107.5 -162t-103.5 -166h710v-223h-1032z" />
<glyph unicode="[" horiz-adv-x="552" d="M96 -190v1648h357v-160h-164v-1327h164v-161h-357z" />
<glyph unicode="\" horiz-adv-x="935" d="M45 1473h201l645 -1473h-203z" />
<glyph unicode="]" horiz-adv-x="552" d="M100 -29h164v1327h-164v160h357v-1648h-357v161z" />
<glyph unicode="^" horiz-adv-x="1193" d="M74 524q41 111 95 232.5t120 244.5q47 88 93 167t91 147h229q45 -68 91.5 -146.5t93.5 -167.5q66 -123 120 -244.5t95 -232.5h-228q-35 90 -78.5 185.5t-95.5 193.5q-55 102 -112 197q-29 -45 -55.5 -94.5t-55.5 -102.5q-51 -98 -96 -193.5t-80 -185.5h-227z" />
<glyph unicode="_" horiz-adv-x="870" d="M0 -190h870v-181h-870v181z" />
<glyph unicode="`" horiz-adv-x="1673" d="M567 1196l138 92l208 -289l-90 -61z" />
<glyph unicode="a" horiz-adv-x="940" d="M39 223q0 109 77 173.5t197 95.5q66 18 135.5 28t135.5 15q-8 137 -195 141q-55 0 -125.5 -16.5t-124.5 -45.5l-51 148q49 23 142.5 44t199.5 21q205 0 308.5 -87t103.5 -285v-217q0 -23 2 -50.5t6 -56.5t12 -54.5t21 -41.5l-236 -41q-12 16 -23.5 48t-19.5 54h-4 q-43 -55 -113.5 -87t-175.5 -32q-125 0 -198.5 58.5t-73.5 187.5zM297 229v-5q0 -46 35 -74q37 -28 98 -31q72 2 111 42t49 95v131q0 16 -2 23q-39 -6 -70 -14.5t-69 -18.5q-88 -27 -121 -64q-31 -35 -31 -79v-5z" />
<glyph unicode="b" horiz-adv-x="1062" d="M117 242v1194h250v-752h4q47 78 122.5 108.5t151.5 30.5q80 0 148.5 -21.5t120 -69.5t81 -126t29.5 -188q0 -94 -31.5 -175t-90 -139.5t-141.5 -92.5t-188 -34q-55 0 -116.5 10.5t-118.5 30t-106.5 49t-79.5 70.5q-16 27 -25.5 46.5t-9.5 58.5zM367 334q0 -39 9 -75 t31.5 -63.5t59.5 -44t94 -16.5q111 0 158 72t47 211q0 117 -52 172t-132 55q-90 0 -152.5 -55t-62.5 -174v-82z" />
<glyph unicode="c" horiz-adv-x="751" d="M39 406q0 92 31.5 169.5t90 134t140.5 87t184 30.5q76 0 137.5 -17t114.5 -46l-88 -156q-27 14 -65.5 25.5t-77.5 11.5q-92 0 -151.5 -60.5t-59.5 -178.5q0 -106 50 -177t161 -71q39 0 75.5 11t63.5 32l98 -150q-47 -35 -115.5 -54.5t-146.5 -19.5q-115 0 -197.5 31 t-137 88.5t-81 135t-26.5 174.5z" />
<glyph unicode="d" horiz-adv-x="1067" d="M39 385q0 96 31.5 177t91 139.5t141.5 91t184 32.5q115 0 207 -34v645h252v-1155q0 -72 12.5 -132t28.5 -83q-61 -20 -120.5 -39t-121.5 -37q-14 16 -25 50t-20 75h-8q-47 -78 -123.5 -108t-154.5 -30q-80 0 -148.5 23t-119 72t-79 126.5t-28.5 186.5zM295 385 q0 -109 50 -171t136 -62q88 0 150.5 56t62.5 177v90q0 106 -44 148.5t-148 42.5q-207 0 -207 -281z" />
<glyph unicode="e" horiz-adv-x="921" d="M39 393q0 98 30.5 179t88 137.5t138.5 87t181 30.5q109 0 185.5 -33.5t126 -94t72 -142.5t22.5 -178v-27h-584q0 -41 15.5 -80t47 -69.5t78.5 -49t113 -18.5q59 0 118.5 14.5t106.5 43.5q23 -35 45.5 -69t44.5 -67q-51 -35 -143 -57.5t-199 -22.5q-133 0 -225 34 t-150.5 91.5t-85 132t-26.5 158.5zM303 477h342q-4 98 -43 153.5t-119 55.5q-78 0 -126 -48t-54 -161z" />
<glyph unicode="f" horiz-adv-x="573" d="M29 643v162h88v248q0 119 31.5 196.5t84 123.5t117 65.5t129.5 19.5q66 0 121 -14t82 -31l-49 -158q-55 25 -105 25q-74 0 -116.5 -52t-42.5 -177v-246h200v-162h-200v-643h-252v643h-88z" />
<glyph unicode="g" horiz-adv-x="1046" d="M39 387q0 70 21.5 147.5t74.5 143t142.5 107.5t224.5 42q123 0 227.5 -35.5t165.5 -86.5q20 -16 27.5 -38t7.5 -65v-665q0 -201 -120 -306.5t-329 -105.5q-57 0 -117.5 6t-117 16.5t-102.5 24.5t-76 31q18 47 38.5 92t38.5 92q66 -29 133.5 -46t145.5 -17q139 0 197.5 60 t58.5 202v135h-4q-47 -78 -118 -107.5t-148 -29.5q-80 0 -148.5 22.5t-118 70.5t-77 125t-27.5 185zM295 387q0 -43 9 -85t30.5 -73.5t55.5 -51t85 -19.5q94 0 149.5 65.5t55.5 169.5v129q0 72 -42 110t-144 38q-29 0 -64 -9.5t-64.5 -39t-50 -86t-20.5 -148.5z" />
<glyph unicode="h" horiz-adv-x="1062" d="M117 0v1436h250v-738h4q90 127 260 127q84 0 143.5 -26.5t98 -74.5t56 -113.5t17.5 -143.5v-467h-252v397q0 43 -4 84t-19.5 74t-46 52.5t-81.5 19.5q-49 0 -82 -20.5t-52.5 -54.5t-28.5 -75t-11 -82v-395h-252z" />
<glyph unicode="i" horiz-adv-x="440" d="M84 1141q0 55 40 95t95 40q57 0 96 -40t39 -95q0 -57 -39 -96t-96 -39q-55 0 -95 38.5t-40 96.5zM94 0v805h252v-805h-252z" />
<glyph unicode="j" horiz-adv-x="497" d="M-37 -293h15q178 0 178 187v911h250v-903q0 -96 -19.5 -168t-70 -119t-136.5 -69q-73 -18 -177 -18q-19 0 -40 1v178zM145 1141q0 55 40.5 95t95.5 40t95 -40t40 -95q0 -57 -40 -96t-95 -39t-95.5 38.5t-40.5 96.5z" />
<glyph unicode="k" horiz-adv-x="1005" d="M117 0v1436h250v-901q39 33 92 78.5t100 88.5q55 51 115 103h327q-88 -74 -165 -139q-33 -29 -68 -57.5t-65.5 -54.5t-57.5 -48.5t-43 -36.5q117 -98 228.5 -219t203.5 -250h-309q-41 51 -86 103.5t-92 102.5t-93 94t-87 79v-379h-250z" />
<glyph unicode="l" horiz-adv-x="526" d="M117 362v1074h250v-1078q1 -90 35 -139q33 -47 113 -47h7v-184q-18 -1 -35 -1q-95 -1 -161 19q-78 22 -124 69.5t-65.5 119t-19.5 167.5z" />
<glyph unicode="m" horiz-adv-x="1570" d="M82 737l240 78q14 -18 25 -54t20 -77q41 76 104.5 109.5t138.5 33.5q213 0 273 -168h12q45 92 114.5 130t143.5 38q154 0 227.5 -86t73.5 -272v-469h-252v391q0 133 -29.5 185.5t-107.5 52.5q-29 0 -56.5 -9.5t-49 -35t-35 -73.5t-13.5 -124v-387h-249v379 q0 137 -29 194.5t-107 57.5q-90 0 -120.5 -62.5t-30.5 -181.5v-387h-252v510q0 86 -14.5 145.5t-26.5 81.5z" />
<glyph unicode="n" horiz-adv-x="1067" d="M82 735l237 78q14 -18 25.5 -54t20.5 -77q43 78 112.5 111.5t155.5 33.5t146.5 -26.5t98 -74.5t55 -113.5t17.5 -143.5v-469h-252v391q0 39 -3 81t-17 77t-46 57.5t-87 22.5q-53 0 -87 -21.5t-52.5 -55.5t-25.5 -78t-7 -89v-385h-250v508q0 86 -15.5 147.5t-25.5 79.5z " />
<glyph unicode="o" horiz-adv-x="989" d="M39 399q0 92 30.5 170t90 135.5t143.5 90t193 32.5q106 0 191 -32.5t143.5 -90t89 -135t30.5 -170.5q0 -94 -31.5 -171.5t-90 -133t-142.5 -86.5t-190 -31q-104 0 -188.5 30t-144 85t-92 133t-32.5 174zM297 399q0 -131 55.5 -194.5t143.5 -63.5q90 0 144 61.5t54 196.5 q0 127 -53 196t-145 69q-86 0 -142.5 -61.5t-56.5 -203.5z" />
<glyph unicode="p" horiz-adv-x="1071" d="M82 735l244 78q12 -16 23 -51t22 -76h8q47 78 122.5 109.5t153.5 31.5q80 0 148.5 -22.5t120 -70.5t80 -125t28.5 -187q0 -96 -31.5 -176t-91 -138.5t-142.5 -90t-185 -31.5q-55 0 -107.5 8t-99.5 24v-471h-252v973q0 80 -14.5 138.5t-26.5 76.5zM375 332 q0 -104 45 -146.5t149 -42.5t155.5 66.5t51.5 212.5q0 109 -50 169t-136 60q-88 0 -151.5 -57t-63.5 -178v-84z" />
<glyph unicode="q" horiz-adv-x="1060" d="M39 385q0 82 25.5 162t83 142.5t145.5 100t215 37.5q121 0 229.5 -34.5t173.5 -87.5q20 -16 26.5 -38t6.5 -63v-1057h-250v574h-4q-47 -80 -123.5 -109.5t-150.5 -29.5q-80 0 -148.5 21.5t-120 69.5t-80 124.5t-28.5 187.5zM295 385q0 -104 44 -165.5t140 -61.5 q88 0 151.5 57t63.5 176v129q1 150 -194 150q-92 0 -148.5 -64.5t-56.5 -220.5z" />
<glyph unicode="r" horiz-adv-x="690" d="M82 737l242 76q14 -16 26 -56t21 -81h2q31 57 89 102t156 45q14 0 42 -3t40 -9l-16 -236q-51 27 -111 27q-61 0 -100 -21.5t-60.5 -60.5t-29.5 -90t-8 -108v-322h-252v524q0 78 -14.5 136.5t-26.5 76.5z" />
<glyph unicode="s" horiz-adv-x="819" d="M41 80q6 8 17.5 25.5t23.5 36t24.5 37t20.5 28.5q59 -37 135 -60.5t139 -23.5q115 0 115 76q0 23 -20.5 41t-75.5 39q-41 16 -97.5 35.5t-95.5 39.5q-63 35 -100 84t-37 127q0 68 26.5 117t73 81t107.5 47t131 15q90 0 174 -16t137 -43l-75 -133q-47 23 -103.5 40 t-109.5 17q-109 0 -109 -65q0 -23 15.5 -42.5t56.5 -35.5q78 -35 127 -53.5t94 -40.5q78 -37 110.5 -86.5t32.5 -118.5q0 -117 -95 -194t-273 -77q-113 0 -214.5 31t-154.5 72z" />
<glyph unicode="t" horiz-adv-x="651" d="M29 643v162h88v233h252v-233h200v-162h-200v-352q0 -78 23.5 -115t88.5 -37q45 0 97 21l47 -146q-25 -14 -77 -27.5t-118 -13.5q-94 0 -154.5 25t-96.5 71t-49 109.5t-13 143.5v321h-88z" />
<glyph unicode="u" horiz-adv-x="1062" d="M117 334v471h252v-393q0 -47 3 -90t18.5 -75t46 -51.5t83.5 -19.5q57 0 91 22.5t50.5 58.5t21.5 78t5 83v387h250v-514q0 -84 14.5 -146.5t28.5 -81.5l-242 -75q-12 16 -24.5 54t-20.5 79q-43 -78 -111.5 -111t-150.5 -33q-86 0 -146.5 27t-98 74t-54 112.5t-16.5 143.5z " />
<glyph unicode="v" horiz-adv-x="886" d="M0 805h254q12 -47 31.5 -114.5t44 -141.5t53.5 -150.5t59 -142.5h4q31 66 58.5 137.5t52.5 144t45.5 140t34.5 127.5h250q-20 -84 -52 -185.5t-72 -209t-85 -214t-92 -196.5h-287q-49 98 -94 203.5t-85 210t-71 204t-49 187.5z" />
<glyph unicode="w" horiz-adv-x="1370" d="M0 805h250q31 -154 76 -299.5t86 -253.5q47 102 86 201.5t67 179.5q10 27 15.5 31t27.5 4h170q25 0 30 -4.5t15 -28.5q27 -92 65 -196.5t70 -186.5q53 139 94.5 280.5t69.5 272.5h248q-18 -86 -47 -187.5t-63.5 -208t-75.5 -211t-84 -198.5h-285q-18 39 -36.5 85t-36 93 t-33 94t-27.5 88q-14 -43 -30.5 -91t-34 -95t-36 -92t-32.5 -82h-281q-45 96 -86 199.5t-75.5 208t-62.5 205t-44 192.5z" />
<glyph unicode="x" horiz-adv-x="995" d="M0 0q74 113 156 220.5t168 211.5q-86 117 -166 207t-154 160v6h315q49 -59 90.5 -113.5t75.5 -101.5q41 55 84 107.5t93 107.5h321v-8q-74 -68 -159 -161t-162 -198q90 -106 176 -215.5t157 -222.5h-297q-47 70 -97 136.5t-103 133.5q-55 -66 -105.5 -132t-97.5 -138 h-295z" />
<glyph unicode="y" horiz-adv-x="829" d="M-43 805h248q12 -49 31.5 -116.5t44 -142.5t54.5 -152t60 -142h4l54 121q45 119 79.5 229.5t57.5 202.5h250q-35 -145 -88.5 -304t-122.5 -315q-63 -141 -154.5 -305t-216.5 -334h-297v13q39 45 80 101t81 113.5t75.5 113t62.5 100.5q-53 100 -100 207.5t-87 214t-70 208 t-46 187.5z" />
<glyph unicode="z" horiz-adv-x="798" d="M4 0v133q57 100 131 203.5t156 191.5l100 107h-350v170h737v-141q-57 -43 -117.5 -98.5t-121 -120t-115.5 -134t-100 -141.5h471v-170h-791z" />
<glyph unicode="{" horiz-adv-x="563" d="M55 506v133q63 29 96 88t33 172v260v32.5t2 33.5q2 51 18.5 92t40 70.5t49 45t44.5 15.5h162v-166h-68q-43 0 -50 -31.5t-7 -74.5v-318q0 -74 -17.5 -125t-40 -86t-45 -52t-32.5 -24q10 -4 32.5 -21.5t45 -51t40 -87t17.5 -126.5v-316q0 -43 7 -74.5t50 -31.5h68v-166 h-162q-18 0 -44 15.5t-49.5 45t-40 70.5t-18.5 92q-2 16 -2 32.5v33.5v258q0 115 -33.5 175t-95.5 87z" />
<glyph unicode="|" horiz-adv-x="661" d="M221 0v1473h209v-1473h-209z" />
<glyph unicode="}" horiz-adv-x="563" d="M63 -137h68q43 0 50 31.5t7 74.5v316q0 74 17.5 127t40 86.5t45 51t33.5 21.5q-10 6 -33 23.5t-45.5 52.5t-40 86t-17.5 125v318q0 43 -7 74.5t-50 31.5h-68v166h162q18 0 44 -15.5t49.5 -45t40 -70.5t18.5 -92q2 -16 2 -32.5v-33.5v-260q0 -113 32.5 -172t96.5 -88v-133 q-61 -27 -95 -87.5t-34 -174.5v-258v-32.5t-2 -33.5q-2 -51 -18.5 -92t-40 -70.5t-49 -45t-44.5 -15.5h-162v166z" />
<glyph unicode="~" horiz-adv-x="1071" d="M78 414q25 31 53.5 74.5t61 83.5t71.5 68t86 28q49 0 101.5 -27t97.5 -61q35 -31 83 -57.5t83 -26.5q14 0 29.5 15t27.5 36.5t21.5 45t15.5 40.5l176 -158q-20 -35 -47 -79t-59.5 -83t-73.5 -64.5t-88 -25.5q-57 0 -103.5 26.5t-87.5 51.5q-51 33 -94 63.5t-78 30.5 q-16 0 -30.5 -14t-26.5 -34.5t-23.5 -45.5t-19.5 -43z" />
<glyph unicode="&#xa1;" horiz-adv-x="692" d="M203 684q0 -59 42 -100t101 -41t99 41t40 100t-39.5 100t-99.5 41q-59 0 -101 -40.5t-42 -100.5zM211 414v-926h266v926h-266z" />
<glyph unicode="&#xa2;" horiz-adv-x="761" d="M39 406q0 88 28.5 162.5t82 130t129 88t167.5 38.5v101h95v-101q59 -4 110 -21.5t97 -41.5l-89 -156q-23 12 -54.5 22.5t-63.5 14.5v-483q33 4 62.5 14t51.5 27l99 -150q-41 -29 -95.5 -47t-117.5 -24v-121h-95v121q-104 4 -181 36.5t-127 89t-74.5 132t-24.5 168.5z M297 399q0 -90 36 -154.5t113 -84.5v471q-68 -18 -108.5 -76t-40.5 -156z" />
<glyph unicode="&#xa3;" horiz-adv-x="1177" d="M94 29q14 45 37 91t55.5 83t74.5 60.5t95 25.5q10 25 13.5 49t3.5 51q0 37 -10.5 74t-26.5 72h-236v116h166q-29 57 -49 127t-20 135q0 96 34.5 176t95 136.5t141.5 88.5t175 32q111 0 188.5 -32t129 -91.5t77 -143.5t29.5 -188q-68 -8 -134.5 -13.5t-133.5 -11.5l4 60v8 q0 33 -12.5 67.5t-35 61.5t-52 44t-66.5 17q-45 0 -79 -19.5t-56.5 -50t-33.5 -69.5t-11 -78q0 -61 22.5 -135t57.5 -121h241v-116h-200q4 -23 6 -48.5t2 -52.5q0 -10 -1 -19t-1 -20l-6 -125q23 -12 54.5 -24.5t63 -23.5t62 -18t51.5 -7q41 0 63.5 31.5t30.5 68.5l187 -33 q-12 -55 -33 -105t-53.5 -89t-78.5 -61.5t-110 -22.5q-53 0 -105.5 15t-104.5 33.5t-102 34t-97 15.5q-88 0 -117 -84z" />
<glyph unicode="&#xa4;" horiz-adv-x="1439" d="M43 469v131h186q-2 18 -2 35.5v36.5v38.5t4 37.5h-188v131h213q31 102 89 187t141 145.5t187.5 93t225.5 32.5q119 0 226.5 -34.5t193.5 -100.5l-143 -188q-45 35 -115 56.5t-150 21.5q-135 0 -227 -56.5t-139 -156.5h540v-131h-577q-6 -37 -6 -76q0 -18 1 -36t3 -36h579 v-131h-550q41 -117 136 -184.5t240 -65.5q82 0 159 25.5t130 79.5l162 -168q-86 -82 -204 -130.5t-265 -48.5q-125 0 -231.5 33t-189.5 95.5t-140.5 154.5t-83.5 209h-205z" />
<glyph unicode="&#xa5;" horiz-adv-x="1263" d="M49 1315h268q51 -135 113 -250t115 -203q20 -35 43.5 -72.5t42.5 -70.5q18 33 40.5 70.5t45.5 72.5q53 88 113.5 203t113.5 250h268q-55 -160 -124.5 -300.5t-135.5 -246.5h244v-133h-326q-27 -37 -52 -74t-52 -72h430v-133h-430v-356h-266v356h-434v133h430 q-29 35 -54.5 72t-50.5 74h-325v133h241q-63 106 -134 246.5t-124 300.5z" />
<glyph unicode="&#xa6;" horiz-adv-x="653" d="M221 0v590h211v-590h-211zM221 885v588h211v-588h-211z" />
<glyph unicode="&#xa7;" horiz-adv-x="1062" d="M41 526q0 55 63 95q68 39 154 38q86 0 154 -38q33 -18 58.5 -39t59.5 -21q37 0 65 20.5t58 39.5q61 39 152 38q47 0 83.5 -10t69.5 -28q63 -39 64 -95q0 -55 -61 -94q-68 -39 -156 -39q-94 0 -152 39q-29 18 -58.5 39t-64.5 21q-33 0 -63.5 -23t-58.5 -39 q-55 -37 -150 -37q-86 0 -154 39q-63 39 -63 94z" />
<glyph unicode="&#xa8;" horiz-adv-x="624" d="M14 1092q0 45 32 73.5t77 28.5q41 0 72.5 -28.5t31.5 -73.5t-31.5 -76t-72.5 -31q-45 0 -77 31t-32 76zM383 1092q0 45 32 73.5t77 28.5q41 0 72.5 -28.5t31.5 -73.5t-32 -76t-72 -31q-45 0 -77 31t-32 76z" />
<glyph unicode="&#xa9;" horiz-adv-x="1382" d="M6 659q0 143 53.5 269.5t145.5 220.5t217 147.5t268 53.5t268 -53.5t218.5 -147.5t146.5 -220t53 -270q0 -145 -53 -271t-146.5 -219t-218.5 -147.5t-268 -54.5t-268 54.5t-217 147.5t-145.5 219t-53.5 271zM156 659q0 -117 42 -215t114.5 -170.5t169.5 -113.5t208 -41 t209 41t170 113.5t114 171t42 214.5q0 117 -42 215.5t-114 170t-170 112.5t-209 41t-208 -41t-169.5 -112.5t-114.5 -170t-42 -215.5zM307 664q0 86 29 161.5t80 133t122.5 90t155.5 32.5q141 0 233.5 -78.5t114.5 -201.5h-153q-16 70 -73.5 102.5t-121.5 32.5 q-53 0 -97 -23.5t-74.5 -61.5t-47 -87t-16.5 -100q0 -49 17.5 -98.5t48 -87.5t73.5 -61.5t96 -23.5q63 0 121.5 33t73.5 102h153q-23 -125 -114.5 -203.5t-233.5 -78.5q-84 0 -155.5 33.5t-122.5 90t-80 132.5t-29 162z" />
<glyph unicode="&#xaa;" horiz-adv-x="657" d="M23 571v131h577v-131h-577zM27 954q0 72 53 113t139 61q47 12 95 17.5t96 9.5q-6 88 -138 92q-39 0 -88 -11t-86 -30l-39 97q35 16 100.5 29.5t141.5 13.5q145 0 217 -56.5t72 -185.5v-139q0 -29 6 -70t22 -64l-163 -26q-10 10 -17.5 30.5t-13.5 36.5h-2q-31 -37 -82 -57 t-123 -20q-86 0 -138 37.5t-52 121.5zM207 958q-2 -33 24.5 -51t69.5 -20q51 2 78 27.5t35 62.5v84q0 10 -2 14q-27 -4 -48.5 -9t-50.5 -11q-61 -16 -84.5 -41t-21.5 -56z" />
<glyph unicode="&#xab;" horiz-adv-x="905" d="M49 545q-8 12 2 30q59 104 138 199.5t159 161.5l113 -143q-53 -41 -108.5 -106t-96.5 -128q41 -70 97.5 -134.5t111.5 -107.5l-113 -141q-84 66 -163.5 165t-139.5 204zM412 545q-8 14 2 30q63 106 144 200.5t161 160.5l112 -143q-53 -41 -108.5 -102.5t-104.5 -131.5 q49 -72 105.5 -135.5t112.5 -106.5l-113 -141q-84 66 -165 162t-146 207z" />
<glyph unicode="&#xac;" horiz-adv-x="1081" d="M78 545v211h893v-510h-211v299h-682z" />
<glyph unicode="&#xad;" horiz-adv-x="468" d="M0 455v207h469v-207h-469z" />
<glyph unicode="&#xae;" horiz-adv-x="1384" d="M6 659q0 143 53.5 269.5t146.5 220.5t218 147.5t268 53.5t268 -53.5t218.5 -147.5t146.5 -220t53 -270q0 -145 -53 -271t-146.5 -219t-218.5 -147.5t-268 -54.5t-268 54.5t-218 147.5t-146.5 219t-53.5 271zM158 659q0 -117 42 -215t113.5 -170.5t169.5 -113.5t209 -41 t208 41t170 113.5t115 171t42 214.5q0 117 -36 215.5t-104.5 170t-168 112.5t-226.5 41q-111 0 -209 -41t-169.5 -112.5t-113.5 -170t-42 -215.5zM403 301v717h306q90 0 147 -16.5t90 -45t45.5 -67.5t12.5 -86q0 -63 -46.5 -126t-150.5 -85q31 -18 52 -38.5t46 -51.5 q74 -92 117 -201h-162q-39 76 -86 133q-37 47 -71.5 82t-69.5 51h-70v-266h-160zM563 676h135q78 0 109 37t31 84q0 109 -138 108h-137v-229z" />
<glyph unicode="&#xaf;" horiz-adv-x="485" d="M-31 977v113h543v-113h-543z" />
<glyph unicode="&#xb0;" horiz-adv-x="675" d="M72 1087q0 53 20.5 100.5t55 83.5t83 56.5t101.5 20.5t101 -20.5t84 -56.5t56.5 -83.5t20.5 -100.5q0 -55 -20.5 -102t-56.5 -83t-84 -56.5t-101 -20.5t-101.5 20.5t-83 56.5t-55 83t-20.5 102zM193 1087q2 -59 41.5 -99t99.5 -40q59 0 98 40t39 99q0 57 -40 98.5 t-99 41.5t-99 -41t-40 -99z" />
<glyph unicode="&#xb1;" d="M117 0v213h893v-213h-893zM117 569v213h340v246h211v-246h340v-213h-340v-243h-211v243h-340z" />
<glyph unicode="&#xb2;" horiz-adv-x="708" d="M61 526v125q31 27 70 64t80 76.5t79 77.5t66 67q41 41 58.5 78t17.5 78q-4 41 -29.5 59t-68.5 18q-33 0 -74 -15t-76 -56l-112 121q51 57 125.5 84.5t148.5 27.5q137 0 216 -65.5t79 -178.5q0 -37 -10 -70.5t-36 -71.5t-69 -83t-108 -104q-29 -27 -49.5 -43.5 t-42.5 -38.5h321v-150h-586z" />
<glyph unicode="&#xb3;" horiz-adv-x="710" d="M61 627l95 102q29 -29 71.5 -51.5t96.5 -22.5q74 0 98 34t24 73q0 113 -133 112h-71v138h65q55 0 87 25.5t32 68.5t-28.5 58.5t-69.5 15.5q-29 0 -71 -13.5t-73 -40.5l-84 101q41 51 113 76.5t145 27.5q59 2 109.5 -13t86.5 -43t56.5 -67t20.5 -86q0 -51 -25.5 -98 t-89.5 -74q68 -23 103.5 -77.5t35.5 -120.5q0 -43 -19.5 -86t-57 -78t-97 -56.5t-141.5 -21.5q-102 0 -165.5 29.5t-113.5 87.5z" />
<glyph unicode="&#xb4;" horiz-adv-x="1673" d="M614 999l209 289l138 -92l-256 -258z" />
<glyph unicode="&#xb6;" horiz-adv-x="1372" d="M174 897q0 76 27.5 150.5t78 133t120 95.5t151.5 37h571v-164h-106v-1419h-182v1419h-115v-1419h-178v764q-76 0 -142.5 26.5t-117 77.5t-79 126t-28.5 173z" />
<glyph unicode="&#xb7;" horiz-adv-x="686" d="M182 446q0 66 47 112t113 46t114 -46t48 -112t-48 -113.5t-114 -47.5t-113 48t-47 113z" />
<glyph unicode="&#xb8;" horiz-adv-x="430" d="M61 -197q43 29 77 78t48 103l136 2q-16 -82 -58.5 -153t-120.5 -118q-4 6 -17 20.5t-28 31.5q-16 18 -37 36z" />
<glyph unicode="&#xb9;" horiz-adv-x="796" d="M182 1145q35 10 71 29.5t68.5 43t59.5 49t43 48.5h164v-789h-203v559q-84 -59 -166 -84z" />
<glyph unicode="&#xba;" horiz-adv-x="591" d="M-4 1071q0 59 22.5 110.5t62.5 88.5t95 57.5t121 20.5t120 -20.5t94 -57.5t62.5 -88.5t22.5 -110.5q0 -61 -21.5 -111.5t-61.5 -87t-95.5 -56t-120.5 -19.5q-66 0 -121 19.5t-95 56t-62.5 87t-22.5 111.5zM6 571v131h580v-131h-580zM166 1073q0 -63 36 -105t95 -42t94 44 t35 103q0 61 -35 102.5t-94 41.5t-95 -40t-36 -104z" />
<glyph unicode="&#xbb;" horiz-adv-x="905" d="M70 317q55 43 111.5 106.5t105.5 135.5q-49 70 -104.5 131.5t-108.5 102.5l112 143q80 -66 161 -160t145 -201q10 -16 2 -30q-66 -111 -147 -207t-165 -162zM440 317q55 43 111.5 107.5t97.5 134.5q-41 63 -96 128t-109 106l113 143q80 -66 159 -161t138 -200 q10 -18 2 -30q-59 -104 -139 -203.5t-164 -165.5z" />
<glyph unicode="&#xbc;" horiz-adv-x="1849" d="M113 1145q35 10 70.5 29.5t68.5 43t59.5 49t42.5 48.5h164v-789h-203v559q-84 -59 -165 -84zM457 8l712 1346q31 -12 69 -28.5t71 -31.5q-180 -338 -355.5 -672.5t-355.5 -672.5q-33 14 -72 29.5t-69 29.5zM987 131v88q35 70 83 148.5t104 158.5q35 53 91 125t121 137 h209v-512h76v-145h-76v-131h-192v131h-416zM1186 276h217v316q-59 -74 -114.5 -155t-102.5 -161z" />
<glyph unicode="&#xbd;" horiz-adv-x="1773" d="M113 1145q35 10 70.5 29.5t68.5 43t59.5 49t42.5 48.5h164v-789h-203v559q-84 -59 -165 -84zM375 2l712 1346q31 -12 69 -28.5t71 -31.5q-180 -338 -355.5 -672.5t-355.5 -672.5q-33 14 -71.5 29.5t-69.5 29.5zM1053 0v125q31 27 69.5 63.5t79.5 76.5t79 78l67 67 q41 41 58 77.5t17 77.5q-4 41 -29.5 59.5t-68.5 18.5q-33 0 -74 -15.5t-75 -56.5l-113 121q51 57 126 85t148 28q137 0 216 -65.5t79 -178.5q0 -37 -10 -70.5t-35.5 -71.5t-68.5 -83t-109 -105q-29 -27 -49.5 -43t-42.5 -38h321v-150h-585z" />
<glyph unicode="&#xbe;" horiz-adv-x="1617" d="M84 627l94 102q29 -29 72 -51.5t96 -22.5q74 0 98.5 34t24.5 73q0 113 -133 112h-72v138h66q55 0 87 25.5t32 68.5t-29 58.5t-70 15.5q-29 0 -70.5 -13.5t-72.5 -40.5l-84 101q41 51 112.5 76.5t145.5 27.5q59 2 109.5 -13t86 -43t56 -67t20.5 -86q0 -51 -25.5 -98 t-88.5 -74q68 -23 103.5 -77.5t35.5 -120.5q0 -43 -19.5 -86t-57.5 -78t-97.5 -56.5t-141.5 -21.5q-102 0 -165.5 29.5t-112.5 87.5zM428 8l713 1346q31 -12 68.5 -28.5t70.5 -31.5q-180 -338 -355 -672.5t-356 -672.5q-33 14 -71.5 29.5t-69.5 29.5zM872 131v88 q35 70 83.5 148.5t103.5 158.5q35 53 91 125t122 137h209v-512h75v-145h-75v-131h-193v131h-416zM1071 276h217v316q-59 -74 -114.5 -155t-102.5 -161z" />
<glyph unicode="&#xbf;" horiz-adv-x="905" d="M131 -252q0 74 38 145.5t107 143.5q45 47 83 82t66 68.5t43 69.5t15 81q0 23 -2 37t-10 43h250q8 -27 10 -40t2 -42q0 -41 -8 -75t-30.5 -69.5t-58.5 -77.5t-91 -100q-14 -14 -31.5 -33.5t-34 -39t-30 -38t-21.5 -30.5q-20 -35 -24.5 -70.5t8 -63.5t42 -45.5t74.5 -17.5 q63 0 117.5 18.5t87.5 41.5l107 -172q-39 -31 -129 -63.5t-203 -32.5q-88 0 -158.5 21.5t-119 60t-74 90t-25.5 108.5zM457 690q0 59 40 100.5t99 41.5t100 -41t41 -101q0 -59 -41 -100t-100 -41t-99 41t-40 100z" />
<glyph unicode="&#xc0;" horiz-adv-x="1280" d="M-8 0q43 166 109.5 364.5t146.5 403.5q41 104 104.5 251.5t139.5 295.5h296q76 -147 139.5 -295t104.5 -252q80 -205 146.5 -403.5t109.5 -364.5h-260q-20 70 -43.5 145.5t-50.5 155.5h-588q-29 -80 -51.5 -155.5t-42.5 -145.5h-260zM362 1624l99 135l295 -198l-64 -93z M422 520h436q-16 39 -30.5 78t-30.5 78q-39 100 -80 200.5t-78 184.5q-39 -86 -78 -185.5t-78 -199.5q-16 -39 -30.5 -78t-30.5 -78z" />
<glyph unicode="&#xc1;" horiz-adv-x="1280" d="M-8 0q43 166 109.5 364.5t146.5 403.5q41 104 104.5 251.5t139.5 295.5h296q76 -147 139.5 -295t104.5 -252q80 -205 146.5 -403.5t109.5 -364.5h-260q-20 70 -43.5 145.5t-50.5 155.5h-588q-29 -80 -51.5 -155.5t-42.5 -145.5h-260zM422 520h436q-16 39 -30.5 78 t-30.5 78q-39 100 -80 200.5t-78 184.5q-39 -86 -78 -185.5t-78 -199.5q-16 -39 -30.5 -78t-30.5 -78zM545 1559l295 198l98 -135l-330 -156z" />
<glyph unicode="&#xc2;" horiz-adv-x="1280" d="M-8 0q43 166 109.5 364.5t146.5 403.5q41 104 104.5 251.5t139.5 295.5h296q76 -147 139.5 -295t104.5 -252q80 -205 146.5 -403.5t109.5 -364.5h-260q-20 70 -43.5 145.5t-50.5 155.5h-588q-29 -80 -51.5 -155.5t-42.5 -145.5h-260zM373 1534q20 25 54 56.5t72 62 t75.5 57.5t66.5 45q25 -14 61.5 -40.5t75.5 -58.5t75 -64.5t58 -57.5l-67 -78q-35 41 -93.5 82t-109.5 64q-23 -12 -51.5 -29t-56 -36t-52 -39.5t-43.5 -39.5zM422 520h436q-16 39 -30.5 78t-30.5 78q-39 100 -80 200.5t-78 184.5q-39 -86 -78 -185.5t-78 -199.5 q-16 -39 -30.5 -78t-30.5 -78z" />
<glyph unicode="&#xc3;" horiz-adv-x="1280" d="M-8 0q43 166 109.5 364.5t146.5 403.5q41 104 104.5 251.5t139.5 295.5h296q76 -147 139.5 -295t104.5 -252q80 -205 146.5 -403.5t109.5 -364.5h-260q-20 70 -43.5 145.5t-50.5 155.5h-588q-29 -80 -51.5 -155.5t-42.5 -145.5h-260zM408 1503q2 29 10 59.5t24.5 56.5 t43 42t63.5 16q25 0 51.5 -8t52 -18.5t48 -18.5t38.5 -8q23 0 35 17.5t27 35.5h104q-4 -31 -15 -62.5t-30.5 -58t-47.5 -43t-64 -16.5q-20 0 -44 9.5t-47.5 20.5t-46 20t-43.5 9q-23 0 -36 -16t-21 -37h-102zM422 520h436q-16 39 -30.5 78t-30.5 78q-39 100 -80 200.5 t-78 184.5q-39 -86 -78 -185.5t-78 -199.5q-16 -39 -30.5 -78t-30.5 -78z" />
<glyph unicode="&#xc4;" horiz-adv-x="1280" d="M-8 0q43 166 109.5 364.5t146.5 403.5q41 104 104.5 251.5t139.5 295.5h296q76 -147 139.5 -295t104.5 -252q80 -205 146.5 -403.5t109.5 -364.5h-260q-20 70 -43.5 145.5t-50.5 155.5h-588q-29 -80 -51.5 -155.5t-42.5 -145.5h-260zM356 1606q0 45 32 73.5t77 28.5 q41 0 72.5 -28.5t31.5 -73.5t-31.5 -76t-72.5 -31q-45 0 -77 31t-32 76zM422 520h436q-16 39 -30.5 78t-30.5 78q-39 100 -80 200.5t-78 184.5q-39 -86 -78 -185.5t-78 -199.5q-16 -39 -30.5 -78t-30.5 -78zM725 1606q0 45 32 73.5t77 28.5q41 0 72.5 -28.5t31.5 -73.5 t-32 -76t-72 -31q-45 0 -77 31t-32 76z" />
<glyph unicode="&#xc5;" horiz-adv-x="1280" d="M-8 0q43 166 109.5 364.5t146.5 403.5q41 104 104.5 251.5t139.5 295.5h296q76 -147 139.5 -295t104.5 -252q80 -205 146.5 -403.5t109.5 -364.5h-260q-20 70 -43.5 145.5t-50.5 155.5h-588q-29 -80 -51.5 -155.5t-42.5 -145.5h-260zM422 520h436q-16 39 -30.5 78 t-30.5 78q-39 100 -80 200.5t-78 184.5q-39 -86 -78 -185.5t-78 -199.5q-16 -39 -30.5 -78t-30.5 -78zM475 1573q0 33 13.5 61.5t35 49t51 33t60.5 12.5q33 0 61.5 -12.5t51 -33t36 -49t13.5 -61.5q0 -68 -48.5 -113t-111.5 -45q-66 0 -114 45t-48 113zM573 1573 q0 -61 64 -62q29 0 45 16.5t16 45.5t-16 44t-45 15q-63 0 -64 -59z" />
<glyph unicode="&#xc6;" horiz-adv-x="1794" d="M-74 0q37 82 85 176t105.5 196.5t123 209t133.5 213.5q31 49 72.5 111.5t90 130t101.5 139t108 139.5h957v-223h-524v-285h446v-223h-446v-359h567v-225h-834v326h-530q-51 -86 -95 -169t-81 -157h-279zM512 543h399v559h-14q-72 -92 -150.5 -204t-162.5 -241 q-18 -29 -37 -57.5t-35 -56.5z" />
<glyph unicode="&#xc7;" horiz-adv-x="1259" d="M47 672q0 143 49 265t137.5 211t212 139t273.5 50q119 0 227.5 -34.5t194.5 -100.5l-144 -188q-47 35 -116.5 56.5t-147.5 21.5q-98 0 -175 -32t-129 -87t-78.5 -132t-26.5 -169q0 -102 26.5 -186.5t77.5 -143.5t127 -92t176 -33q82 0 159 25.5t130 76.5l162 -165 q-72 -68 -165 -113t-208 -59q-16 -113 -71.5 -201t-157.5 -154q-6 8 -23.5 27.5t-36.5 38.5l-47 47q57 41 101 105.5t61 131.5q-133 12 -241.5 64.5t-185.5 141.5t-119 212t-42 277z" />
<glyph unicode="&#xc8;" horiz-adv-x="1007" d="M127 0v1315h788v-225h-522v-285h445v-223h-445v-359h565v-223h-831zM223 1624l99 135l294 -198l-63 -93z" />
<glyph unicode="&#xc9;" horiz-adv-x="1007" d="M127 0v1315h788v-225h-522v-285h445v-223h-445v-359h565v-223h-831zM406 1559l294 198l99 -135l-330 -156z" />
<glyph unicode="&#xca;" horiz-adv-x="1007" d="M127 0v1315h788v-225h-522v-285h445v-223h-445v-359h565v-223h-831zM264 1536q20 25 54 56.5t72 62.5t75.5 57.5t66.5 44.5q25 -14 62 -40.5t76 -58.5t74.5 -64.5t58.5 -57.5l-68 -78q-35 41 -93 82t-110 64q-23 -12 -51 -28.5t-56 -36t-52.5 -40t-42.5 -39.5z" />
<glyph unicode="&#xcb;" horiz-adv-x="1007" d="M127 0v1315h788v-225h-522v-285h445v-223h-445v-359h565v-223h-831zM252 1604q0 45 32 73.5t77 28.5q41 0 72.5 -28.5t31.5 -73.5t-31.5 -76t-72.5 -31q-45 0 -77 31t-32 76zM621 1604q0 45 32 73.5t77 28.5q41 0 72.5 -28.5t31.5 -73.5t-32 -76t-72 -31q-45 0 -77 31 t-32 76z" />
<glyph unicode="&#xcc;" horiz-adv-x="520" d="M-39 1622l98 135l295 -198l-63 -93zM127 0v1315h266v-1315h-266z" />
<glyph unicode="&#xcd;" horiz-adv-x="520" d="M127 0v1315h266v-1315h-266zM145 1559l295 198l99 -135l-330 -156z" />
<glyph unicode="&#xce;" horiz-adv-x="520" d="M-12 1536q20 25 54 56.5t72 62.5t75.5 57.5t66.5 44.5q25 -14 61.5 -40.5t75.5 -58.5t75 -64.5t58 -57.5l-67 -78q-35 41 -93.5 82t-109.5 64q-47 -23 -106.5 -64t-94.5 -80zM127 0v1315h266v-1315h-266z" />
<glyph unicode="&#xcf;" horiz-adv-x="520" d="M-29 1604q0 45 32 73.5t77 28.5q41 0 72.5 -28.5t31.5 -73.5t-31.5 -76t-72.5 -31q-45 0 -77 31t-32 76zM127 0v1315h266v-1315h-266zM340 1604q0 45 32 73.5t77 28.5q41 0 72.5 -28.5t31.5 -73.5t-32 -76t-72 -31q-45 0 -77 31t-32 76z" />
<glyph unicode="&#xd0;" horiz-adv-x="1284" d="M-18 584v215h127v516h483q154 0 273.5 -45t202.5 -130t126 -207t43 -278q0 -135 -41 -254.5t-122 -209t-201.5 -140.5t-280.5 -51h-483v584h-127zM375 217h149q231 0 335 102.5t104 337.5q0 211 -101.5 326t-337.5 115h-149v-299h196v-215h-196v-367z" />
<glyph unicode="&#xd1;" horiz-adv-x="1536" d="M127 0v1339h121q141 -94 280.5 -205.5t268.5 -236.5q80 -78 169 -174t177 -213v805h266v-1315h-231q-61 113 -131 215t-143 193.5t-144.5 168t-136.5 140.5q-55 53 -112.5 103t-117.5 100v-920h-266zM545 1507q2 29 10 59.5t24.5 56.5t43 42t63.5 16q25 0 51.5 -8t52 -18 t48 -18.5t39.5 -8.5q23 0 35 17.5t26 35.5h104q-4 -31 -15 -62.5t-30.5 -58t-47 -43t-64.5 -16.5q-20 0 -44 9.5t-47.5 20.5t-46 20.5t-42.5 9.5q-23 0 -36.5 -16.5t-21.5 -37.5h-102z" />
<glyph unicode="&#xd2;" horiz-adv-x="1421" d="M47 674q0 143 47 264t133 210t208 139t274 50q154 0 276.5 -50t208.5 -138t133 -210t47 -265q0 -145 -42 -272.5t-125 -221.5t-207.5 -148.5t-290.5 -54.5q-152 0 -274 48.5t-208 138.5t-133 219t-47 291zM322 676q0 -100 26.5 -187.5t75.5 -151t120.5 -100t164.5 -36.5 q106 0 181 40t121 105.5t67.5 151.5t21.5 178q0 88 -25.5 168t-76 140t-123 95t-166.5 35q-180 0 -283.5 -116.5t-103.5 -321.5zM424 1624l98 135l295 -198l-63 -93z" />
<glyph unicode="&#xd3;" horiz-adv-x="1421" d="M47 674q0 143 47 264t133 210t208 139t274 50q154 0 276.5 -50t208.5 -138t133 -210t47 -265q0 -145 -42 -272.5t-125 -221.5t-207.5 -148.5t-290.5 -54.5q-152 0 -274 48.5t-208 138.5t-133 219t-47 291zM322 676q0 -100 26.5 -187.5t75.5 -151t120.5 -100t164.5 -36.5 q106 0 181 40t121 105.5t67.5 151.5t21.5 178q0 88 -25.5 168t-76 140t-123 95t-166.5 35q-180 0 -283.5 -116.5t-103.5 -321.5zM606 1559l295 198l98 -135l-329 -156z" />
<glyph unicode="&#xd4;" horiz-adv-x="1421" d="M47 674q0 143 47 264t133 210t208 139t274 50q154 0 276.5 -50t208.5 -138t133 -210t47 -265q0 -145 -42 -272.5t-125 -221.5t-207.5 -148.5t-290.5 -54.5q-152 0 -274 48.5t-208 138.5t-133 219t-47 291zM322 676q0 -100 26.5 -187.5t75.5 -151t120.5 -100t164.5 -36.5 q106 0 181 40t121 105.5t67.5 151.5t21.5 178q0 88 -25.5 168t-76 140t-123 95t-166.5 35q-180 0 -283.5 -116.5t-103.5 -321.5zM432 1534q20 25 54 56.5t72 62t75.5 57.5t66.5 45q25 -14 62 -40.5t76 -58.5t74.5 -64.5t58.5 -57.5l-68 -78q-35 41 -93 82t-110 64 q-23 -12 -51 -29t-56 -36t-52.5 -39.5t-42.5 -39.5z" />
<glyph unicode="&#xd5;" horiz-adv-x="1421" d="M47 674q0 143 47 264t133 210t208 139t274 50q154 0 276.5 -50t208.5 -138t133 -210t47 -265q0 -145 -42 -272.5t-125 -221.5t-207.5 -148.5t-290.5 -54.5q-152 0 -274 48.5t-208 138.5t-133 219t-47 291zM322 676q0 -100 26.5 -187.5t75.5 -151t120.5 -100t164.5 -36.5 q106 0 181 40t121 105.5t67.5 151.5t21.5 178q0 88 -25.5 168t-76 140t-123 95t-166.5 35q-180 0 -283.5 -116.5t-103.5 -321.5zM483 1503q2 29 10.5 59.5t25 56.5t43 42t63.5 16q25 0 51 -8t52 -18.5t48.5 -18.5t38.5 -8q23 0 35 17.5t27 35.5h104q-4 -31 -15.5 -62.5 t-31 -58t-47 -43t-64.5 -16.5q-20 0 -43.5 9.5t-47 20.5t-46 20t-43.5 9q-23 0 -36 -16t-21 -37h-103z" />
<glyph unicode="&#xd6;" horiz-adv-x="1421" d="M47 674q0 143 47 264t133 210t208 139t274 50q154 0 276.5 -50t208.5 -138t133 -210t47 -265q0 -145 -42 -272.5t-125 -221.5t-207.5 -148.5t-290.5 -54.5q-152 0 -274 48.5t-208 138.5t-133 219t-47 291zM322 676q0 -100 26.5 -187.5t75.5 -151t120.5 -100t164.5 -36.5 q106 0 181 40t121 105.5t67.5 151.5t21.5 178q0 88 -25.5 168t-76 140t-123 95t-166.5 35q-180 0 -283.5 -116.5t-103.5 -321.5zM430 1606q0 45 32 73.5t77 28.5q41 0 72.5 -28.5t31.5 -73.5t-31.5 -76t-72.5 -31q-45 0 -77 31t-32 76zM799 1606q0 45 32 73.5t77 28.5 q41 0 72.5 -28.5t31.5 -73.5t-32 -76t-72 -31q-45 0 -77 31t-32 76z" />
<glyph unicode="&#xd7;" d="M92 133q61 78 143 169t177 187q-86 80 -165 150t-147 123l129 166q152 -117 332 -291q182 176 334 293l129 -166q-70 -53 -148.5 -124t-164.5 -151q94 -98 176 -189t145 -169l-164 -131q-59 74 -138 161t-169 179q-90 -92 -168 -179t-137 -159z" />
<glyph unicode="&#xd8;" horiz-adv-x="1499" d="M47 -25l193 224q-72 90 -111 209.5t-39 267.5q0 141 47 264t134 212t209 140t274 51q111 0 207 -27.5t174 -76.5l174 201l143 -123l-176 -207q70 -86 106.5 -195.5t36.5 -238.5q0 -145 -42 -272.5t-125 -222.5t-207.5 -149.5t-290.5 -54.5q-219 0 -371 97l-193 -221z M365 678q0 -147 57 -266l553 641q-45 33 -100.5 50t-120.5 17q-180 0 -284.5 -118.5t-104.5 -323.5zM545 264q88 -63 209 -63q106 0 180 40t120 106.5t67.5 152.5t21.5 178q0 121 -47 225z" />
<glyph unicode="&#xd9;" horiz-adv-x="1300" d="M115 512v803h266v-758q0 -92 12.5 -160.5t43 -114.5t81.5 -70t131 -24q82 0 134.5 22.5t83 69t42 116t11.5 161.5v758h266v-803q0 -96 -16.5 -192.5t-72 -172t-162 -123t-286.5 -47.5q-182 0 -287.5 45.5t-161 121t-70.5 171t-15 197.5zM344 1622l98 135l295 -198 l-63 -93z" />
<glyph unicode="&#xda;" horiz-adv-x="1300" d="M115 512v803h266v-758q0 -92 12.5 -160.5t43 -114.5t81.5 -70t131 -24q82 0 134.5 22.5t83 69t42 116t11.5 161.5v758h266v-803q0 -96 -16.5 -192.5t-72 -172t-162 -123t-286.5 -47.5q-182 0 -287.5 45.5t-161 121t-70.5 171t-15 197.5zM545 1561l295 198l98 -135 l-330 -156z" />
<glyph unicode="&#xdb;" horiz-adv-x="1300" d="M115 512v803h266v-758q0 -92 12.5 -160.5t43 -114.5t81.5 -70t131 -24q82 0 134.5 22.5t83 69t42 116t11.5 161.5v758h266v-803q0 -96 -16.5 -192.5t-72 -172t-162 -123t-286.5 -47.5q-182 0 -287.5 45.5t-161 121t-70.5 171t-15 197.5zM383 1534q20 25 54 56.5t72 62 t75.5 57.5t66.5 45q25 -14 62 -40.5t75.5 -58.5t74.5 -64.5t59 -57.5l-68 -78q-35 41 -93.5 82t-109.5 64q-23 -12 -51.5 -29t-56 -36t-52 -39.5t-42.5 -39.5z" />
<glyph unicode="&#xdc;" horiz-adv-x="1300" d="M115 512v803h266v-758q0 -92 12.5 -160.5t43 -114.5t81.5 -70t131 -24q82 0 134.5 22.5t83 69t42 116t11.5 161.5v758h266v-803q0 -96 -16.5 -192.5t-72 -172t-162 -123t-286.5 -47.5q-182 0 -287.5 45.5t-161 121t-70.5 171t-15 197.5zM358 1606q0 45 32 73.5t77 28.5 q41 0 72.5 -28.5t31.5 -73.5t-31.5 -76t-72.5 -31q-45 0 -77 31t-32 76zM727 1606q0 45 32 73.5t77 28.5q41 0 72.5 -28.5t31.5 -73.5t-32 -76t-72 -31q-45 0 -77 31t-32 76z" />
<glyph unicode="&#xdd;" horiz-adv-x="1146" d="M-8 1315h268q53 -135 113.5 -251t113.5 -202q23 -35 45.5 -73.5t40.5 -69.5q18 33 42 70.5t44 72.5q53 86 115 202t113 251h268q-59 -176 -136 -325.5t-145 -260.5q-41 -63 -81.5 -123.5t-83.5 -118.5v-487h-267v481q-43 59 -85 121t-83 127q-68 111 -145.5 260.5 t-136.5 325.5zM412 1559l295 198l98 -135l-330 -156z" />
<glyph unicode="&#xde;" horiz-adv-x="983" d="M127 0v1315h266v-211h105q102 0 186 -22.5t143.5 -71.5t92 -127t32.5 -191q0 -211 -109.5 -314.5t-314.5 -103.5h-135v-274h-266zM393 496h53q55 0 99.5 7t74 28.5t46 59.5t16.5 101t-17.5 101t-50 57.5t-76.5 26t-98 6.5h-47v-387z" />
<glyph unicode="&#xdf;" horiz-adv-x="1069" d="M33 590v211h102v217q0 96 22.5 177t72 139.5t125 91t184.5 32.5q94 0 169.5 -28.5t129 -80t82 -123t28.5 -155.5q0 -88 -34.5 -161.5t-110.5 -129.5q119 -51 173 -146t54 -222q0 -109 -36 -190t-98 -135t-150.5 -82t-192.5 -28h-37v209q131 0 193.5 64.5t62.5 171.5 q0 123 -71.5 180t-184.5 57v209q78 0 129 49.5t51 147.5q0 76 -47 126t-112 50q-49 0 -79 -23.5t-46.5 -60.5t-21.5 -82t-5 -86v-65v-924h-250v590h-102z" />
<glyph unicode="&#xe0;" horiz-adv-x="940" d="M39 223q0 109 77 173.5t197 95.5q66 18 135.5 28t135.5 15q-8 137 -195 141q-55 0 -125.5 -16.5t-124.5 -45.5l-51 148q49 23 142.5 44t199.5 21q205 0 308.5 -87t103.5 -285v-217q0 -23 2 -50.5t6 -56.5t12 -54.5t21 -41.5l-236 -41q-12 16 -23.5 48t-19.5 54h-4 q-43 -55 -113.5 -87t-175.5 -32q-125 0 -198.5 58.5t-73.5 187.5zM194 1196l138 92l208 -289l-90 -61zM297 229q-2 -51 35 -79.5t98 -30.5q72 2 111 42t49 95v131q0 16 -2 23q-39 -6 -70 -14.5t-69 -18.5q-88 -27 -121 -64t-31 -84z" />
<glyph unicode="&#xe1;" horiz-adv-x="940" d="M39 223q0 109 77 173.5t197 95.5q66 18 135.5 28t135.5 15q-8 137 -195 141q-55 0 -125.5 -16.5t-124.5 -45.5l-51 148q49 23 142.5 44t199.5 21q205 0 308.5 -87t103.5 -285v-217q0 -23 2 -50.5t6 -56.5t12 -54.5t21 -41.5l-236 -41q-12 16 -23.5 48t-19.5 54h-4 q-43 -55 -113.5 -87t-175.5 -32q-125 0 -198.5 58.5t-73.5 187.5zM297 229q-2 -51 35 -79.5t98 -30.5q72 2 111 42t49 95v131q0 16 -2 23q-39 -6 -70 -14.5t-69 -18.5q-88 -27 -121 -64t-31 -84zM383 999l209 289l138 -92l-256 -258z" />
<glyph unicode="&#xe2;" horiz-adv-x="940" d="M39 223q0 109 77 173.5t197 95.5q66 18 135.5 28t135.5 15q-8 137 -195 141q-55 0 -125.5 -16.5t-124.5 -45.5l-51 148q49 23 142.5 44t199.5 21q205 0 308.5 -87t103.5 -285v-217q0 -23 2 -50.5t6 -56.5t12 -54.5t21 -41.5l-236 -41q-12 16 -23.5 48t-19.5 54h-4 q-43 -55 -113.5 -87t-175.5 -32q-125 0 -198.5 58.5t-73.5 187.5zM193 987q20 25 54 59.5t72 69.5t75.5 66t66.5 49q25 -14 62 -44t75.5 -66t74.5 -72.5t59 -61.5l-68 -78q-16 20 -41 45t-52.5 47.5t-56 43t-53.5 30.5q-23 -10 -51.5 -30.5t-56 -43t-52 -47t-40.5 -43.5z M297 229q-2 -51 35 -79.5t98 -30.5q72 2 111 42t49 95v131q0 16 -2 23q-39 -6 -70 -14.5t-69 -18.5q-88 -27 -121 -64t-31 -84z" />
<glyph unicode="&#xe3;" horiz-adv-x="940" d="M39 223q0 109 77 173.5t197 95.5q66 18 135.5 28t135.5 15q-8 137 -195 141q-55 0 -125.5 -16.5t-124.5 -45.5l-51 148q49 23 142.5 44t199.5 21q205 0 308.5 -87t103.5 -285v-217q0 -23 2 -50.5t6 -56.5t12 -54.5t21 -41.5l-236 -41q-12 16 -23.5 48t-19.5 54h-4 q-43 -55 -113.5 -87t-175.5 -32q-125 0 -198.5 58.5t-73.5 187.5zM211 948q2 29 10 59.5t24.5 56.5t43 42t63.5 16q25 0 51.5 -8t52 -18.5t48 -18.5t39.5 -8q23 0 35 17.5t26 35.5h105q-4 -31 -15.5 -62.5t-31 -58t-47 -43t-64.5 -16.5q-20 0 -44 9.5t-47.5 20.5t-46 20 t-42.5 9q-23 0 -36.5 -16t-21.5 -37h-102zM297 229q-2 -51 35 -79.5t98 -30.5q72 2 111 42t49 95v131q0 16 -2 23q-39 -6 -70 -14.5t-69 -18.5q-88 -27 -121 -64t-31 -84z" />
<glyph unicode="&#xe4;" horiz-adv-x="940" d="M39 223q0 109 77 173.5t197 95.5q66 18 135.5 28t135.5 15q-8 137 -195 141q-55 0 -125.5 -16.5t-124.5 -45.5l-51 148q49 23 142.5 44t199.5 21q205 0 308.5 -87t103.5 -285v-217q0 -23 2 -50.5t6 -56.5t12 -54.5t21 -41.5l-236 -41q-12 16 -23.5 48t-19.5 54h-4 q-43 -55 -113.5 -87t-175.5 -32q-125 0 -198.5 58.5t-73.5 187.5zM166 1092q0 45 32 73.5t77 28.5q41 0 72.5 -28.5t31.5 -73.5t-31.5 -76t-72.5 -31q-45 0 -77 31t-32 76zM297 229q-2 -51 35 -79.5t98 -30.5q72 2 111 42t49 95v131q0 16 -2 23q-39 -6 -70 -14.5t-69 -18.5 q-88 -27 -121 -64t-31 -84zM535 1092q0 45 32 73.5t77 28.5q41 0 72.5 -28.5t31.5 -73.5t-32 -76t-72 -31q-45 0 -77 31t-32 76z" />
<glyph unicode="&#xe5;" horiz-adv-x="940" d="M39 223q0 109 77 173.5t197 95.5q66 18 135.5 28t135.5 15q-8 137 -195 141q-55 0 -125.5 -16.5t-124.5 -45.5l-51 148q49 23 142.5 44t199.5 21q205 0 308.5 -87t103.5 -285v-217q0 -23 2 -50.5t6 -56.5t12 -54.5t21 -41.5l-236 -41q-12 16 -23.5 48t-19.5 54h-4 q-43 -55 -113.5 -87t-175.5 -32q-125 0 -198.5 58.5t-73.5 187.5zM297 229q-2 -51 35 -79.5t98 -30.5q72 2 111 42t49 95v131q0 16 -2 23q-39 -6 -70 -14.5t-69 -18.5q-88 -27 -121 -64t-31 -84zM297 1081q0 33 13.5 61.5t35 49t51 33t60.5 12.5q33 0 61.5 -12.5t51 -33 t36 -49t13.5 -61.5q0 -68 -48 -112.5t-112 -44.5q-66 0 -114 45t-48 112zM396 1081q0 -61 63 -61q29 0 45.5 16.5t16.5 44.5q0 29 -16.5 44.5t-45.5 15.5q-63 0 -63 -60z" />
<glyph unicode="&#xe6;" horiz-adv-x="1462" d="M39 225q0 109 75.5 172.5t196.5 94.5q66 18 139.5 28t139.5 15q-4 72 -55.5 104.5t-143.5 34.5q-55 0 -126.5 -16.5t-125.5 -45.5l-53 150q49 23 144.5 44t201.5 21q207 0 311 -86q111 86 279 86q109 0 184.5 -33.5t123.5 -94t70.5 -142.5t22.5 -178v-27h-575 q0 -41 14.5 -80t45 -69.5t77.5 -49t113 -18.5q59 0 116.5 14.5t104.5 43.5q23 -35 45 -69t45 -67q-51 -35 -141 -57.5t-197 -22.5q-158 0 -256 46.5t-153 121.5h-5q-16 -23 -42.5 -51t-67.5 -54t-99.5 -44.5t-138.5 -18.5q-123 0 -196.5 59.5t-73.5 188.5zM295 231 q-2 -49 31.5 -78.5t105.5 -31.5q72 2 113 42t51 95v131q0 14 -2 21q-39 -6 -72 -13.5t-71 -17.5q-88 -27 -123 -63.5t-33 -84.5zM852 477h334q-4 98 -41 153.5t-117 55.5q-78 0 -124 -48t-52 -161z" />
<glyph unicode="&#xe7;" horiz-adv-x="753" d="M39 408q0 92 31.5 169.5t91 133t141.5 86t184 30.5q76 0 137.5 -17t114.5 -46l-88 -156q-27 14 -65.5 25.5t-77.5 11.5q-92 0 -151.5 -59.5t-59.5 -177.5q0 -106 50 -177t161 -71q39 0 76 11t63 32l98 -150q-35 -25 -84 -43t-104 -24q-16 -82 -58 -153t-120 -118 q-4 6 -17.5 20.5t-27.5 31.5q-16 18 -37 36q43 29 77 78t48 103q-195 16 -289 131.5t-94 292.5z" />
<glyph unicode="&#xe8;" horiz-adv-x="921" d="M39 393q0 98 30.5 179t88 137.5t138.5 87t181 30.5q109 0 185.5 -33.5t126 -94t72 -142.5t22.5 -178v-27h-584q0 -41 15.5 -80t47 -69.5t78.5 -49t113 -18.5q59 0 118.5 14.5t106.5 43.5q23 -35 45.5 -69t44.5 -67q-51 -35 -143 -57.5t-199 -22.5q-133 0 -225 34 t-150.5 91.5t-85 132t-26.5 158.5zM237 1196l138 92l208 -289l-90 -61zM303 477h342q-4 98 -43 153.5t-119 55.5q-78 0 -126 -48t-54 -161z" />
<glyph unicode="&#xe9;" horiz-adv-x="921" d="M39 393q0 98 30.5 179t88 137.5t138.5 87t181 30.5q109 0 185.5 -33.5t126 -94t72 -142.5t22.5 -178v-27h-584q0 -41 15.5 -80t47 -69.5t78.5 -49t113 -18.5q59 0 118.5 14.5t106.5 43.5q23 -35 45.5 -69t44.5 -67q-51 -35 -143 -57.5t-199 -22.5q-133 0 -225 34 t-150.5 91.5t-85 132t-26.5 158.5zM303 477h342q-4 98 -43 153.5t-119 55.5q-78 0 -126 -48t-54 -161zM401 999l209 289l138 -92l-256 -258z" />
<glyph unicode="&#xea;" horiz-adv-x="921" d="M39 393q0 98 30.5 179t88 137.5t138.5 87t181 30.5q109 0 185.5 -33.5t126 -94t72 -142.5t22.5 -178v-27h-584q0 -41 15.5 -80t47 -69.5t78.5 -49t113 -18.5q59 0 118.5 14.5t106.5 43.5q23 -35 45.5 -69t44.5 -67q-51 -35 -143 -57.5t-199 -22.5q-133 0 -225 34 t-150.5 91.5t-85 132t-26.5 158.5zM219 987q20 25 54 59.5t72 69.5t75.5 66t66.5 49q25 -14 62 -44t75.5 -66t74.5 -72.5t59 -61.5l-68 -78q-16 20 -41 45t-52.5 47.5t-56 43t-53.5 30.5q-23 -10 -51.5 -30.5t-56 -43t-52 -47t-40.5 -43.5zM303 477h342q-4 98 -43 153.5 t-119 55.5q-78 0 -126 -48t-54 -161z" />
<glyph unicode="&#xeb;" horiz-adv-x="921" d="M39 393q0 98 30.5 179t88 137.5t138.5 87t181 30.5q109 0 185.5 -33.5t126 -94t72 -142.5t22.5 -178v-27h-584q0 -41 15.5 -80t47 -69.5t78.5 -49t113 -18.5q59 0 118.5 14.5t106.5 43.5q23 -35 45.5 -69t44.5 -67q-51 -35 -143 -57.5t-199 -22.5q-133 0 -225 34 t-150.5 91.5t-85 132t-26.5 158.5zM192 1092q0 45 32 73.5t77 28.5q41 0 72.5 -28.5t31.5 -73.5t-31.5 -76t-72.5 -31q-45 0 -77 31t-32 76zM303 477h342q-4 98 -43 153.5t-119 55.5q-78 0 -126 -48t-54 -161zM561 1092q0 45 32 73.5t77 28.5q41 0 72.5 -28.5t31.5 -73.5 t-32 -76t-72 -31q-45 0 -77 31t-32 76z" />
<glyph unicode="&#xec;" horiz-adv-x="464" d="M-41 1196l138 92l208 -289l-90 -61zM106 0v805h252v-805h-252z" />
<glyph unicode="&#xed;" horiz-adv-x="464" d="M106 0v805h252v-805h-252zM159 999l209 289l138 -92l-256 -258z" />
<glyph unicode="&#xee;" horiz-adv-x="464" d="M-33 987q20 25 54 59.5t72 69.5t75.5 66t66.5 49q25 -14 62 -44t75.5 -66t74.5 -72.5t59 -61.5l-68 -78q-16 20 -41 45t-52.5 47.5t-56 43t-53.5 30.5q-23 -10 -51.5 -30.5t-56 -43t-52 -47t-40.5 -43.5zM106 0v805h252v-805h-252z" />
<glyph unicode="&#xef;" horiz-adv-x="464" d="M-58 1092q0 45 32 73.5t77 28.5q41 0 72.5 -28.5t31.5 -73.5t-31.5 -76t-72.5 -31q-45 0 -77 31t-32 76zM106 0v805h252v-805h-252zM311 1092q0 45 32 73.5t77 28.5q41 0 72.5 -28.5t31.5 -73.5t-32 -76t-72 -31q-45 0 -77 31t-32 76z" />
<glyph unicode="&#xf0;" horiz-adv-x="1013" d="M49 432q0 57 19.5 136t73 151t147.5 121t246 49q-16 35 -45 79t-58 74l-47 54l-195 -144l-118 115l200 147q-35 37 -70.5 70t-70.5 66q37 33 77 63.5t79 61.5q37 -31 73.5 -65t77.5 -73q47 35 94.5 69t94.5 69l116 -117l-190 -139q23 -27 61.5 -72t84.5 -103.5t93.5 -129 t85 -149.5t62.5 -163t25 -170q0 -98 -33 -182t-93.5 -144.5t-144.5 -95.5t-186 -35t-186 34t-144.5 93.5t-94.5 143.5t-34 186zM307 432q0 -43 14.5 -85t40 -75.5t62.5 -54t84 -20.5t84 20.5t63.5 54t40 75.5t13.5 85t-13.5 85t-40 75t-63.5 53.5t-84 20.5t-84 -20.5 t-62.5 -53.5t-40 -75t-14.5 -85z" />
<glyph unicode="&#xf1;" horiz-adv-x="1067" d="M82 735l237 78q14 -18 25.5 -54t20.5 -77q43 78 112.5 111.5t155.5 33.5t146.5 -26.5t98 -74.5t55 -113.5t17.5 -143.5v-469h-252v391q0 39 -3 81t-17 77t-46 57.5t-87 22.5q-53 0 -87 -21.5t-52.5 -55.5t-25.5 -78t-7 -89v-385h-250v508q0 86 -15.5 147.5t-25.5 79.5z M285 948q2 29 10 59.5t24.5 56.5t43 42t63.5 16q25 0 51.5 -8t52 -18.5t48 -18.5t39.5 -8q23 0 35 17.5t26 35.5h105q-4 -31 -15.5 -62.5t-31 -58t-47 -43t-64.5 -16.5q-20 0 -44 9.5t-47.5 20.5t-46 20t-42.5 9q-23 0 -36.5 -16t-21.5 -37h-102z" />
<glyph unicode="&#xf2;" horiz-adv-x="989" d="M39 399q0 92 30.5 170t90 135.5t143.5 90t193 32.5q106 0 191 -32.5t143.5 -90t89 -135t30.5 -170.5q0 -94 -31.5 -171.5t-90 -133t-142.5 -86.5t-190 -31q-104 0 -188.5 30t-144 85t-92 133t-32.5 174zM239 1196l138 92l208 -289l-90 -61zM297 399q0 -131 55.5 -194.5 t143.5 -63.5q90 0 144 61.5t54 196.5q0 127 -53 196t-145 69q-86 0 -142.5 -61.5t-56.5 -203.5z" />
<glyph unicode="&#xf3;" horiz-adv-x="989" d="M39 399q0 92 30.5 170t90 135.5t143.5 90t193 32.5q106 0 191 -32.5t143.5 -90t89 -135t30.5 -170.5q0 -94 -31.5 -171.5t-90 -133t-142.5 -86.5t-190 -31q-104 0 -188.5 30t-144 85t-92 133t-32.5 174zM297 399q0 -131 55.5 -194.5t143.5 -63.5q90 0 144 61.5t54 196.5 q0 127 -53 196t-145 69q-86 0 -142.5 -61.5t-56.5 -203.5zM456 999l209 289l138 -92l-256 -258z" />
<glyph unicode="&#xf4;" horiz-adv-x="989" d="M39 399q0 92 30.5 170t90 135.5t143.5 90t193 32.5q106 0 191 -32.5t143.5 -90t89 -135t30.5 -170.5q0 -94 -31.5 -171.5t-90 -133t-142.5 -86.5t-190 -31q-104 0 -188.5 30t-144 85t-92 133t-32.5 174zM231 987q20 25 54 59.5t72 69.5t75.5 66t66.5 49q25 -14 62 -44 t75.5 -66t74.5 -72.5t59 -61.5l-68 -78q-16 20 -41 45t-52.5 47.5t-56 43t-53.5 30.5q-23 -10 -51.5 -30.5t-56 -43t-52 -47t-40.5 -43.5zM297 399q0 -131 55.5 -194.5t143.5 -63.5q90 0 144 61.5t54 196.5q0 127 -53 196t-145 69q-86 0 -142.5 -61.5t-56.5 -203.5z" />
<glyph unicode="&#xf5;" horiz-adv-x="989" d="M39 399q0 92 30.5 170t90 135.5t143.5 90t193 32.5q106 0 191 -32.5t143.5 -90t89 -135t30.5 -170.5q0 -94 -31.5 -171.5t-90 -133t-142.5 -86.5t-190 -31q-104 0 -188.5 30t-144 85t-92 133t-32.5 174zM246 948q2 29 10 59.5t24.5 56.5t43 42t63.5 16q25 0 51.5 -8 t52 -18.5t48 -18.5t39.5 -8q23 0 35 17.5t26 35.5h105q-4 -31 -15.5 -62.5t-31 -58t-47 -43t-64.5 -16.5q-20 0 -44 9.5t-47.5 20.5t-46 20t-42.5 9q-23 0 -36.5 -16t-21.5 -37h-102zM297 399q0 -131 55.5 -194.5t143.5 -63.5q90 0 144 61.5t54 196.5q0 127 -53 196t-145 69 q-86 0 -142.5 -61.5t-56.5 -203.5z" />
<glyph unicode="&#xf6;" horiz-adv-x="989" d="M39 399q0 92 30.5 170t90 135.5t143.5 90t193 32.5q106 0 191 -32.5t143.5 -90t89 -135t30.5 -170.5q0 -94 -31.5 -171.5t-90 -133t-142.5 -86.5t-190 -31q-104 0 -188.5 30t-144 85t-92 133t-32.5 174zM202 1092q0 45 32 73.5t77 28.5q41 0 72.5 -28.5t31.5 -73.5 t-31.5 -76t-72.5 -31q-45 0 -77 31t-32 76zM297 399q0 -131 55.5 -194.5t143.5 -63.5q90 0 144 61.5t54 196.5q0 127 -53 196t-145 69q-86 0 -142.5 -61.5t-56.5 -203.5zM571 1092q0 45 32 73.5t77 28.5q41 0 72.5 -28.5t31.5 -73.5t-32 -76t-72 -31q-45 0 -77 31t-32 76z " />
<glyph unicode="&#xf7;" d="M117 338v213h891v-213h-891zM420 106q0 59 42 100.5t101 41.5t100.5 -41t41.5 -101q0 -59 -41 -100t-101 -41q-59 0 -101 41t-42 100zM420 782q0 59 42 100.5t101 41.5t100.5 -41t41.5 -101q0 -59 -41 -101t-101 -42q-59 0 -101 42t-42 101z" />
<glyph unicode="&#xf8;" horiz-adv-x="989" d="M39 401q0 92 30.5 170t90 134.5t143.5 89t193 32.5q147 0 249 -59l103 119l72 -62l-97 -112q61 -57 94 -137t33 -175q0 -94 -31.5 -171.5t-90 -133t-142.5 -86t-190 -30.5q-147 0 -254 59l-111 -129l-72 61l107 121q-127 115 -127 309zM297 401q0 -82 20 -131l301 348 q-51 45 -122 46q-86 0 -142.5 -61t-56.5 -202zM371 188q47 -45 125 -45q90 0 144 61.5t54 196.5q0 78 -22 136z" />
<glyph unicode="&#xf9;" horiz-adv-x="1062" d="M117 334v471h252v-393q0 -47 3 -90t18.5 -75t46 -51.5t83.5 -19.5q57 0 91 22.5t50.5 58.5t21.5 78t5 83v387h250v-514q0 -84 14.5 -146.5t28.5 -81.5l-242 -75q-12 16 -24.5 54t-20.5 79q-43 -78 -111.5 -111t-150.5 -33q-86 0 -146.5 27t-98 74t-54 112.5t-16.5 143.5z M227 1196l138 92l208 -289l-90 -61z" />
<glyph unicode="&#xfa;" horiz-adv-x="1062" d="M117 334v471h252v-393q0 -47 3 -90t18.5 -75t46 -51.5t83.5 -19.5q57 0 91 22.5t50.5 58.5t21.5 78t5 83v387h250v-514q0 -84 14.5 -146.5t28.5 -81.5l-242 -75q-12 16 -24.5 54t-20.5 79q-43 -78 -111.5 -111t-150.5 -33q-86 0 -146.5 27t-98 74t-54 112.5t-16.5 143.5z M417 999l209 289l138 -92l-256 -258z" />
<glyph unicode="&#xfb;" horiz-adv-x="1062" d="M117 334v471h252v-393q0 -47 3 -90t18.5 -75t46 -51.5t83.5 -19.5q57 0 91 22.5t50.5 58.5t21.5 78t5 83v387h250v-514q0 -84 14.5 -146.5t28.5 -81.5l-242 -75q-12 16 -24.5 54t-20.5 79q-43 -78 -111.5 -111t-150.5 -33q-86 0 -146.5 27t-98 74t-54 112.5t-16.5 143.5z M217 987q20 25 54 59.5t72 69.5t75.5 66t66.5 49q25 -14 62 -44t75.5 -66t74.5 -72.5t59 -61.5l-68 -78q-16 20 -41 45t-52.5 47.5t-56 43t-53.5 30.5q-23 -10 -51.5 -30.5t-56 -43t-52 -47t-40.5 -43.5z" />
<glyph unicode="&#xfc;" horiz-adv-x="1062" d="M117 334v471h252v-393q0 -47 3 -90t18.5 -75t46 -51.5t83.5 -19.5q57 0 91 22.5t50.5 58.5t21.5 78t5 83v387h250v-514q0 -84 14.5 -146.5t28.5 -81.5l-242 -75q-12 16 -24.5 54t-20.5 79q-43 -78 -111.5 -111t-150.5 -33q-86 0 -146.5 27t-98 74t-54 112.5t-16.5 143.5z M243 1092q0 45 32 73.5t77 28.5q41 0 72.5 -28.5t31.5 -73.5t-31.5 -76t-72.5 -31q-45 0 -77 31t-32 76zM612 1092q0 45 32 73.5t77 28.5q41 0 72.5 -28.5t31.5 -73.5t-32 -76t-72 -31q-45 0 -77 31t-32 76z" />
<glyph unicode="&#xfd;" horiz-adv-x="829" d="M-43 805h248q12 -49 31.5 -116.5t44 -142.5t54.5 -152t60 -142h4l54 121q45 119 79.5 229.5t57.5 202.5h250q-35 -145 -88.5 -304t-122.5 -315q-63 -141 -154.5 -305t-216.5 -334h-297v13q39 45 80 101t81 113.5t75.5 113t62.5 100.5q-53 100 -100 207.5t-87 214t-70 208 t-46 187.5zM352 999l209 289l138 -92l-256 -258z" />
<glyph unicode="&#xfe;" horiz-adv-x="1036" d="M117 -453v1889h252v-713q41 51 105.5 78.5t133.5 27.5q92 0 165 -31.5t122 -87t75.5 -130t26.5 -160.5q0 -88 -25.5 -169t-74.5 -143.5t-123 -99.5t-168 -37q-68 0 -132 28t-101 81h-4v-533h-252zM346 410q0 -45 11.5 -84t36 -69t62.5 -47t91 -17q51 0 89 19t60.5 51 t33.5 73t11 82q0 86 -48 138t-146 52q-53 0 -91 -16.5t-62.5 -44t-36 -63t-11.5 -74.5z" />
<glyph unicode="&#xff;" horiz-adv-x="829" d="M-43 805h248q12 -49 31.5 -116.5t44 -142.5t54.5 -152t60 -142h4l54 121q45 119 79.5 229.5t57.5 202.5h250q-35 -145 -88.5 -304t-122.5 -315q-63 -141 -154.5 -305t-216.5 -334h-297v13q39 45 80 101t81 113.5t75.5 113t62.5 100.5q-53 100 -100 207.5t-87 214t-70 208 t-46 187.5zM127 1092q0 45 32 73.5t77 28.5q41 0 72.5 -28.5t31.5 -73.5t-31.5 -76t-72.5 -31q-45 0 -77 31t-32 76zM496 1092q0 45 32 73.5t77 28.5q41 0 72.5 -28.5t31.5 -73.5t-32 -76t-72 -31q-45 0 -77 31t-32 76z" />
<glyph unicode="&#x152;" horiz-adv-x="1982" d="M47 672q0 143 47 265t134 211t209 139t274 50q117 0 219 -29.5t170 -95.5v103h790v-225h-524v-285h446v-223h-446v-359h567v-223h-833v98q-70 -63 -170.5 -92t-218.5 -29q-152 0 -275 48.5t-209 137.5t-133 218t-47 291zM322 674q0 -100 26.5 -187.5t75.5 -151t122 -99 t165 -35.5q106 0 180 39t120 105.5t67.5 151.5t21.5 177q0 88 -25.5 169t-75 140t-122 95t-166.5 36q-90 0 -162 -30.5t-122 -87t-77.5 -138.5t-27.5 -184z" />
<glyph unicode="&#x153;" horiz-adv-x="1574" d="M39 399q0 92 30.5 170t90 135.5t143.5 90t193 32.5q102 0 183 -29.5t140 -80.5q57 53 135 81.5t176 28.5q109 0 186 -33.5t126 -94t71.5 -142.5t22.5 -178v-27h-584q0 -41 15.5 -80t47.5 -69.5t79 -49t112 -18.5q59 0 118.5 14.5t107.5 43.5q23 -35 45 -69t45 -67 q-51 -35 -143.5 -57.5t-198.5 -22.5q-123 0 -211 30t-148 81q-59 -53 -141 -82t-184 -29q-104 0 -188.5 30t-144 85t-92 133t-32.5 174zM297 399q0 -131 55.5 -193.5t143.5 -62.5q90 0 144 60.5t54 195.5q0 127 -53 195t-145 68q-86 0 -142.5 -60.5t-56.5 -202.5zM956 477 h344q-4 98 -43.5 153.5t-119.5 55.5q-78 0 -126 -48t-55 -161z" />
<glyph unicode="&#x178;" horiz-adv-x="1146" d="M-8 1315h268q53 -135 113.5 -251t113.5 -202q23 -35 45.5 -73.5t40.5 -69.5q18 33 42 70.5t44 72.5q53 86 115 202t113 251h268q-59 -176 -136 -325.5t-145 -260.5q-41 -63 -81.5 -123.5t-83.5 -118.5v-487h-267v481q-43 59 -85 121t-83 127q-68 111 -145.5 260.5 t-136.5 325.5zM288 1604q0 45 32 73.5t77 28.5q41 0 72.5 -28.5t31.5 -73.5t-31.5 -76t-72.5 -31q-45 0 -77 31t-32 76zM657 1604q0 45 32 73.5t77 28.5q41 0 72.5 -28.5t31.5 -73.5t-32 -76t-72 -31q-45 0 -77 31t-32 76z" />
<glyph unicode="&#x2c6;" horiz-adv-x="550" d="M-2 987q20 25 54 59.5t72 69.5t75.5 66t66.5 49q25 -14 62 -44t75.5 -66t74.5 -72.5t59 -61.5l-68 -78q-16 20 -41 45t-52.5 47.5t-56 43t-53.5 30.5q-23 -10 -51.5 -30.5t-56 -43t-52 -47t-40.5 -43.5z" />
<glyph unicode="&#x2dc;" horiz-adv-x="497" d="M-4 948q2 29 10 59.5t24.5 56.5t43 42t63.5 16q25 0 51.5 -8t52 -18.5t48 -18.5t39.5 -8q23 0 35 17.5t26 35.5h105q-4 -31 -15.5 -62.5t-31 -58t-47 -43t-64.5 -16.5q-20 0 -44 9.5t-47.5 20.5t-46 20t-42.5 9q-23 0 -36.5 -16t-21.5 -37h-102z" />
<glyph unicode="&#x2000;" horiz-adv-x="879" />
<glyph unicode="&#x2001;" horiz-adv-x="1759" />
<glyph unicode="&#x2002;" horiz-adv-x="879" />
<glyph unicode="&#x2003;" horiz-adv-x="1759" />
<glyph unicode="&#x2004;" horiz-adv-x="586" />
<glyph unicode="&#x2005;" horiz-adv-x="439" />
<glyph unicode="&#x2006;" horiz-adv-x="293" />
<glyph unicode="&#x2007;" horiz-adv-x="293" />
<glyph unicode="&#x2008;" horiz-adv-x="219" />
<glyph unicode="&#x2009;" horiz-adv-x="351" />
<glyph unicode="&#x200a;" horiz-adv-x="97" />
<glyph unicode="&#x2010;" horiz-adv-x="468" d="M0 455v207h469v-207h-469z" />
<glyph unicode="&#x2011;" horiz-adv-x="468" d="M0 455v207h469v-207h-469z" />
<glyph unicode="&#x2012;" horiz-adv-x="468" d="M0 455v207h469v-207h-469z" />
<glyph unicode="&#x2013;" horiz-adv-x="870" d="M0 453v209h870v-209h-870z" />
<glyph unicode="&#x2014;" horiz-adv-x="1740" d="M0 453v209h1741v-209h-1741z" />
<glyph unicode="&#x2018;" horiz-adv-x="583" d="M111 866l221 451l141 -12l-164 -459z" />
<glyph unicode="&#x2019;" horiz-adv-x="583" d="M111 858l163 459l199 -21l-221 -450z" />
<glyph unicode="&#x201a;" horiz-adv-x="686" d="M133 -242l166 457l199 -18l-224 -453z" />
<glyph unicode="&#x201c;" horiz-adv-x="923" d="M111 866l221 451l141 -12l-164 -459zM451 866l221 451l141 -12l-164 -459z" />
<glyph unicode="&#x201d;" horiz-adv-x="923" d="M111 858l163 459l199 -21l-221 -450zM451 858l163 459l199 -21l-221 -450z" />
<glyph unicode="&#x201e;" horiz-adv-x="1030" d="M133 -242l166 457l199 -18l-224 -453zM477 -242l166 457l199 -18l-224 -453z" />
<glyph unicode="&#x2022;" horiz-adv-x="1093" d="M281 651q0 51 18 95.5t51 78t77 53t97 19.5q51 0 96.5 -19.5t78 -53t51 -78t18.5 -95.5q0 -49 -18.5 -93t-51 -76.5t-78 -52t-96.5 -19.5q-53 0 -97 19.5t-77 52t-51 76.5t-18 93z" />
<glyph unicode="&#x2026;" horiz-adv-x="2148" d="M203 131q0 66 44.5 110t110.5 44q63 0 107.5 -44t44.5 -110q0 -63 -44 -108.5t-108 -45.5q-66 0 -110.5 45.5t-44.5 108.5zM901 131q0 66 45 110t111 44q63 0 107 -44t44 -110q0 -63 -44 -108.5t-107 -45.5q-66 0 -111 45.5t-45 108.5zM1599 131q0 66 45 110t111 44 q63 0 107.5 -44t44.5 -110q0 -63 -44 -108.5t-108 -45.5q-66 0 -111 45.5t-45 108.5z" />
<glyph unicode="&#x202f;" horiz-adv-x="351" />
<glyph unicode="&#x2039;" horiz-adv-x="563" d="M45 545q-6 14 2 30q63 106 144 200.5t161 160.5l113 -143q-53 -41 -108.5 -102.5t-104.5 -131.5q49 -72 106.5 -135.5t110.5 -106.5l-113 -141q-84 66 -164.5 162t-146.5 207z" />
<glyph unicode="&#x203a;" horiz-adv-x="565" d="M92 317q53 43 110.5 106.5t106.5 135.5q-49 70 -104 131.5t-109 102.5l113 143q80 -66 161 -160t144 -201q8 -16 2 -30q-66 -111 -146.5 -207t-164.5 -162z" />
<glyph unicode="&#x205f;" horiz-adv-x="439" />
<glyph unicode="&#x20ac;" horiz-adv-x="1439" d="M43 469v131h186q-2 18 -2 35.5v36.5v38.5t4 37.5h-188v131h213q31 102 89 187t141 145.5t187.5 93t225.5 32.5q119 0 226.5 -34.5t193.5 -100.5l-143 -188q-45 35 -115 56.5t-150 21.5q-135 0 -227 -56.5t-139 -156.5h540v-131h-577q-6 -37 -6 -76q0 -18 1 -36t3 -36h579 v-131h-550q41 -117 136 -184.5t240 -65.5q82 0 159 25.5t130 79.5l162 -168q-86 -82 -204 -130.5t-265 -48.5q-125 0 -231.5 33t-189.5 95.5t-140.5 154.5t-83.5 209h-205z" />
<glyph unicode="&#x2122;" horiz-adv-x="1886" d="M84 1184v131h618v-131h-221v-596h-176v596h-221zM825 588v727h250q45 -57 87 -123t79 -139q14 -23 26.5 -48.5t22.5 -50.5q10 25 22.5 50.5t24.5 48.5q39 74 81 139t87 123h250v-727h-176v569q-53 -78 -98 -166q-27 -51 -49.5 -101t-40.5 -102h-201q-18 51 -41 101.5 t-49 101.5q-47 88 -99 166v-569h-176z" />
<glyph unicode="&#x25fc;" horiz-adv-x="808" d="M0 0v809h809v-809h-809z" />
<glyph unicode="&#xfb01;" horiz-adv-x="1040" d="M29 643v162h88v248q0 119 31.5 196.5t84 123.5t117 65.5t129.5 19.5q66 0 121 -14t82 -31l-49 -158q-55 25 -105 25q-74 0 -116.5 -52t-42.5 -177v-246h200v-162h-200v-643h-252v643h-88zM659 1122q0 59 44.5 103.5t103.5 44.5q61 0 104 -44t43 -104q0 -61 -43 -104 t-104 -43q-59 0 -103.5 43t-44.5 104zM682 0v805h252v-805h-252z" />
<glyph unicode="&#xfb02;" horiz-adv-x="1128" d="M29 643v162h88v248q0 119 31.5 196.5t84 123.5t117 65.5t129.5 19.5q66 0 121 -14t82 -31l-49 -158q-55 25 -105 25q-74 0 -116.5 -52t-42.5 -177v-246h200v-162h-200v-643h-252v643h-88zM719 362v1074h250v-1078q0 -90 34.5 -139t120.5 -47v-184q-119 -4 -196.5 18.5 t-123.5 69.5t-65.5 118.5t-19.5 167.5z" />
</font>
</defs>
</svg>
