<?xml version="1.0" standalone="no"?>
<!DOCTYPE svg PUBLIC "-//W3C//DTD SVG 1.1//EN" "http://www.w3.org/Graphics/SVG/1.1/DTD/svg11.dtd" >
<svg xmlns="http://www.w3.org/2000/svg">
<metadata></metadata>
<defs>
<font id="citroenlight_italic" horiz-adv-x="1052" >
<font-face units-per-em="2048" ascent="1638" descent="-410" />
<missing-glyph horiz-adv-x="348" />
<glyph horiz-adv-x="2048" />
<glyph horiz-adv-x="2048" />
<glyph unicode="&#xd;" horiz-adv-x="2048" />
<glyph unicode=" "  horiz-adv-x="348" />
<glyph unicode="&#x09;" horiz-adv-x="348" />
<glyph unicode="&#xa0;" horiz-adv-x="348" />
<glyph unicode="!" horiz-adv-x="411" d="M68 41q0 35 24.5 59.5t59.5 24.5q25 0 41 -16t16 -39q0 -39 -27.5 -63.5t-56.5 -24.5q-27 0 -42 17t-15 42zM133 250l189 1065h81l-188 -1065h-82z" />
<glyph unicode="&#x22;" horiz-adv-x="436" d="M166 897l55 418h84l-92 -418h-47zM358 897l56 418h84l-92 -418h-48z" />
<glyph unicode="#" horiz-adv-x="991" d="M68 399l14 82h217l88 283h-207l15 82h217l120 368h89l-119 -368h227l119 368h86l-121 -368h184l-14 -82h-199l-94 -283h199l-15 -82h-210l-119 -399h-82l119 399h-226l-125 -399h-86l127 399h-204zM383 481h225l92 283h-227z" />
<glyph unicode="$" horiz-adv-x="927" d="M8 98l53 62q57 -51 151.5 -79t186.5 -26l103 588q-33 16 -59.5 29.5t-43.5 23.5q-86 49 -126 107.5t-40 138.5t31 146.5t83 115.5t123 81t153 40l32 186h74l-31 -182q78 -2 150 -21.5t119 -54.5l-49 -63q-37 29 -96.5 46t-137.5 19l-96 -555q43 -23 83 -42t56 -29 q78 -47 110.5 -104.5t32.5 -125.5q0 -78 -30.5 -148.5t-85 -125.5t-129 -91t-164.5 -48l-35 -199h-76l35 193q-66 -2 -123 8t-105 26.5t-86 39t-63 44.5zM313 961q1 -121 136 -195q23 -12 69 -35l92 520q-72 -8 -127 -35.5t-93 -66.5t-57.5 -88t-19.5 -100zM475 61 q80 12 139.5 46t98.5 80t58.5 97.5t19.5 98.5t-22.5 91t-88.5 83q-18 10 -47 25.5t-62 31.5z" />
<glyph unicode="%" horiz-adv-x="1132" d="M82 4l991 1342l60 -35l-992 -1342zM170 1020q0 66 23.5 122t64.5 97t96.5 64.5t118.5 23.5q96 0 154.5 -58.5t56.5 -152.5q0 -57 -20.5 -111.5t-58.5 -97.5t-94 -69.5t-128 -26.5q-96 0 -154.5 58.5t-58.5 150.5zM242 1038q-2 -66 39 -116t114 -50q49 0 90 19.5t69 51.5 t43 73t15 86q0 68 -41 115t-110 47q-47 0 -87 -17.5t-70 -48.5t-46 -72t-16 -88zM541 199q0 66 23.5 122t64.5 97t96 64.5t119 23.5q96 0 153.5 -58.5t57.5 -152.5q0 -57 -21.5 -111.5t-59.5 -97.5t-94.5 -69.5t-127.5 -26.5q-94 0 -152.5 58.5t-58.5 150.5zM610 217 q0 -66 40 -116t114 -50q49 0 90 19.5t69.5 51.5t43 73t14.5 86q0 68 -41 114.5t-109 46.5q-47 0 -86.5 -17t-69.5 -48t-47.5 -72t-17.5 -88z" />
<glyph unicode="&#x26;" horiz-adv-x="1323" d="M45 322q0 158 95.5 288.5t267.5 223.5q-8 41 -9 90q0 82 28 154.5t80 128t123.5 88t160.5 32.5q86 0 155.5 -41t83.5 -104l-69 -31q-14 37 -62.5 68.5t-120.5 31.5t-128 -25.5t-95 -69.5t-58.5 -101.5t-19.5 -118.5q0 -31 4 -64.5t15 -66.5q27 -82 73.5 -159t99 -144.5 t105.5 -120.5t92 -90q61 72 100.5 156.5t49.5 156.5q4 25 4 47.5t-4 38.5h-144l13 74h485l-14 -74h-262q6 -31 -4 -90q-18 -113 -66.5 -201t-95.5 -153q84 -68 165 -115t156 -74l-35 -73q-80 29 -166.5 81t-175.5 123q-35 -39 -82 -75.5t-105 -66.5t-130 -47t-158 -17 q-84 0 -148.5 26.5t-110.5 72.5t-69.5 107.5t-23.5 133.5zM123 342q0 -135 82 -211t217 -76q68 0 128 15.5t110.5 42t89 58.5t65.5 65q-27 23 -78 72.5t-108.5 119.5t-111.5 155t-87 177q-158 -84 -232.5 -192.5t-74.5 -225.5z" />
<glyph unicode="'" horiz-adv-x="391" d="M190 926l187 397l74 -23l-207 -395z" />
<glyph unicode="(" horiz-adv-x="395" d="M98 -35q0 184 22.5 374.5t64.5 371t98.5 343.5t124.5 294l59 -45q-61 -135 -114.5 -290t-93.5 -321t-62.5 -339t-22.5 -347v-72.5t2 -66.5t4 -68t6 -78l-69 -38q-10 55 -14.5 129.5t-4.5 152.5z" />
<glyph unicode=")" horiz-adv-x="380" d="M-31 -272q61 135 114.5 289.5t93.5 320.5t62.5 339t22.5 347v72.5t-2 66.5t-4 68t-6 78l69 39q10 -55 14.5 -130t4.5 -153q0 -184 -22.5 -374.5t-64.5 -371t-98.5 -343t-123.5 -293.5z" />
<glyph unicode="*" horiz-adv-x="899" d="M240 1061l36 74l226 -88l39 266h84l-54 -264l254 90l13 -84l-260 -76l120 -207l-69 -45l-107 215l-184 -219l-66 53l199 209z" />
<glyph unicode="+" horiz-adv-x="1001" d="M61 406l15 79h391l72 406h82l-72 -406h391l-14 -79h-391l-72 -406h-82l72 406h-392z" />
<glyph unicode="," horiz-adv-x="464" d="M20 -270l185 399l76 -27l-209 -393z" />
<glyph unicode="-" horiz-adv-x="376" d="M41 516l12 78h324l-15 -78h-321z" />
<glyph unicode="." horiz-adv-x="391" d="M86 41q0 35 24.5 59.5t59.5 24.5q25 0 41 -16t16 -39q0 -35 -24.5 -61.5t-57.5 -26.5q-27 0 -43 17t-16 42z" />
<glyph unicode="/" horiz-adv-x="1067" d="M-61 -211l1194 1651l57 -33l-1190 -1653z" />
<glyph unicode="0" d="M94 477q0 178 51.5 334t134 272.5t189 183t219.5 66.5q92 0 161 -41t113 -108.5t66.5 -157.5t22.5 -188q0 -147 -45 -299t-125 -276t-189.5 -202.5t-240.5 -78.5q-98 0 -167 40.5t-111 109.5t-60.5 159t-18.5 186zM172 481q0 -84 15.5 -159.5t50 -135t91 -94.5t136.5 -35 q111 0 204 73t159.5 185.5t103.5 248.5t37 263q0 94 -19.5 173t-56.5 136.5t-92.5 89t-124.5 31.5q-104 0 -195.5 -66.5t-160 -176t-108.5 -248.5t-40 -285z" />
<glyph unicode="1" d="M395 1104q43 10 90 30.5t93.5 48t87.5 61.5t71 71h56l-232 -1315h-82l205 1169q-57 -47 -121.5 -79.5t-156.5 -59.5z" />
<glyph unicode="2" d="M92 0l10 55q88 84 192.5 185.5t203 198t176.5 178t114 126.5q51 63 86 139t35 160q0 43 -12 82t-42 69t-77 46t-114 16q-70 0 -147 -29.5t-148 -101.5l-47 50q88 88 183 123.5t181 35.5q68 0 123 -19.5t96 -55t63.5 -86t22.5 -111.5q0 -100 -38.5 -190.5t-110.5 -178.5 q-49 -57 -129 -141t-168 -172t-173 -169t-141 -134h617l-12 -76h-744z" />
<glyph unicode="3" d="M92 162l64 41q35 -66 105.5 -106t178.5 -40q94 0 164 35t116 87t68.5 115.5t22.5 119.5q0 55 -23.5 102t-69.5 82t-114.5 54.5t-161.5 19.5h-21t-24 -2l15 75h45q123 4 207 38t135 82t72.5 105.5t21.5 106.5q0 82 -52.5 130t-166.5 48q-31 0 -71 -6t-81 -20.5t-82 -38 t-73 -57.5l-43 41q41 45 88 75.5t95 49t94 26.5t87 8q139 0 212 -65.5t73 -171.5q0 -61 -21.5 -119.5t-61.5 -110t-98.5 -90.5t-132.5 -63v-2q100 -18 166 -96t66 -189q0 -61 -25.5 -138t-82 -145.5t-144.5 -114.5t-213 -46q-117 0 -202 44t-132 136z" />
<glyph unicode="4" d="M41 252l4 20q104 141 224 288t241 284q135 152 257 278.5t210 208.5h22l-178 -1003h180l-14 -76h-178l-45 -252h-82l43 252h-684zM182 328h557l142 802q-76 -78 -159 -167t-169 -187q-209 -238 -371 -448z" />
<glyph unicode="5" d="M125 82l49 72q45 -45 108.5 -70t145.5 -25q94 0 171 36t130 94.5t82 133t29 152.5q-2 133 -80 201.5t-250 68.5q-57 0 -104.5 -5t-81.5 -9l-2 2l102 582h606l-12 -76h-529l-73 -428q20 4 56 6t79 2q82 0 149.5 -21.5t116.5 -63.5t77 -101t28 -135q0 -92 -35 -184.5 t-101.5 -166t-162 -119.5t-213.5 -46q-98 0 -172 30.5t-113 69.5z" />
<glyph unicode="6" d="M129 334q0 104 46 220t136 239q61 82 138 164.5t159 154.5t163 129t149 88l22 -76q-47 -20 -116.5 -67t-146.5 -111.5t-153.5 -141.5t-136.5 -157h2q35 31 102.5 54.5t133.5 23.5q80 0 143.5 -28.5t107.5 -78t67.5 -113.5t23.5 -136q0 -98 -40 -191.5t-107.5 -165 t-158 -115.5t-190.5 -44q-86 0 -150.5 28.5t-107.5 76.5t-64.5 111.5t-21.5 135.5zM211 340q0 -59 18.5 -110.5t53 -89.5t84.5 -59.5t118 -21.5q80 0 153 35t128 94.5t87 137t32 163.5q0 72 -21.5 125.5t-58.5 89t-87 54t-106 18.5q-92 0 -166.5 -33.5t-127 -93t-80 -139.5 t-27.5 -170z" />
<glyph unicode="7" d="M41 23q113 184 229.5 349t237.5 314.5t249 286.5t265 266h-713l15 76h856l-9 -49q-143 -121 -283 -266.5t-274.5 -309.5t-260.5 -342t-242 -364z" />
<glyph unicode="8" d="M150 287q0 57 18 118.5t57 117t95.5 102.5t134.5 77q-68 37 -108 107t-19 184q14 78 53 141.5t93 107.5t121 67.5t136 23.5q137 0 213 -77.5t78 -194.5q0 -51 -14.5 -104.5t-44 -101.5t-74.5 -88t-103 -65q86 -35 133.5 -109.5t47.5 -168.5q0 -78 -32 -157t-93.5 -142.5 t-149.5 -103t-198 -39.5q-80 0 -143.5 22.5t-108.5 63.5t-68.5 97t-23.5 122zM231 305q-2 -115 69 -182.5t206 -67.5q94 0 164.5 33t119 84t73 114t24.5 120q0 55 -20.5 103t-56.5 82t-86 53.5t-110 19.5q-78 0 -147.5 -28t-121.5 -77t-83 -114.5t-31 -139.5zM401 942 q0 -92 56.5 -149.5t169.5 -57.5q78 0 137 29t98 73t58.5 98t19.5 105q0 104 -61.5 162t-159.5 58q-61 0 -118.5 -24t-101.5 -66t-71 -100t-27 -128z" />
<glyph unicode="9" d="M203 817q0 98 40 191.5t108.5 165t158.5 115.5t190 44q84 0 148.5 -28.5t107.5 -76.5t64.5 -112.5t21.5 -134.5q2 -104 -45 -220t-137 -239q-61 -86 -136 -168t-156 -153.5t-162.5 -128t-157.5 -90.5l-23 73q57 27 130 76t149 113.5t148.5 139.5t129.5 153l-2 2 q-35 -33 -102.5 -55.5t-132.5 -22.5q-80 0 -143.5 28.5t-107.5 77.5t-67.5 113.5t-23.5 136.5zM287 823q0 -72 21.5 -125t58 -89t87 -54t105.5 -18q92 0 167 34.5t127 94t80 139.5t28 170q0 59 -17.5 110.5t-52.5 89t-86 59t-119 21.5q-80 0 -152.5 -34.5t-128 -94 t-87 -138.5t-31.5 -165z" />
<glyph unicode=":" horiz-adv-x="393" d="M86 41q0 35 24.5 59.5t59.5 24.5q25 0 41 -16t16 -39q0 -39 -26.5 -63.5t-55.5 -24.5q-27 0 -43 17t-16 42zM209 735q0 35 24.5 60.5t59.5 25.5q25 0 41 -16t16 -41q0 -39 -26.5 -62.5t-55.5 -23.5q-27 0 -43 17.5t-16 39.5z" />
<glyph unicode=";" horiz-adv-x="444" d="M20 -270l187 399l74 -25l-207 -393zM260 735q0 35 24.5 60.5t59.5 25.5q25 0 41 -16t16 -41q0 -39 -27.5 -62.5t-56.5 -23.5q-27 0 -42 17.5t-15 39.5z" />
<glyph unicode="&#x3c;" horiz-adv-x="1032" d="M80 401l10 64q92 59 213 121.5t262 122.5q129 53 246 92t203 55l2 -76q-92 -20 -215 -62t-252 -97q-104 -45 -202.5 -94.5t-180.5 -100.5q53 -41 118.5 -80t137.5 -78q115 -59 234.5 -109t230.5 -81l-23 -70q-104 29 -216.5 74t-225.5 102q-102 53 -189.5 108.5 t-152.5 108.5z" />
<glyph unicode="=" horiz-adv-x="1062" d="M90 258l14 80h865l-15 -80h-864zM141 553l15 80h864l-14 -80h-865z" />
<glyph unicode="&#x3e;" horiz-adv-x="1007" d="M41 84q92 20 215 62t252 98q104 45 202.5 94t180.5 100q-53 41 -118.5 80t-137.5 78q-115 59 -234.5 109.5t-230.5 80.5l23 70q104 -29 216.5 -74t225.5 -102q102 -53 189 -108.5t153 -108.5l-10 -64q-92 -59 -213 -121.5t-262 -121.5q-129 -53 -246 -92t-203 -56z" />
<glyph unicode="?" horiz-adv-x="737" d="M139 41q0 35 24.5 59.5t59.5 24.5q25 0 41.5 -16t16.5 -39q0 -39 -28 -63.5t-56 -24.5q-27 0 -42.5 17t-15.5 42zM188 309q0 61 15.5 119.5t50.5 118t90 122t133 134.5q178 160 178 309q0 59 -33.5 102t-119.5 43q-125 0 -228 -71l-32 61q53 41 125.5 62.5t142.5 21.5 q98 0 161.5 -51t63.5 -150q0 -59 -19.5 -113t-50 -103.5t-68.5 -90.5t-71 -73q-61 -55 -109 -106.5t-82 -104t-51.5 -110.5t-17.5 -130v-29h-76q0 10 -1 19.5t-1 19.5z" />
<glyph unicode="@" horiz-adv-x="1398" d="M70 662q0 147 52 270t141 212t208 138t252 49t243.5 -42t189.5 -117.5t123 -178t44 -225.5q0 -104 -37 -196.5t-95 -161t-131 -108.5t-142 -40q-47 0 -83 24.5t-47 71.5q-53 -47 -113.5 -71.5t-113.5 -24.5q-113 0 -175 74t-62 182q0 90 30.5 185.5t86 174t134 130 t175.5 51.5q61 0 117.5 -32t88.5 -91l29 88h76l-178 -565q-6 -23 -11.5 -44.5t-2.5 -39t19.5 -28.5t53.5 -11q53 0 108.5 42t99.5 106.5t71.5 141t27.5 148.5q0 109 -41 198t-111.5 153.5t-165.5 99.5t-206 35q-127 0 -232.5 -50.5t-183.5 -134.5t-121 -194.5t-43 -231.5 q0 -111 40 -217t116 -190t184.5 -135.5t243.5 -51.5q72 0 141.5 15.5t132 45t113.5 73.5t88 104h99q-74 -139 -223.5 -225t-350.5 -86q-139 0 -260 51t-210 142t-139 215t-50 272zM408 528q0 -92 42 -144t136 -48q29 2 63.5 14t69.5 37t64.5 62.5t47.5 93.5l82 256 q8 25 -1 56.5t-31.5 60t-59.5 49t-84 20.5q-74 0 -134 -46t-103 -115.5t-67.5 -148.5t-24.5 -147z" />
<glyph unicode="A" horiz-adv-x="1040" d="M-78 0q94 197 204 402.5t214 385.5q88 150 174 287t172 256h12q18 -45 39 -111.5t42.5 -141t41 -150.5t33.5 -140q41 -178 77 -374.5t66 -413.5h-75q-16 113 -34 220.5t-38 211.5h-623q-53 -98 -111.5 -213t-111.5 -219h-82zM268 508h568q-10 66 -23.5 129t-28.5 123 q-29 117 -56.5 221t-55.5 199q-61 -90 -127.5 -196.5t-134.5 -223.5q-35 -59 -70 -123t-72 -129z" />
<glyph unicode="B" horiz-adv-x="958" d="M82 0l233 1315h277q72 0 134 -11.5t110 -62.5q37 -37 52 -86t15 -102q-2 -133 -65.5 -226.5t-155.5 -130.5l-2 -2q109 -16 172 -86.5t63 -179.5q0 -41 -9 -86t-30.5 -91t-54.5 -89t-78 -78q-66 -47 -143.5 -65.5t-169.5 -18.5h-348zM178 70h213q59 0 101.5 3t74 9 t57 16.5t52.5 26.5q76 47 118 124q40 74 40 157v8q0 59 -24 110t-71 78q-53 29 -124.5 35t-137.5 6h-198zM291 713h160q66 0 121 3t116 44q43 27 70.5 65.5t42 77.5t18.5 75t4 60q0 49 -15 93.5t-52 70.5q-43 29 -99.5 35t-111.5 6h-160z" />
<glyph unicode="C" horiz-adv-x="1134" d="M102 508q0 164 55.5 313.5t156 263t239.5 181t309 67.5q111 0 216.5 -35.5t174.5 -113.5l-65 -51q-59 59 -145.5 93t-219.5 34t-250.5 -60.5t-204.5 -163t-137.5 -235.5t-50.5 -281q0 -90 25.5 -174t79 -148.5t135.5 -102.5t196 -38q127 0 229.5 34t184.5 97l43 -53 q-96 -72 -208.5 -112.5t-260.5 -40.5q-127 0 -220 40.5t-155.5 111.5t-94.5 167t-32 207z" />
<glyph unicode="D" horiz-adv-x="1261" d="M82 0l231 1315h371q150 0 257.5 -33t176 -94.5t100 -150t31.5 -199.5q0 -141 -40 -290t-136 -270.5t-257 -199.5t-404 -78h-330zM178 74h246q158 0 274.5 35.5t199.5 95t136 137.5t84 162t43.5 167t12.5 154q0 219 -131.5 317.5t-370.5 98.5h-289z" />
<glyph unicode="E" horiz-adv-x="915" d="M82 0l233 1315h682l-14 -76h-600l-84 -481h449l-15 -78h-448l-107 -602h645l-14 -78h-727z" />
<glyph unicode="F" horiz-adv-x="851" d="M82 0l231 1315h682l-14 -76h-598l-90 -504h448l-12 -76h-448l-117 -659h-82z" />
<glyph unicode="G" horiz-adv-x="1269" d="M104 494q0 152 47.5 301t142.5 269t239.5 194.5t338.5 74.5q139 0 252 -42t172 -107l-67 -51q-61 57 -156.5 90.5t-238.5 33.5q-145 0 -265 -62t-206.5 -166.5t-133.5 -240.5q-45 -131 -45 -274v-12q2 -209 125 -328t381 -119q90 0 187.5 23.5t162.5 75.5l58 315h-267 l13 76h348l-74 -426q-74 -51 -190.5 -94t-270.5 -43q-125 0 -227 34.5t-175 100t-112 161t-39 216.5z" />
<glyph unicode="H" horiz-adv-x="1280" d="M82 0l231 1315h82l-98 -561h823l99 561h81l-231 -1315h-82l119 678h-823l-119 -678h-82z" />
<glyph unicode="I" horiz-adv-x="374" d="M82 0l231 1315h82l-231 -1315h-82z" />
<glyph unicode="J" horiz-adv-x="393" d="M-98 -262l12 72q31 0 60.5 6t54 26.5t43 58.5t28.5 99q2 18 14.5 84t29 161t37 211.5t40.5 235.5q49 279 111 623h82q-59 -340 -109 -619q-20 -119 -40.5 -234.5t-37 -211.5t-29 -161.5t-14.5 -84.5q-12 -63 -29.5 -112.5t-49 -83t-81 -52t-122.5 -18.5z" />
<glyph unicode="K" horiz-adv-x="1058" d="M82 0l231 1315h82l-106 -608l788 608h125l-739 -570q70 -59 149.5 -148.5t159.5 -195.5q78 -104 141.5 -206.5t108.5 -194.5h-86q-53 100 -119.5 202.5t-138.5 196t-143.5 171t-133.5 128.5l-133 -102l-104 -596h-82z" />
<glyph unicode="L" horiz-adv-x="784" d="M82 0l233 1315h82l-219 -1239h602l-12 -76h-686z" />
<glyph unicode="M" horiz-adv-x="1492" d="M82 0l231 1315h109q49 -86 95 -178.5t89 -190.5q47 -113 88 -228.5t70 -221.5q66 106 147.5 223t167.5 227q78 98 157 190.5t159 178.5h118l-231 -1315h-82l217 1225q-59 -63 -129.5 -145.5t-142.5 -174.5q-102 -131 -191.5 -261t-160.5 -251h-82q-29 121 -73 251 t-99 261q-41 92 -78 169t-80 155l-217 -1229h-82z" />
<glyph unicode="N" horiz-adv-x="1331" d="M82 0l233 1331h4q68 -66 127.5 -127t115.5 -128.5t111.5 -143.5t114.5 -168q102 -156 173 -304.5t112 -262.5l197 1118h82l-232 -1315h-63q-51 180 -132 359.5t-194 353.5q-111 170 -203 280.5t-157 177.5l-207 -1171h-82z" />
<glyph unicode="O" horiz-adv-x="1341" d="M102 510q0 172 55.5 321.5t154 261t232.5 176t290 64.5q111 0 201.5 -36.5t156 -104.5t102.5 -165t37 -220q0 -147 -50 -294.5t-144.5 -265.5t-229.5 -191.5t-307 -73.5q-117 0 -209 38.5t-155.5 109.5t-98.5 168t-35 212zM184 524q0 -98 27 -183t81 -147.5t134 -99.5 t186 -37q147 0 266 64.5t202 169t127 236.5t44 268q0 104 -29.5 189t-86 146.5t-136 94t-180.5 32.5q-121 0 -234.5 -50t-202.5 -144t-143.5 -230.5t-54.5 -308.5z" />
<glyph unicode="P" horiz-adv-x="921" d="M82 0l233 1315h338q92 0 152.5 -22.5t97.5 -60.5t51.5 -88t14.5 -108q0 -98 -33 -183t-91.5 -147.5t-140 -98.5t-180.5 -36h-258l-100 -571h-84zM279 645h249q86 0 154 30t115 81t71.5 120.5t24.5 149.5q0 45 -12.5 84t-42 67.5t-78.5 46t-123 17.5h-254z" />
<glyph unicode="Q" horiz-adv-x="1337" d="M102 510q0 172 55.5 321.5t154 261t231.5 176t291 64.5q111 0 201.5 -36.5t156 -104.5t102.5 -165t37 -220q0 -178 -70.5 -350t-203.5 -295q35 -33 74.5 -60.5t80.5 -46.5l-30 -67q-51 23 -96.5 56.5t-86.5 70.5q-82 -61 -182 -97t-217 -36t-210 38.5t-156.5 109.5 t-97.5 168t-34 212zM184 524q0 -98 27 -183t80 -147.5t134 -99.5t187 -37q98 0 182.5 29t153.5 80q-16 16 -41.5 48t-54.5 72t-56.5 85t-47.5 90l67 31q23 -47 72 -126t119 -153q119 109 182 264.5t63 319.5q0 104 -30.5 189t-86 145.5t-135 93t-180.5 32.5 q-121 0 -234.5 -50t-202.5 -144t-143.5 -230.5t-54.5 -308.5z" />
<glyph unicode="R" horiz-adv-x="946" d="M82 0l231 1315h295q350 0 350 -250q0 -82 -27.5 -156.5t-77.5 -134t-124 -101.5t-168 -57q66 -57 119 -128.5t92 -137.5q25 -41 45.5 -87t38.5 -92t33.5 -90t25.5 -81h-81q-31 88 -70 180t-88 175t-110.5 149.5t-137.5 107.5h-158l-106 -612h-82zM283 682h221 q82 0 150.5 27.5t118.5 77t78 117t28 147.5q0 92 -64.5 142t-212.5 50h-219z" />
<glyph unicode="S" horiz-adv-x="917" d="M8 102l53 60q53 -47 140.5 -76t183.5 -29q100 0 175 32t124 80t72.5 105.5t23.5 110.5q0 47 -22.5 91t-87.5 85q-23 12 -60 31.5t-77.5 39t-76.5 38t-55 28.5q-86 49 -127 108.5t-41 139.5q0 86 36 158t97.5 122t143.5 78.5t172 28.5q80 0 153.5 -19.5t120.5 -53.5 l-49 -64q-39 29 -98 46.5t-139 17.5q-86 0 -152.5 -26t-112 -67t-69 -94t-23.5 -110t34 -107.5t102 -87.5q18 -10 56 -28.5t79 -40t78.5 -40t54.5 -28.5q78 -47 110.5 -104.5t32.5 -123.5q0 -88 -37 -164.5t-103.5 -134t-155.5 -90t-193 -32.5q-111 0 -206 32.5t-157 87.5z " />
<glyph unicode="T" horiz-adv-x="817" d="M121 1237l14 78h879l-13 -78h-399l-217 -1237h-82l217 1237h-399z" />
<glyph unicode="U" horiz-adv-x="1150" d="M130 274q-1 18 -1 37q0 27 2 55q4 50 16 113l146 836h84l-144 -815q-20 -105 -20 -174q1 -10 1 -20q4 -73 34 -128q25 -47 94.5 -85t171.5 -38q98 0 178 31t135 92q20 20 38 47t33 65t29.5 88t26.5 122l144 815h82l-148 -836q-12 -66 -24.5 -117t-29.5 -92t-41 -74.5 t-56 -66.5q-154 -147 -379 -147q-41 0 -88 8t-91 25.5t-83 45t-64 68.5q-20 35 -31.5 69.5t-14.5 75.5z" />
<glyph unicode="V" horiz-adv-x="1011" d="M166 1315h76q23 -209 52.5 -399.5t63.5 -364.5q47 -233 99 -416q59 94 119.5 197.5t125.5 218.5q94 174 190.5 364.5t194.5 399.5h82q-100 -217 -199.5 -413.5t-197.5 -377.5q-86 -154 -167 -290t-159 -252h-22q-37 117 -72 252t-65 288q-35 180 -66 378t-55 415z" />
<glyph unicode="W" horiz-adv-x="1548" d="M166 1315h78q8 -205 22.5 -393.5t36.5 -362.5q14 -119 29.5 -228.5t36.5 -207.5q39 57 77.5 119.5t73.5 124.5q92 156 168 307t129 284h109q6 -133 28.5 -284.5t59.5 -306.5q16 -61 31.5 -127t31.5 -115q53 98 108.5 206.5t110.5 227.5q82 174 163 362.5t163 393.5h84 q-166 -420 -334 -778q-66 -141 -140.5 -283.5t-139.5 -253.5h-56q-12 35 -25.5 77t-25.5 86t-24.5 89t-20.5 84q-31 133 -52.5 264t-31.5 252q-53 -121 -119.5 -252t-144.5 -264q-23 -39 -50.5 -83t-55 -89t-56.5 -87t-53 -77h-60q-25 111 -49 253t-41 284 q-23 178 -37 372.5t-24 405.5z" />
<glyph unicode="X" horiz-adv-x="1058" d="M-53 0q57 74 125.5 163t146.5 185t162 197.5t170 202.5q-80 160 -162 303t-166 264h90q74 -111 148 -240t143 -264q119 135 238 264t231 240h107q-129 -125 -266.5 -272.5t-272.5 -305.5q104 -205 189 -396t147 -341h-82q-59 141 -137 315t-170 361 q-156 -184 -297 -359.5t-250 -316.5h-94z" />
<glyph unicode="Y" horiz-adv-x="888" d="M137 1315h76q14 -74 37.5 -160t60.5 -190q29 -80 69 -170t93 -193q78 86 147.5 171t129.5 169q72 98 131 192.5t106 180.5h86q-53 -102 -118.5 -204.5t-137.5 -203.5q-78 -104 -157.5 -202.5t-157.5 -186.5l-92 -518h-82l94 537q-111 207 -184 411q-35 96 -60.5 187.5 t-40.5 179.5z" />
<glyph unicode="Z" horiz-adv-x="1071" d="M-8 0l10 59q127 178 266.5 352.5t290.5 346.5q111 125 223.5 244.5t229.5 234.5h-713l14 78h836l-10 -58q-156 -150 -306.5 -309.5t-297.5 -329.5q-115 -135 -222.5 -271t-206.5 -271h859l-15 -76h-958z" />
<glyph unicode="[" horiz-adv-x="522" d="M20 -338l295 1669h289l-16 -88h-205l-264 -1493h207l-17 -88h-289z" />
<glyph unicode="\" horiz-adv-x="897" d="M123 1407l57 27l656 -1405l-60 -29z" />
<glyph unicode="]" horiz-adv-x="483" d="M-59 -338l16 88h205l264 1493h-207l17 88h288l-295 -1669h-288z" />
<glyph unicode="^" horiz-adv-x="950" d="M61 524q35 68 77 139.5t84 137t81 124t68 99.5q59 86 115.5 161t101.5 130h96q35 -76 63.5 -154t55.5 -153q45 -133 76.5 -256t50.5 -228h-76q-16 98 -47 215t-72 242q-23 68 -49.5 136.5t-54.5 135.5q-41 -51 -91.5 -119.5t-107.5 -150.5q-27 -39 -62.5 -92 t-73.5 -112.5t-78 -125t-73 -129.5h-84z" />
<glyph unicode="_" horiz-adv-x="735" d="M-143 -274l14 75h844l-13 -75h-845z" />
<glyph unicode="`" horiz-adv-x="229" d="M0 1188l100 31l129 -263l-67 -28z" />
<glyph unicode="a" horiz-adv-x="825" d="M51 168q0 117 82 205t256 123q68 14 139.5 23t124.5 16q2 12 2 23v24q0 78 -42 127t-154 49q-59 0 -121 -13.5t-127 -42.5l-14 58q78 35 145.5 49t126.5 14q167 0 227 -88q37 -55 38 -152q0 -57 -13 -128l-37 -213q-4 -20 -7 -48t-4 -56.5t2 -55.5t13 -43l-70 -41 q-23 35 -23 111q0 14 1 30h-2q-57 -78 -144.5 -117.5t-175.5 -39.5q-113 2 -168 54t-55 132zM127 184q0 -70 45 -106.5t123 -36.5q51 0 100 17.5t90 46t74 68.5t51 87q10 57 19 105q6 41 12 73.5t6 36.5q-49 -6 -118.5 -14t-133.5 -23q-78 -16 -129 -43.5t-81.5 -61.5 t-44 -73t-13.5 -76z" />
<glyph unicode="b" horiz-adv-x="872" d="M92 150q-1 3 -1 8q0 9 3 22l221 1256h78l-139 -785h4q29 45 68 77t79.5 52.5t79.5 29.5t70 9q76 0 129 -21.5t86 -58.5t47 -87t14 -107q0 -117 -33.5 -219.5t-94 -179t-145.5 -120.5t-187 -44q-47 0 -91 13t-80 33.5t-61.5 47t-38.5 53.5q-6 11 -8 21zM181 200v-8 q0 -21 5 -38q10 -27 33 -47.5t51.5 -34t60 -19.5t60.5 -6q94 0 164 43t115 111.5t67.5 153.5t22.5 171q0 45 -10.5 86t-35 73t-66.5 50.5t-105 18.5q-88 0 -154.5 -46t-109.5 -118q-49 -78 -66 -174q-6 -37 -12 -68q-4 -27 -8.5 -52.5t-6.5 -35.5q-4 -34 -5 -60z" />
<glyph unicode="c" horiz-adv-x="679" d="M63 313q0 106 35 198.5t98.5 162t150.5 109.5t190 40q111 0 194 -37l-35 -63q-31 14 -74.5 23.5t-97.5 9.5q-84 0 -154.5 -34t-121.5 -92.5t-79 -137t-28 -166.5q0 -129 60.5 -203t183.5 -74q61 0 121.5 21.5t95.5 48.5l25 -49q-51 -39 -118 -63.5t-136 -24.5 q-82 0 -140.5 25.5t-96.5 70.5t-55.5 105.5t-17.5 129.5z" />
<glyph unicode="d" horiz-adv-x="919" d="M63 272q0 125 38 227.5t101.5 173t148.5 109.5t177 39q57 0 121 -21.5t94 -49.5l123 686h76l-211 -1194q-4 -25 -7 -57.5t-3 -63.5t3 -57.5t11 -40.5l-73 -31q-14 20 -20 63q-4 27 -5 58q0 19 2 41h-2q-18 -31 -52 -62t-76 -55.5t-89 -39.5t-92 -15q-72 0 -122 23.5 t-82 63.5t-46.5 92t-14.5 111zM139 291q0 -115 51.5 -179.5t149.5 -64.5q51 0 104.5 21.5t101.5 63.5t84 105.5t50 147.5l25 133q10 57 10 93t-15 65q-16 33 -72.5 55.5t-121.5 22.5q-78 0 -144.5 -34t-115.5 -95.5t-78 -146.5t-29 -187z" />
<glyph unicode="e" horiz-adv-x="815" d="M63 317q0 100 33 191.5t91.5 161t138.5 111.5t174 42q129 0 203.5 -74.5t74.5 -203.5q0 -41 -6 -78l-631 -90q0 -12 -1 -23.5t-1 -21.5q0 -129 71 -206t187 -77q66 0 136.5 20.5t113.5 61.5l27 -43q-55 -53 -130 -79.5t-159 -26.5q-74 0 -133 24.5t-101 68.5t-65 106.5 t-23 135.5zM154 446l544 78v27.5t-2 26.5q-8 92 -61 138t-143 46q-117 0 -209.5 -80t-128.5 -236z" />
<glyph unicode="f" horiz-adv-x="473" d="M102 0l131 741h-86l11 64h86l59 334q55 315 297 315q41 0 73 -8t48 -19l-35 -57q-37 18 -92 19q-90 0 -141.5 -61.5t-73.5 -192.5l-57 -330h196l-12 -64h-197l-129 -741h-78z" />
<glyph unicode="g" horiz-adv-x="894" d="M-53 -379l41 64q59 -41 128.5 -64.5t157.5 -23.5q131 0 214 79.5t118 272.5q2 12 7 39.5t11.5 60.5t11.5 64.5t9 52.5h-4q-18 -35 -53 -65.5t-78 -54t-89 -38t-89 -14.5q-72 0 -122 23.5t-82 62.5t-46 91t-14 112q0 123 36.5 223t100 171t148.5 108.5t177 37.5 q76 0 133.5 -18t108.5 -53q31 -20 37 -35q3 -6 3 -17q0 -15 -5 -38q-6 -29 -16.5 -90.5t-23.5 -138.5t-27.5 -158.5t-27 -151.5t-20.5 -118t-10 -58q-35 -197 -134 -307.5t-284 -110.5q-106 0 -179 24.5t-138 67.5zM141 301q0 -115 51.5 -179.5t151.5 -64.5q51 0 104.5 21.5 t101.5 63.5t84 105.5t50 147.5l23 127q10 57 10 93t-15 65q-16 33 -71.5 55.5t-120.5 22.5q-78 0 -145.5 -34t-116.5 -95.5t-78 -145.5t-29 -182z" />
<glyph unicode="h" horiz-adv-x="907" d="M86 0l252 1436h78l-133 -756h4q47 66 118.5 104.5t155.5 38.5q145 1 211 -79q46 -55 45 -150q0 -41 -8 -90l-88 -504h-78l88 504q7 43 7 78q0 74 -32 116q-48 62 -157 62q-86 0 -165 -54.5t-116 -152.5q-6 -16 -13 -42t-11 -54l-82 -457h-76z" />
<glyph unicode="i" horiz-adv-x="376" d="M82 0l143 805h76l-141 -805h-78zM240 1071q6 29 30.5 50.5t53.5 21.5q31 1 47 -21q13 -17 13 -40q0 -6 -1 -11q-6 -29 -30.5 -49.5t-53.5 -20.5q-31 1 -47 21q-13 16 -13 38q0 5 1 11z" />
<glyph unicode="j" horiz-adv-x="372" d="M-139 -459l10 60q29 0 55.5 6t48 26.5t39 56.5t27.5 97q2 16 12 69.5t23.5 128t29 164t31.5 181.5q37 215 84 475h78q-47 -258 -84 -469q-16 -90 -31.5 -179t-29 -163t-22.5 -126t-11 -69q-10 -61 -27.5 -109t-46.5 -81t-74 -50.5t-112 -17.5zM238 1071q6 29 29.5 50.5 t54.5 21.5t47 -21q12 -16 12 -36q0 -7 -2 -15q-4 -29 -28.5 -49.5t-53.5 -20.5q-31 0 -47 21q-13 15 -13 36q0 6 1 13z" />
<glyph unicode="k" horiz-adv-x="671" d="M82 0l258 1436h72l-172 -981l362 350h103l-373 -354q47 -43 94 -97.5t90 -114t81 -121t69 -118.5h-84q-59 109 -137 216.5t-164 184.5l-62 -59l-61 -342h-76z" />
<glyph unicode="l" horiz-adv-x="411" d="M115 137q0 47 10 107q2 16 12 76.5t25.5 147.5t35 191.5t38.5 212.5q45 252 98 564h78q-55 -311 -101 -566q-18 -109 -36.5 -214t-34 -193t-26.5 -147.5t-13 -75.5q-7 -38 -7 -66q0 -14 2 -26q5 -35 20 -54.5t41 -27t56 -7.5l-12 -67q-70 0 -109.5 16.5t-58 49 t-18.5 79.5z" />
<glyph unicode="m" horiz-adv-x="1396" d="M82 0l100 561q10 59 10 104q0 15 -1 29q-5 54 -15 72l70 39q10 -20 17 -57q5 -29 5 -62v-20h2q47 68 111.5 112.5t161.5 44.5q215 0 235 -178h4q47 84 123 131t162 47q147 -1 203 -81q36 -53 36 -140q0 -46 -10 -100l-88 -502h-78l89 502q9 50 9 90q0 68 -24 106 q-38 62 -149 62q-84 0 -152.5 -49t-111.5 -154q-6 -16 -13.5 -40.5t-11.5 -53.5l-82 -463h-78l88 502q10 53 10 94q0 64 -23 102q-38 62 -149 62q-84 0 -153.5 -49t-112.5 -154q-6 -16 -13 -40.5t-11 -53.5l-82 -463h-78z" />
<glyph unicode="n" horiz-adv-x="903" d="M82 0l98 563q11 62 11 108q0 13 -1 25q-4 52 -14 70l66 39q12 -20 18 -57q4 -28 5 -61q0 -11 -1 -23h4q47 74 123 116.5t166 42.5q145 1 211 -79q46 -55 45 -150q0 -41 -8 -90l-88 -504h-78l88 504q8 45 8 81q-1 71 -33 113q-50 62 -157 62q-86 0 -165 -53.5t-116 -151.5 q-6 -16 -13 -42t-11 -54l-82 -459h-76z" />
<glyph unicode="o" horiz-adv-x="860" d="M63 309q0 98 33 191.5t93.5 165t143.5 114.5t181 43q74 0 130 -24.5t95 -68.5t59.5 -104t20.5 -134q0 -86 -30.5 -176.5t-89 -165t-142.5 -121.5t-190 -47q-150 0 -227 90t-77 237zM139 315q0 -53 13.5 -101t42 -85t73.5 -58.5t109 -21.5q78 0 144.5 34t115.5 92 t76.5 139t27.5 173q0 123 -62.5 197t-176.5 74q-74 0 -139.5 -33t-115.5 -92.5t-79 -140t-29 -177.5z" />
<glyph unicode="p" horiz-adv-x="890" d="M0 -453l180 1016q10 59 10 102q0 16 -1 29q-5 51 -13 72l72 39q10 -16 17 -52q5 -28 5 -73v-27h6q29 45 68 78t80 52.5t79.5 28.5t69.5 9q76 0 129.5 -20.5t86 -57t47 -87t14.5 -109.5q0 -117 -34 -219.5t-94 -179t-145 -120.5t-188 -44q-137 0 -221 71l-90 -508h-78z M198 192v-6q0 -22 7 -39q35 -98 205 -98q94 0 163.5 43t114.5 111.5t67.5 154.5t22.5 170q0 45 -10 86t-34.5 73t-66.5 50.5t-106 18.5q-90 0 -157.5 -48.5t-110.5 -121.5q-16 -27 -31.5 -63t-23.5 -77q-8 -37 -16.5 -84t-18.5 -110q-4 -35 -5 -60z" />
<glyph unicode="q" horiz-adv-x="890" d="M63 281q0 123 38 223t101.5 170.5t147.5 109.5t176 39q78 0 135.5 -19t106.5 -54q31 -20 37 -35q3 -7 3 -21t-3 -35q-2 -12 -12.5 -66t-23.5 -134t-30.5 -179.5t-36.5 -199.5q-41 -238 -94 -533h-78l109 615h-2q-18 -33 -53 -63.5t-78 -55.5t-89 -39t-89 -14 q-72 0 -122 23.5t-82 63.5t-46.5 92t-14.5 112zM139 299q0 -115 51.5 -179.5t149.5 -64.5q51 0 104.5 21.5t101.5 63.5t84 105.5t50 147.5l22 125q11 62 11 97t-15 63q-16 33 -71.5 55.5t-120.5 22.5q-78 0 -145.5 -34t-116.5 -95.5t-77 -145.5t-28 -182z" />
<glyph unicode="r" horiz-adv-x="491" d="M82 0l98 561q12 61 12 105q0 14 -1 26q-5 51 -13 72l68 39q10 -18 16 -50t6 -73h2q29 53 79 97t132 44q43 0 80 -18l-43 -68q-8 4 -24.5 9.5t-32.5 5.5q-41 0 -75 -14.5t-61.5 -50.5t-49 -94.5t-37.5 -146.5l-78 -444h-78z" />
<glyph unicode="s" horiz-adv-x="641" d="M12 57l45 49q29 -25 83.5 -43t121.5 -18q59 0 104.5 16.5t75 43t45 60.5t15.5 68q0 23 -14.5 49.5t-55.5 51.5q-10 6 -33.5 17t-49 24.5t-49.5 25t-32 15.5q-66 37 -88 73.5t-22 77.5q2 113 81.5 184.5t215.5 71.5q111 0 176 -47l-39 -53q-16 10 -52 23.5t-96 13.5 q-104 0 -159.5 -49t-55.5 -121q0 -33 17.5 -57.5t64.5 -49.5q33 -18 81 -39.5t85 -44.5q53 -29 73.5 -64.5t22.5 -76.5q0 -59 -24.5 -110.5t-68.5 -88t-103.5 -57t-128.5 -20.5q-72 0 -133.5 20.5t-102.5 54.5z" />
<glyph unicode="t" horiz-adv-x="479" d="M121 111q0 39 8 86l96 546h-86l11 62h86l32 184h78l-33 -184h197l-12 -62h-197l-94 -544q-8 -40 -8 -69.5t8 -48.5q16 -38 82 -38q23 0 44 4t44 14l6 -53q-20 -10 -49 -18t-62 -8q-57 0 -89.5 16t-47 45t-14.5 68z" />
<glyph unicode="u" horiz-adv-x="923" d="M123 303l88 502h76l-88 -502q-7 -42 -7 -78q0 -75 33 -117q49 -62 156 -63q88 0 166 55.5t115 153.5q14 33 26 96l80 455h78l-98 -559q-12 -64 -12 -110v-24q4 -52 14 -71l-66 -41q-10 22 -18 60q-4 22 -4 49q0 17 2 36h-5q-49 -74 -124.5 -118.5t-163.5 -44.5 q-145 0 -211 80q-46 56 -46 151q0 41 9 90z" />
<glyph unicode="v" horiz-adv-x="708" d="M86 805h76q2 -70 12 -161t26.5 -187.5t38 -190.5t46.5 -170h2q51 76 106.5 170t107.5 190.5t95 187.5t72 161h77q-29 -80 -79 -184.5t-110 -215t-124.5 -217t-124.5 -188.5h-69q-31 84 -57.5 192.5t-47 219t-34 215t-13.5 178.5z" />
<glyph unicode="w" horiz-adv-x="1015" d="M86 805h76q4 -174 25.5 -352.5t60.5 -350.5h2q63 115 117.5 231t101.5 228q2 8 10 8h94q6 0 7 -6q6 -115 18 -229.5t35 -231.5h2q102 172 188 350.5t152 352.5h78q-76 -201 -175.5 -405.5t-220.5 -399.5h-82q-25 123 -40 241.5t-23 233.5h-2q-49 -115 -107.5 -233.5 t-128.5 -241.5h-79q-47 195 -76 399.5t-33 405.5z" />
<glyph unicode="x" horiz-adv-x="761" d="M-43 0q133 158 236.5 270.5t160.5 169.5q-12 23 -40.5 71t-62.5 102.5t-69 106.5t-59 83v2h86q12 -14 37.5 -52t54.5 -84t57.5 -93.5t44.5 -77.5q33 35 74 75.5t82 81.5t79 80t69 70h96v-2q-25 -23 -73 -70t-101.5 -102.5t-105.5 -108.5t-83 -86q20 -35 48 -85t59 -108.5 t61.5 -121t57.5 -121.5h-84q-37 84 -88.5 183.5t-106.5 197.5q-78 -84 -167 -181.5t-175 -199.5h-88z" />
<glyph unicode="y" horiz-adv-x="704" d="M-162 -449q55 51 109.5 110.5t105.5 121t97.5 121t85.5 114.5q-29 84 -55.5 190.5t-47 214t-33 208t-12.5 174.5h76q2 -70 13 -160t27.5 -187.5t38 -190.5t46.5 -169h2q80 119 142.5 231.5t109.5 206t77.5 163t43.5 106.5h77q-41 -119 -114.5 -270.5t-165.5 -305.5 q-41 -68 -96.5 -151.5t-122 -172.5t-143 -180.5t-162.5 -175.5h-99v2z" />
<glyph unicode="z" horiz-adv-x="794" d="M0 0l10 53q74 90 158 184.5t170 184.5t170 171t156 144h-457l12 68h580l-8 -49q-84 -72 -172.5 -155t-176.5 -172t-171 -181t-158 -180h589l-10 -68h-692z" />
<glyph unicode="{" horiz-adv-x="524" d="M78 465l14 76q66 41 106 83t52 117l53 306q23 113 60.5 177t115.5 89q45 16 121 20l-12 -76h-31.5t-32.5 -4q-41 -10 -76.5 -38.5t-48.5 -96.5l-57 -327q-12 -66 -28.5 -111t-37 -77t-48 -54.5t-60.5 -42.5l-2 -8q27 -20 46 -43t28.5 -55.5t9.5 -80t-12 -114.5l-58 -326 q-10 -66 13.5 -94.5t60.5 -38.5q31 -6 65 -6l-14 -74q-90 4 -133 27q-55 29 -67.5 91t6.5 167l55 307q12 76 -12.5 120t-75.5 87z" />
<glyph unicode="|" horiz-adv-x="505" d="M281 0v1436h77v-1436h-77z" />
<glyph unicode="}" horiz-adv-x="485" d="M-55 -334l12 76h31.5t31.5 4q41 10 77 39t48 96l58 328q12 66 28.5 111t37 76.5t47 54t61.5 43.5l2 8q-27 20 -46.5 42.5t-28.5 55.5t-9 80t12 115l58 325q10 66 -13.5 94.5t-60.5 38.5q-31 6 -66 7l15 73q90 -4 133 -26q55 -29 67.5 -91.5t-6.5 -166.5l-55 -308 q-12 -76 12.5 -119.5t75.5 -86.5l-14 -76q-66 -41 -106 -83t-52 -118l-53 -305q-23 -113 -61 -177.5t-115 -88.5q-45 -16 -121 -21z" />
<glyph unicode="~" horiz-adv-x="987" d="M49 367q33 35 66.5 69.5t74.5 61.5q66 45 138 45q45 0 92 -19.5t92 -44.5q47 -23 88 -46t74 -23q25 0 46 8t42 22q29 23 54.5 51.5t47.5 63.5l76 -39q-37 -47 -79 -89t-89 -69q-51 -29 -108 -28q-47 0 -89.5 20.5t-85.5 44.5q-41 27 -84 47.5t-88 20.5t-94 -33 q-27 -18 -52.5 -45t-49.5 -55z" />
<glyph unicode="&#xa1;" horiz-adv-x="452" d="M29 -510l188 1065h82l-189 -1065h-81zM223 735q0 39 27.5 63.5t56.5 24.5q27 0 42 -17t15 -42q0 -35 -24.5 -59.5t-59.5 -24.5q-25 0 -41 16t-16 39z" />
<glyph unicode="&#xa2;" horiz-adv-x="679" d="M63 313q0 100 32 188.5t88.5 156t134 109.5t171.5 52l27 148h62l-27 -146q49 -2 95 -11t85 -26l-35 -63q-59 29 -157 33l-123 -703q53 4 104 24.5t82 43.5l25 -49q-45 -35 -102.5 -58.5t-121.5 -27.5l-26 -154h-60l27 154q-147 10 -214 103t-67 226zM139 326 q0 -123 54.5 -195t162.5 -80l123 699q-76 -8 -138 -44t-107.5 -93.5t-70 -131t-24.5 -155.5z" />
<glyph unicode="&#xa3;" horiz-adv-x="978" d="M49 49q49 47 116.5 81t129.5 32q49 39 92 92t53 117l4 51h-208l14 78h188l-94 239q-29 66 -42 111t-13 86q0 86 35.5 158.5t93 125t129 81t145.5 28.5q61 0 110.5 -20.5t84.5 -57.5t55.5 -86t20.5 -106q0 -41 -9 -76h-80q6 37 5 64q0 92 -55.5 150t-153.5 58 q-61 0 -115.5 -27.5t-95.5 -70.5t-64.5 -96t-23.5 -105q0 -45 12 -86t29 -82q31 -72 60.5 -141t45.5 -147h232l-15 -78h-215l-8 -57q-10 -59 -47 -119t-88 -103q29 -10 61.5 -24.5t66.5 -27.5t65.5 -22.5t60.5 -9.5q59 0 113.5 44t91.5 98l61 -39q-25 -33 -54.5 -66 t-65.5 -58.5t-73.5 -40.5t-76.5 -15q-45 0 -90 16t-91 37q-47 20 -88 35.5t-75 15.5q-55 0 -104.5 -31.5t-96.5 -72.5z" />
<glyph unicode="&#xa4;" horiz-adv-x="1298" d="M37 494l14 77h217q6 109 41 213h-221l14 78h236q43 102 110.5 188.5t155.5 149t194.5 98t227.5 35.5q111 0 216.5 -35.5t174.5 -113.5l-65 -51q-59 59 -145.5 93t-219.5 34q-92 0 -177 -30t-157.5 -82t-132 -126t-100.5 -160h809l-15 -78h-827q-35 -104 -41 -213h832 l-15 -77h-819q2 -86 29.5 -166t81 -139.5t134.5 -95.5t191 -36q127 0 229.5 34t184.5 97l43 -53q-96 -72 -209 -112.5t-260 -40.5q-125 0 -218 38.5t-155.5 107.5t-94.5 163t-34 203h-229z" />
<glyph unicode="&#xa5;" horiz-adv-x="1079" d="M20 330l15 76h432l22 131q-6 12 -12 25l-12 26h-397l12 76h346q-35 72 -64.5 143.5t-56.5 142.5q-35 94 -59.5 185.5t-40.5 179.5h76q16 -74 38.5 -160t59.5 -188q31 -82 69.5 -172t92.5 -193q78 88 147.5 173t128.5 169q72 98 131.5 191.5t108.5 179.5h84 q-53 -102 -118.5 -204t-137.5 -202q-47 -66 -95.5 -126t-95.5 -119h336l-14 -76h-385q-16 -18 -30.5 -35.5t-31.5 -34.5l-20 -112h436l-14 -76h-434l-60 -330h-82l60 330h-435z" />
<glyph unicode="&#xa6;" horiz-adv-x="481" d="M129 0l100 569h80l-100 -569h-80zM281 866l100 570h82l-101 -570h-81z" />
<glyph unicode="&#xa7;" horiz-adv-x="1056" d="M55 526q0 55 64 95q68 39 153 38q86 0 154 -38q33 -18 58.5 -39t60.5 -21q37 0 64.5 20.5t58.5 39.5q61 39 151 38q47 0 84 -10t70 -28q63 -39 63 -95q0 -55 -61 -94q-68 -39 -156 -39q-94 0 -151 39q-29 18 -58.5 39t-64.5 21q-33 0 -63.5 -23t-59.5 -39 q-55 -37 -150 -37q-86 0 -153 39q-63 39 -64 94z" />
<glyph unicode="&#xa8;" horiz-adv-x="368" d="M0 1063q0 37 24.5 58.5t53.5 21.5q25 0 39 -15.5t14 -37.5q2 -35 -21.5 -59.5t-56.5 -24.5q-25 0 -39 16t-14 41zM236 1063q0 37 25.5 58.5t53.5 21.5q25 0 39.5 -15.5t14.5 -37.5q0 -35 -23.5 -59.5t-54.5 -24.5q-27 0 -41 16t-14 41z" />
<glyph unicode="&#xa9;" horiz-adv-x="1376" d="M70 541q0 160 66.5 303t176 251.5t249.5 172t292 63.5q119 0 219.5 -42t172 -115.5t111.5 -175t40 -218.5q0 -145 -60.5 -287.5t-165 -256t-248 -183t-309.5 -69.5q-121 0 -221 43t-173 117.5t-111.5 176t-38.5 220.5zM152 543q0 -113 39.5 -202t105 -150.5t153 -94.5 t181.5 -33q139 0 263 59.5t218 158t148.5 226.5t54.5 263q0 102 -35 190.5t-98.5 153t-150.5 101t-191 36.5q-129 0 -254 -55t-222.5 -151.5t-155.5 -225.5t-56 -276zM395 580q0 98 32 185t89 150.5t137 100.5t174 37q129 0 198 -74t65 -182h-80q-2 88 -59.5 131t-135.5 43 q-66 0 -127 -26.5t-108.5 -74t-75 -115t-27.5 -149.5q0 -63 18.5 -110t50.5 -78t74 -45.5t89 -14.5q39 0 78.5 11.5t74.5 34t61.5 56.5t41.5 79h77q-16 -61 -51 -109.5t-82 -82.5t-102 -52.5t-113 -18.5q-68 0 -122 24t-94 63.5t-61.5 95t-21.5 121.5z" />
<glyph unicode="&#xaa;" horiz-adv-x="606" d="M74 657l10 58h496l-11 -58h-495zM164 944q0 25 8 52.5t31.5 55t64.5 51t107 38.5q41 8 84 13t76 7q6 70 -23 95.5t-96 25.5q-37 0 -74 -9t-84 -28l-8 51q47 20 90 28.5t84 8.5q109 0 151.5 -52t22.5 -167l-23 -127q-4 -25 -7 -62.5t7 -58.5l-59 -22q-18 23 -14 84h-2 q-35 -45 -87.5 -71t-107.5 -26q-66 2 -103.5 31t-37.5 82zM231 950q0 -35 25 -51t63 -16q72 0 122.5 41t68.5 88l18 100q-31 -4 -71.5 -8t-79.5 -14q-51 -12 -80 -31t-43 -38.5t-18.5 -37.5t-4.5 -33z" />
<glyph unicode="&#xab;" horiz-adv-x="638" d="M106 549q0 2 9 14q61 74 138 146.5t155 124.5l26 -66q-31 -20 -65.5 -48t-68.5 -58.5t-64.5 -61.5t-51.5 -57q33 -66 78 -127.5t98 -104.5l-43 -53q-53 43 -109 114.5t-97 157.5q-4 10 -5 19zM307 549q4 8 8 14q61 74 142.5 146.5t158.5 124.5l25 -66q-31 -20 -66.5 -48 t-69.5 -58.5t-65.5 -61.5t-52.5 -57q31 -66 77 -127.5t97 -104.5l-43 -53q-53 43 -108.5 114.5t-96.5 157.5q-6 14 -6 19z" />
<glyph unicode="&#xac;" horiz-adv-x="1005" d="M86 535l14 81h865l-82 -462h-82l67 381h-782z" />
<glyph unicode="&#xad;" horiz-adv-x="376" d="M41 516l12 78h324l-15 -78h-321z" />
<glyph unicode="&#xae;" horiz-adv-x="1376" d="M70 541q0 160 66.5 303t176 251.5t251 172t290.5 63.5q119 0 219.5 -42t172 -115.5t111.5 -175t40 -218.5q0 -139 -57.5 -280.5t-160 -256t-247 -187t-316.5 -72.5q-121 0 -222 43t-172.5 117.5t-111.5 176t-40 220.5zM152 543q2 -111 40.5 -200t104 -150.5t152 -95.5 t182.5 -34q139 0 264 59.5t218 158t147.5 226.5t54.5 263q0 102 -35 190.5t-97.5 153t-150.5 101t-192 36.5q-129 0 -253 -55t-221.5 -151.5t-156.5 -225.5t-57 -276zM412 293l129 739h260q127 0 184 -40t55 -111q0 -82 -55 -150.5t-166 -99.5q18 -16 35.5 -38t33 -42.5 t26 -38.5t16.5 -27q25 -47 47 -98t35 -94h-94q-12 39 -32 84t-46 90q-27 43 -55.5 82t-61.5 65h-162l-55 -321h-94zM573 680h154q70 0 114 21.5t67.5 51t30.5 61.5t7 54q-2 47 -39 73t-129 26h-153z" />
<glyph unicode="&#xaf;" horiz-adv-x="456" d="M0 1018l14 80h443l-15 -80h-442z" />
<glyph unicode="&#xb0;" horiz-adv-x="651" d="M174 1024q0 70 27.5 127t71.5 97t97.5 61.5t106.5 21.5q92 0 151.5 -60.5t59.5 -152.5q0 -63 -25.5 -119.5t-67.5 -98.5t-97.5 -66.5t-112.5 -24.5q-94 0 -152.5 61.5t-58.5 153.5zM246 1032q0 -66 42 -109.5t109 -43.5q43 0 83 17t71 48t48 73t17 89q0 66 -41.5 111 t-111.5 45q-45 0 -85 -18.5t-69.5 -49.5t-46 -73t-16.5 -89z" />
<glyph unicode="&#xb1;" horiz-adv-x="1009" d="M10 0l15 82h864l-15 -82h-864zM100 512l15 82h391l51 297h84l-53 -297h391l-14 -82h-392l-51 -299h-84l54 299h-392z" />
<glyph unicode="&#xb2;" horiz-adv-x="604" d="M78 539l6 32q55 49 120.5 108.5t127 117t112 105.5t72.5 75q78 86 78 178q0 45 -36 78t-122 33q-53 0 -97 -19.5t-79 -54.5l-39 41q55 53 114.5 72.5t115.5 19.5q70 0 111.5 -17.5t64 -42t31 -52t8.5 -48.5q0 -57 -21 -108.5t-74 -110.5q-31 -35 -79 -81t-100 -95 t-103 -95t-86 -77h370l-10 -59h-485z" />
<glyph unicode="&#xb3;" horiz-adv-x="575" d="M70 635l57 35q16 -31 55 -55.5t103 -24.5q115 0 172 54t57 138q0 63 -53 105.5t-174 40.5h-29l10 59q6 -2 13.5 -2h13.5q96 2 162 33q57 25 82.5 63.5t25.5 85.5q0 41 -31.5 70t-105.5 29q-53 0 -100 -19.5t-76 -48.5l-39 33q35 39 94.5 66.5t130.5 27.5q98 0 148.5 -40 t50.5 -107q0 -76 -47 -132.5t-146 -84.5v-3q72 -16 108 -66.5t36 -103.5q0 -47 -19.5 -94t-58.5 -84t-97.5 -59.5t-136.5 -22.5q-72 0 -125 27t-81 80z" />
<glyph unicode="&#xb4;" horiz-adv-x="299" d="M0 975l211 242l88 -54l-242 -233z" />
<glyph unicode="&#xb6;" horiz-adv-x="1075" d="M266 907q0 57 17.5 128t63.5 133.5t127 104.5t206 42h334l-15 -78h-67l-273 -1546h-81l274 1546h-158l-272 -1546h-80l168 954q-59 0 -105.5 21.5t-77 57.5t-46 83t-15.5 100z" />
<glyph unicode="&#xb7;" horiz-adv-x="540" d="M201 432q0 35 24.5 59.5t59.5 24.5q25 0 41 -16t16 -39q0 -35 -24.5 -61.5t-57.5 -26.5q-27 0 -43 17.5t-16 41.5z" />
<glyph unicode="&#xb8;" horiz-adv-x="206" d="M0 -186q57 35 92 80t55 92h60q-51 -143 -180 -228z" />
<glyph unicode="&#xb9;" horiz-adv-x="409" d="M188 1190q51 12 108.5 47t94.5 78h55l-135 -776h-73l118 675q-35 -29 -72.5 -48t-90.5 -36z" />
<glyph unicode="&#xba;" horiz-adv-x="552" d="M53 657l10 58h531l-10 -58h-531zM125 1040q0 57 24.5 109.5t67.5 93.5t99.5 65.5t119.5 24.5q100 0 164 -58t64 -151q0 -59 -25 -111t-68 -93t-100 -65t-123 -24q-98 0 -160.5 59.5t-62.5 149.5zM190 1051q0 -66 45.5 -114t118.5 -48q43 0 87 15.5t78 45t56.5 70.5 t22.5 92q0 72 -49 117t-127 45q-45 0 -87 -18.5t-74 -50t-51.5 -71.5t-19.5 -83z" />
<glyph unicode="&#xbb;" horiz-adv-x="638" d="M106 324q31 20 67 47.5t69.5 58.5t64.5 61.5t53 57.5q-31 66 -76.5 127t-97.5 104l43 54q53 -43 108.5 -115t96.5 -158q6 -16 6 -18q-4 -8 -8 -15q-61 -74 -142 -146.5t-159 -123.5zM313 324q31 20 66 47.5t68.5 58.5t63.5 61.5t52 57.5q-33 66 -78 127t-98 104l43 54 q53 -43 109.5 -115t97.5 -158q4 -10 4 -18q0 -2 -8 -15q-61 -74 -138 -146.5t-155 -123.5z" />
<glyph unicode="&#xbc;" horiz-adv-x="1376" d="M180 2l994 1341l57 -34l-991 -1342zM252 1190q51 12 108.5 47t94.5 78h55l-135 -776h-74l119 675q-35 -29 -73 -48t-91 -36zM643 139l4 23q61 82 133 167t144 165q84 92 158.5 167.5t129.5 124.5h52l-107 -587h109l-13 -60h-106l-27 -139h-69l24 139h-432zM750 199h335 l86 469q-47 -47 -97 -99.5t-101 -109.5q-63 -70 -119.5 -134.5t-103.5 -125.5z" />
<glyph unicode="&#xbd;" horiz-adv-x="1517" d="M180 2l991 1341l58 -34l-991 -1342zM250 1190q51 12 108.5 47t94.5 78h57l-137 -776h-74l119 675q-33 -29 -72 -48t-92 -36zM836 0l6 33q55 49 120.5 108.5t127 116.5t111.5 105.5t73 74.5q78 86 78 178q0 45 -36 78t-122 33q-53 0 -97 -19.5t-79 -54.5l-39 41 q55 53 114.5 72.5t114.5 19.5q70 0 112 -17t64.5 -42t30.5 -52.5t8 -47.5q0 -57 -20.5 -108.5t-73.5 -110.5q-31 -35 -79 -81t-100 -95.5t-103.5 -95.5t-85.5 -77h370l-10 -59h-485z" />
<glyph unicode="&#xbe;" horiz-adv-x="1570" d="M145 635l58 35q16 -31 55 -55.5t102 -24.5q115 0 172.5 54t57.5 138q0 63 -53.5 105.5t-174.5 40.5h-28l10 59q6 -2 13.5 -2h13.5q96 2 161 33q57 25 83 63.5t26 85.5q0 41 -31.5 70t-105.5 29q-53 0 -100.5 -19.5t-75.5 -48.5l-39 33q35 39 94 66.5t131 27.5 q98 0 148.5 -40t50.5 -107q0 -76 -47.5 -132.5t-145.5 -84.5v-3q72 -16 108 -66.5t36 -103.5q0 -47 -19.5 -94t-58.5 -84t-97.5 -59.5t-136.5 -22.5q-72 0 -125 27t-82 80zM367 2l991 1341l59 -34l-993 -1342zM827 139l4 23q61 82 134 167t145 165q82 92 157.5 167.5 t129.5 124.5h51l-107 -587h109l-10 -60h-109l-24 -139h-72l25 139h-433zM934 199h338l84 469q-47 -47 -96.5 -99.5t-102.5 -109.5q-61 -70 -117.5 -134.5t-105.5 -125.5z" />
<glyph unicode="&#xbf;" horiz-adv-x="737" d="M21 -325q0 59 19.5 113t50 103.5t68.5 90.5t71 73q61 55 109 106.5t82 104t51.5 110.5t17.5 130v29h76q0 -10 1 -19.5t1 -19.5q0 -61 -15.5 -119.5t-50.5 -118t-90 -122t-133 -134.5q-178 -160 -178 -309q0 -59 33.5 -102t119.5 -43q125 0 228 71l32 -61 q-53 -41 -125.5 -62.5t-142.5 -21.5q-98 0 -161.5 51t-63.5 150zM475 735q0 39 28 63.5t56 24.5q27 0 42.5 -17t15.5 -42q0 -35 -24.5 -59.5t-59.5 -24.5q-25 0 -41.5 16t-16.5 39z" />
<glyph unicode="&#xc0;" horiz-adv-x="1040" d="M-78 0q94 197 204 402.5t214 385.5q88 150 174 287t172 256h12q18 -45 39 -111.5t42.5 -141t41 -150.5t33.5 -140q41 -178 77 -374.5t66 -413.5h-75q-16 113 -34 220.5t-38 211.5h-623q-53 -98 -111.5 -213t-111.5 -219h-82zM268 508h568q-10 66 -23.5 129t-28.5 123 q-29 117 -56.5 221t-55.5 199q-61 -90 -127.5 -196.5t-134.5 -223.5q-35 -59 -70 -123t-72 -129zM418 1632l71 78l281 -178l-43 -59z" />
<glyph unicode="&#xc1;" horiz-adv-x="1040" d="M-78 0q94 197 204 402.5t214 385.5q88 150 174 287t172 256h12q18 -45 39 -111.5t42.5 -141t41 -150.5t33.5 -140q41 -178 77 -374.5t66 -413.5h-75q-16 113 -34 220.5t-38 211.5h-623q-53 -98 -111.5 -213t-111.5 -219h-82zM268 508h568q-10 66 -23.5 129t-28.5 123 q-29 117 -56.5 221t-55.5 199q-61 -90 -127.5 -196.5t-134.5 -223.5q-35 -59 -70 -123t-72 -129zM616 1532l285 180l70 -78l-316 -159z" />
<glyph unicode="&#xc2;" horiz-adv-x="1040" d="M-78 0q94 197 204 402.5t214 385.5q88 150 174 287t172 256h12q18 -45 39 -111.5t42.5 -141t41 -150.5t33.5 -140q41 -178 77 -374.5t66 -413.5h-75q-16 113 -34 220.5t-38 211.5h-623q-53 -98 -111.5 -213t-111.5 -219h-82zM268 508h568q-10 66 -23.5 129t-28.5 123 q-29 117 -56.5 221t-55.5 199q-61 -90 -127.5 -196.5t-134.5 -223.5q-35 -59 -70 -123t-72 -129zM479 1516q47 47 118 99t142 93q18 -12 45 -34.5t54.5 -50.5t53.5 -56.5t40 -50.5l-58 -41q-23 35 -69.5 74.5t-85.5 58.5q-45 -20 -100.5 -62.5t-94.5 -81.5z" />
<glyph unicode="&#xc3;" horiz-adv-x="1040" d="M-78 0q94 197 204 402.5t214 385.5q88 150 174 287t172 256h12q18 -45 39 -111.5t42.5 -141t41 -150.5t33.5 -140q41 -178 77 -374.5t66 -413.5h-75q-16 113 -34 220.5t-38 211.5h-623q-53 -98 -111.5 -213t-111.5 -219h-82zM268 508h568q-10 66 -23.5 129t-28.5 123 q-29 117 -56.5 221t-55.5 199q-61 -90 -127.5 -196.5t-134.5 -223.5q-35 -59 -70 -123t-72 -129zM467 1548q25 41 65.5 76t90.5 35q25 0 53.5 -10.5t56 -21.5t54 -21.5t47.5 -10.5q66 0 98 70l47 -43q-18 -47 -61.5 -79t-90.5 -32q-23 0 -51 10.5t-58 24t-57.5 23.5 t-48.5 10q-27 0 -53.5 -19.5t-42.5 -58.5z" />
<glyph unicode="&#xc4;" horiz-adv-x="1040" d="M-78 0q94 197 204 402.5t214 385.5q88 150 174 287t172 256h12q18 -45 39 -111.5t42.5 -141t41 -150.5t33.5 -140q41 -178 77 -374.5t66 -413.5h-75q-16 113 -34 220.5t-38 211.5h-623q-53 -98 -111.5 -213t-111.5 -219h-82zM268 508h568q-10 66 -23.5 129t-28.5 123 q-29 117 -56.5 221t-55.5 199q-61 -90 -127.5 -196.5t-134.5 -223.5q-35 -59 -70 -123t-72 -129zM528 1563q0 39 23.5 60.5t52.5 21.5q27 0 41 -16.5t14 -39.5q0 -35 -22.5 -59.5t-56.5 -24.5q-23 0 -37.5 16.5t-14.5 41.5zM764 1563q0 39 24.5 60.5t55.5 21.5 q23 0 38 -16.5t15 -39.5q0 -35 -23.5 -59.5t-54.5 -24.5q-27 0 -41 16.5t-14 41.5z" />
<glyph unicode="&#xc5;" horiz-adv-x="1042" d="M-78 0q94 197 204 402.5t214 385.5q88 150 174 287t172 256h12q18 -45 39 -111.5t42.5 -141t41 -150.5t33.5 -140q41 -178 77 -374.5t66 -413.5h-75q-16 113 -34 220.5t-38 211.5h-623q-53 -98 -111.5 -213t-111.5 -219h-82zM268 508h568q-10 66 -23.5 129t-28.5 123 q-29 117 -56.5 221t-55.5 199q-61 -90 -127.5 -196.5t-134.5 -223.5q-35 -59 -70 -123t-72 -129zM582 1501q0 45 18 80t46 57.5t59.5 35t58.5 12.5q55 0 91 -37t36 -93q0 -37 -16.5 -69.5t-42 -57t-57.5 -40t-64 -15.5q-55 0 -92 37t-37 90zM653 1513q0 -31 19.5 -49 t50.5 -18q37 0 67.5 27.5t30.5 72.5q0 35 -22.5 52.5t-46.5 17.5q-31 0 -65 -26.5t-34 -76.5z" />
<glyph unicode="&#xc6;" horiz-adv-x="1732" d="M-66 0q125 180 272.5 367.5t303.5 365.5q53 61 121.5 136t144.5 154t154 154.5t149 137.5h736l-15 -76h-600l-84 -483h449l-15 -76h-448l-107 -604h645l-14 -76h-727l84 469h-600q-96 -119 -186.5 -236.5t-171.5 -232.5h-91zM446 545h549l123 698h-6 q-121 -104 -259 -246.5t-286 -310.5q-31 -35 -61.5 -70.5t-59.5 -70.5z" />
<glyph unicode="&#xc7;" horiz-adv-x="1134" d="M102 510q0 164 55.5 313.5t156 262t239.5 180t309 67.5q111 0 216.5 -35.5t174.5 -113.5l-65 -51q-59 59 -145.5 93t-219.5 34t-250.5 -60.5t-204.5 -162t-137.5 -234.5t-50.5 -281q0 -90 25.5 -174t79 -148.5t135.5 -102.5t196 -38q127 0 229.5 34t184.5 97l41 -53 q-82 -63 -178 -102t-219 -47q-61 -166 -211 -262l-31 63q66 41 107 91t63 104q-125 0 -218 41t-155.5 111.5t-94.5 166.5t-32 207z" />
<glyph unicode="&#xc8;" horiz-adv-x="915" d="M82 0l233 1315h682l-14 -76h-600l-84 -481h449l-15 -78h-448l-107 -602h645l-14 -78h-727zM438 1632l72 78l281 -178l-43 -59z" />
<glyph unicode="&#xc9;" horiz-adv-x="915" d="M82 0l233 1315h682l-14 -76h-600l-84 -481h449l-15 -78h-448l-107 -602h645l-14 -78h-727zM575 1532l285 180l70 -78l-316 -159z" />
<glyph unicode="&#xca;" horiz-adv-x="915" d="M82 0l233 1315h682l-14 -76h-600l-84 -481h449l-15 -78h-448l-107 -602h645l-14 -78h-727zM479 1516q47 47 118 99t142 93q18 -12 45 -34.5t54.5 -50.5t53.5 -56.5t40 -50.5l-58 -41q-23 35 -69.5 74.5t-85.5 58.5q-45 -20 -100.5 -62.5t-94.5 -81.5z" />
<glyph unicode="&#xcb;" horiz-adv-x="915" d="M82 0l233 1315h682l-14 -76h-600l-84 -481h449l-15 -78h-448l-107 -602h645l-14 -78h-727zM528 1563q0 39 23.5 60.5t52.5 21.5q27 0 41 -16.5t14 -39.5q0 -35 -22.5 -59.5t-56.5 -24.5q-23 0 -37.5 16.5t-14.5 41.5zM764 1563q0 39 24.5 60.5t55.5 21.5q23 0 38 -16.5 t15 -39.5q0 -35 -23.5 -59.5t-54.5 -24.5q-27 0 -41 16.5t-14 41.5z" />
<glyph unicode="&#xcc;" horiz-adv-x="374" d="M82 0l231 1315h82l-231 -1315h-82zM152 1632l71 78l281 -178l-43 -59z" />
<glyph unicode="&#xcd;" horiz-adv-x="374" d="M82 0l231 1315h82l-231 -1315h-82zM309 1532l285 180l70 -78l-316 -159z" />
<glyph unicode="&#xce;" horiz-adv-x="374" d="M82 0l231 1315h82l-231 -1315h-82zM158 1516q47 47 117.5 99t142.5 93q18 -12 44.5 -34.5t54.5 -50.5t53.5 -56.5t39.5 -50.5l-57 -41q-23 35 -70 74.5t-86 58.5q-45 -20 -100 -62.5t-94 -81.5z" />
<glyph unicode="&#xcf;" horiz-adv-x="374" d="M82 0l231 1315h82l-231 -1315h-82zM217 1563q0 39 23.5 60.5t52.5 21.5q27 0 41 -16.5t14 -39.5q0 -35 -22.5 -59.5t-57.5 -24.5q-23 0 -37 16.5t-14 41.5zM453 1563q0 39 24.5 60.5t54.5 21.5q23 0 38.5 -16.5t15.5 -39.5q0 -35 -23.5 -59.5t-54.5 -24.5q-27 0 -41 16.5 t-14 41.5z" />
<glyph unicode="&#xd0;" horiz-adv-x="1298" d="M104 678l15 76h133l98 561h369q152 0 259 -33t176 -94.5t100.5 -150t31.5 -199.5q0 -141 -40 -290t-136 -270.5t-258 -199.5t-406 -78h-327l119 678h-134zM213 74h248q158 0 274.5 35.5t199.5 95t136 137.5t84 162t42 166.5t11 154.5q0 219 -131 317.5t-370 98.5h-287 l-86 -487h297l-15 -76h-297z" />
<glyph unicode="&#xd1;" horiz-adv-x="1331" d="M82 0l233 1331h4q68 -66 127.5 -127t115.5 -128.5t111.5 -143.5t114.5 -168q102 -156 173 -304.5t112 -262.5l197 1118h82l-232 -1315h-63q-51 180 -132 359.5t-194 353.5q-111 170 -203 280.5t-157 177.5l-207 -1171h-82zM651 1548q25 41 66 76t90 35q25 0 53.5 -10.5 t56 -21.5t54 -21.5t47.5 -10.5q66 0 98 70l47 -43q-18 -47 -61 -79t-90 -32q-23 0 -51.5 10.5t-58.5 24t-57.5 23.5t-47.5 10q-27 0 -53.5 -19.5t-43.5 -58.5z" />
<glyph unicode="&#xd2;" horiz-adv-x="1341" d="M102 510q0 172 55.5 321.5t154 261t232.5 176t290 64.5q111 0 201.5 -36.5t156 -104.5t102.5 -165t37 -220q0 -147 -50 -294.5t-144.5 -265.5t-229.5 -191.5t-307 -73.5q-117 0 -209 38.5t-155.5 109.5t-98.5 168t-35 212zM184 524q0 -98 27 -183t81 -147.5t134 -99.5 t186 -37q147 0 266 64.5t202 169t127 236.5t44 268q0 104 -29.5 189t-86 146.5t-136 94t-180.5 32.5q-121 0 -234.5 -50t-202.5 -144t-143.5 -230.5t-54.5 -308.5zM643 1632l72 78l280 -178l-43 -59z" />
<glyph unicode="&#xd3;" horiz-adv-x="1341" d="M102 510q0 172 55.5 321.5t154 261t232.5 176t290 64.5q111 0 201.5 -36.5t156 -104.5t102.5 -165t37 -220q0 -147 -50 -294.5t-144.5 -265.5t-229.5 -191.5t-307 -73.5q-117 0 -209 38.5t-155.5 109.5t-98.5 168t-35 212zM184 524q0 -98 27 -183t81 -147.5t134 -99.5 t186 -37q147 0 266 64.5t202 169t127 236.5t44 268q0 104 -29.5 189t-86 146.5t-136 94t-180.5 32.5q-121 0 -234.5 -50t-202.5 -144t-143.5 -230.5t-54.5 -308.5zM801 1532l284 180l70 -78l-315 -159z" />
<glyph unicode="&#xd4;" horiz-adv-x="1341" d="M102 510q0 172 55.5 321.5t154 261t232.5 176t290 64.5q111 0 201.5 -36.5t156 -104.5t102.5 -165t37 -220q0 -147 -50 -294.5t-144.5 -265.5t-229.5 -191.5t-307 -73.5q-117 0 -209 38.5t-155.5 109.5t-98.5 168t-35 212zM184 524q0 -98 27 -183t81 -147.5t134 -99.5 t186 -37q147 0 266 64.5t202 169t127 236.5t44 268q0 104 -29.5 189t-86 146.5t-136 94t-180.5 32.5q-121 0 -234.5 -50t-202.5 -144t-143.5 -230.5t-54.5 -308.5zM664 1516q47 47 117.5 99t142.5 93q18 -12 44.5 -34.5t54.5 -50.5t53.5 -56.5t39.5 -50.5l-57 -41 q-23 35 -70 74.5t-86 58.5q-45 -20 -100 -62.5t-94 -81.5z" />
<glyph unicode="&#xd5;" horiz-adv-x="1341" d="M102 510q0 172 55.5 321.5t154 261t232.5 176t290 64.5q111 0 201.5 -36.5t156 -104.5t102.5 -165t37 -220q0 -147 -50 -294.5t-144.5 -265.5t-229.5 -191.5t-307 -73.5q-117 0 -209 38.5t-155.5 109.5t-98.5 168t-35 212zM184 524q0 -98 27 -183t81 -147.5t134 -99.5 t186 -37q147 0 266 64.5t202 169t127 236.5t44 268q0 104 -29.5 189t-86 146.5t-136 94t-180.5 32.5q-121 0 -234.5 -50t-202.5 -144t-143.5 -230.5t-54.5 -308.5zM674 1548q25 41 65.5 76t89.5 35q25 0 53.5 -10.5t56.5 -21.5t54.5 -21.5t46.5 -10.5q66 0 99 70l47 -43 q-18 -47 -61.5 -79t-90.5 -32q-23 0 -51.5 10.5t-58 24t-57 23.5t-48.5 10q-27 0 -53.5 -19.5t-42.5 -58.5z" />
<glyph unicode="&#xd6;" horiz-adv-x="1341" d="M102 510q0 172 55.5 321.5t154 261t232.5 176t290 64.5q111 0 201.5 -36.5t156 -104.5t102.5 -165t37 -220q0 -147 -50 -294.5t-144.5 -265.5t-229.5 -191.5t-307 -73.5q-117 0 -209 38.5t-155.5 109.5t-98.5 168t-35 212zM184 524q0 -98 27 -183t81 -147.5t134 -99.5 t186 -37q147 0 266 64.5t202 169t127 236.5t44 268q0 104 -29.5 189t-86 146.5t-136 94t-180.5 32.5q-121 0 -234.5 -50t-202.5 -144t-143.5 -230.5t-54.5 -308.5zM733 1563q0 39 23.5 60.5t52.5 21.5q27 0 41 -16.5t14 -39.5q0 -35 -22.5 -59.5t-57.5 -24.5q-23 0 -37 16.5 t-14 41.5zM1010 1563q0 39 24.5 60.5t55.5 21.5q23 0 38 -16.5t15 -39.5q0 -35 -23.5 -59.5t-54.5 -24.5q-27 0 -41 16.5t-14 41.5z" />
<glyph unicode="&#xd7;" horiz-adv-x="989" d="M0 55q113 115 228.5 223.5t230.5 208.5q-72 86 -152 174.5t-166 174.5l54 53q86 -86 166.5 -175t152.5 -177q131 111 247 201.5t208 150.5l41 -64q-90 -57 -205 -147t-244 -201q98 -121 176 -230.5t133 -197.5l-63 -41q-53 86 -130 193.5t-171 226.5 q-113 -98 -227.5 -205.5t-225.5 -218.5z" />
<glyph unicode="&#xd8;" horiz-adv-x="1359" d="M20 25l170 163q-88 135 -88 324q0 172 55.5 321.5t153 260t231.5 175t289 64.5q117 0 211.5 -40t159.5 -113l148 143l51 -51l-154 -152q82 -127 82 -313q0 -147 -50 -294.5t-144.5 -264.5t-229.5 -190.5t-307 -73.5q-117 0 -208 38.5t-154 108.5l-164 -160zM182 526 q0 -78 17.5 -148.5t52.5 -127.5l891 870q-55 66 -137 101.5t-187 35.5q-121 0 -235.5 -49t-203.5 -143t-143.5 -230.5t-54.5 -308.5zM295 188q53 -59 132 -94t185 -35q147 0 265 64.5t201 169t127 237t44 267.5q0 154 -63 264z" />
<glyph unicode="&#xd9;" horiz-adv-x="1150" d="M130 274q-3 41 1 91.5t16 113.5l146 836h84l-144 -815q-23 -121 -19.5 -194t34.5 -128q25 -47 94.5 -85t171.5 -38q98 0 178 31t135 92q20 20 38 47t33 65t29.5 88t26.5 122l144 815h82l-148 -836q-12 -66 -24.5 -117t-29.5 -92t-41 -74.5t-56 -66.5q-154 -147 -379 -147 q-41 0 -88 8t-91 25.5t-83 45t-64 68.5q-20 35 -31.5 69.5t-14.5 75.5zM520 1632l72 78l280 -178l-43 -59z" />
<glyph unicode="&#xda;" horiz-adv-x="1150" d="M130 274q-3 41 1 91.5t16 113.5l146 836h84l-144 -815q-23 -121 -19.5 -194t34.5 -128q25 -47 94.5 -85t171.5 -38q98 0 178 31t135 92q20 20 38 47t33 65t29.5 88t26.5 122l144 815h82l-148 -836q-12 -66 -24.5 -117t-29.5 -92t-41 -74.5t-56 -66.5q-154 -147 -379 -147 q-41 0 -88 8t-91 25.5t-83 45t-64 68.5q-20 35 -31.5 69.5t-14.5 75.5zM637 1532l285 180l69 -78l-315 -159z" />
<glyph unicode="&#xdb;" horiz-adv-x="1150" d="M130 274q-3 41 1 91.5t16 113.5l146 836h84l-144 -815q-23 -121 -19.5 -194t34.5 -128q25 -47 94.5 -85t171.5 -38q98 0 178 31t135 92q20 20 38 47t33 65t29.5 88t26.5 122l144 815h82l-148 -836q-12 -66 -24.5 -117t-29.5 -92t-41 -74.5t-56 -66.5q-154 -147 -379 -147 q-41 0 -88 8t-91 25.5t-83 45t-64 68.5q-20 35 -31.5 69.5t-14.5 75.5zM543 1516q47 47 117.5 99t142.5 93q18 -12 44.5 -34.5t54.5 -50.5t53.5 -56.5t39.5 -50.5l-57 -41q-23 35 -70 74.5t-86 58.5q-45 -20 -100 -62.5t-94 -81.5z" />
<glyph unicode="&#xdc;" horiz-adv-x="1150" d="M130 274q-3 41 1 91.5t16 113.5l146 836h84l-144 -815q-23 -121 -19.5 -194t34.5 -128q25 -47 94.5 -85t171.5 -38q98 0 178 31t135 92q20 20 38 47t33 65t29.5 88t26.5 122l144 815h82l-148 -836q-12 -66 -24.5 -117t-29.5 -92t-41 -74.5t-56 -66.5q-154 -147 -379 -147 q-41 0 -88 8t-91 25.5t-83 45t-64 68.5q-20 35 -31.5 69.5t-14.5 75.5zM569 1563q0 39 23.5 60.5t52.5 21.5q27 0 41 -16.5t14 -39.5q0 -35 -22.5 -59.5t-56.5 -24.5q-23 0 -37.5 16.5t-14.5 41.5zM846 1563q0 39 24.5 60.5t55.5 21.5q23 0 38 -16.5t15 -39.5 q0 -35 -23.5 -59.5t-54.5 -24.5q-27 0 -41 16.5t-14 41.5z" />
<glyph unicode="&#xdd;" horiz-adv-x="888" d="M137 1315h76q14 -74 37.5 -160t60.5 -190q29 -80 69 -170t93 -193q78 86 147.5 171t129.5 169q72 98 131 192.5t106 180.5h86q-53 -102 -118.5 -204.5t-137.5 -203.5q-78 -104 -157.5 -202.5t-157.5 -186.5l-92 -518h-82l94 537q-111 207 -184 411q-35 96 -60.5 187.5 t-40.5 179.5zM514 1532l285 180l69 -78l-315 -159z" />
<glyph unicode="&#xde;" horiz-adv-x="817" d="M82 0l233 1315h82l-49 -281h144q74 0 141 -12t119 -66q39 -39 56 -89t17 -107q0 -41 -10 -87t-29.5 -90t-49 -84t-68.5 -71q-68 -53 -146 -68.5t-153 -15.5h-144l-59 -344h-84zM240 420h147q59 0 117.5 12t116.5 57q63 53 92.5 121t29.5 133q0 47 -15 91.5t-48 72.5 q-41 39 -97.5 46.5t-115.5 7.5h-133z" />
<glyph unicode="&#xdf;" horiz-adv-x="935" d="M102 0l127 729h-79l12 72h80l57 325q12 61 32.5 122t65.5 108q49 51 116 74.5t126 23.5q117 0 191.5 -60.5t72.5 -189.5q0 -78 -25.5 -143.5t-63.5 -116.5t-85 -84t-90 -43v-4q137 -29 200.5 -107.5t61.5 -197.5q0 -100 -35 -191.5t-101.5 -161t-164.5 -113.5t-223 -50 q-6 -2 -13.5 -2h-13.5l12 71q113 0 200 37t144.5 97.5t87 138.5t29.5 162q0 70 -24.5 121t-68.5 84.5t-105.5 51t-137.5 21.5l13 70q57 -2 115.5 24.5t105.5 74.5t75.5 112.5t28.5 138.5q0 98 -59 144t-152 46q-45 0 -93 -21.5t-81 -64.5q-29 -41 -43 -96t-22 -102 l-195 -1100h-78z" />
<glyph unicode="&#xe0;" horiz-adv-x="825" d="M51 168q0 117 82 205t256 123q68 14 139.5 23t124.5 16q2 12 2 23v24q0 78 -42 127t-154 49q-59 0 -121 -13.5t-127 -42.5l-14 58q78 35 145.5 49t126.5 14q168 0 227.5 -88t24.5 -280l-37 -213q-4 -20 -7 -48t-4 -56.5t2 -55.5t13 -43l-70 -41q-27 41 -22 141h-2 q-57 -78 -144.5 -117.5t-175.5 -39.5q-113 2 -168 54t-55 132zM127 184q0 -70 45 -106.5t123 -36.5q51 0 100 17.5t90 46t74 68.5t51 87q10 57 19 105q6 41 12 73.5t6 36.5q-49 -6 -118.5 -14t-133.5 -23q-78 -16 -129 -43.5t-81.5 -61.5t-44 -73t-13.5 -76zM365 1188 l100 31l129 -263l-67 -28z" />
<glyph unicode="&#xe1;" horiz-adv-x="825" d="M51 168q0 117 82 205t256 123q68 14 139.5 23t124.5 16q2 12 2 23v24q0 78 -42 127t-154 49q-59 0 -121 -13.5t-127 -42.5l-14 58q78 35 145.5 49t126.5 14q168 0 227.5 -88t24.5 -280l-37 -213q-4 -20 -7 -48t-4 -56.5t2 -55.5t13 -43l-70 -41q-27 41 -22 141h-2 q-57 -78 -144.5 -117.5t-175.5 -39.5q-113 2 -168 54t-55 132zM127 184q0 -70 45 -106.5t123 -36.5q51 0 100 17.5t90 46t74 68.5t51 87q10 57 19 105q6 41 12 73.5t6 36.5q-49 -6 -118.5 -14t-133.5 -23q-78 -16 -129 -43.5t-81.5 -61.5t-44 -73t-13.5 -76zM426 975 l211 242l88 -54l-242 -233z" />
<glyph unicode="&#xe2;" horiz-adv-x="825" d="M51 168q0 117 82 205t256 123q68 14 139.5 23t124.5 16q2 12 2 23v24q0 78 -42 127t-154 49q-59 0 -121 -13.5t-127 -42.5l-14 58q78 35 145.5 49t126.5 14q168 0 227.5 -88t24.5 -280l-37 -213q-4 -20 -7 -48t-4 -56.5t2 -55.5t13 -43l-70 -41q-27 41 -22 141h-2 q-57 -78 -144.5 -117.5t-175.5 -39.5q-113 2 -168 54t-55 132zM127 184q0 -70 45 -106.5t123 -36.5q51 0 100 17.5t90 46t74 68.5t51 87q10 57 19 105q6 41 12 73.5t6 36.5q-49 -6 -118.5 -14t-133.5 -23q-78 -16 -129 -43.5t-81.5 -61.5t-44 -73t-13.5 -76zM287 985 q59 53 127 106.5t133 92.5q18 -10 45 -35t54.5 -53.5t53 -58t40.5 -52.5l-56 -41q-12 18 -29.5 39t-39 40t-44 35.5t-40.5 26.5q-23 -10 -49.5 -28.5t-54 -40t-52.5 -43t-43 -39.5z" />
<glyph unicode="&#xe3;" horiz-adv-x="825" d="M51 168q0 117 82 205t256 123q68 14 139.5 23t124.5 16q2 12 2 23v24q0 78 -42 127t-154 49q-59 0 -121 -13.5t-127 -42.5l-14 58q78 35 145.5 49t126.5 14q168 0 227.5 -88t24.5 -280l-37 -213q-4 -20 -7 -48t-4 -56.5t2 -55.5t13 -43l-70 -41q-27 41 -22 141h-2 q-57 -78 -144.5 -117.5t-175.5 -39.5q-113 2 -168 54t-55 132zM127 184q0 -70 45 -106.5t123 -36.5q51 0 100 17.5t90 46t74 68.5t51 87q10 57 19 105q6 41 12 73.5t6 36.5q-49 -6 -118.5 -14t-133.5 -23q-78 -16 -129 -43.5t-81.5 -61.5t-44 -73t-13.5 -76zM293 1036 q25 39 65.5 74t90.5 35q31 0 59.5 -12.5t54.5 -24.5q29 -10 53.5 -22.5t49.5 -12.5q61 0 92 82l49 -47q-20 -45 -66.5 -78t-93.5 -33q-23 0 -50.5 13.5t-55.5 23.5q-29 14 -57.5 25.5t-55.5 11.5t-48 -22.5t-38 -61.5z" />
<glyph unicode="&#xe4;" horiz-adv-x="825" d="M51 168q0 117 82 205t256 123q68 14 139.5 23t124.5 16q2 12 2 23v24q0 78 -42 127t-154 49q-59 0 -121 -13.5t-127 -42.5l-14 58q78 35 145.5 49t126.5 14q168 0 227.5 -88t24.5 -280l-37 -213q-4 -20 -7 -48t-4 -56.5t2 -55.5t13 -43l-70 -41q-27 41 -22 141h-2 q-57 -78 -144.5 -117.5t-175.5 -39.5q-113 2 -168 54t-55 132zM127 184q0 -70 45 -106.5t123 -36.5q51 0 100 17.5t90 46t74 68.5t51 87q10 57 19 105q6 41 12 73.5t6 36.5q-49 -6 -118.5 -14t-133.5 -23q-78 -16 -129 -43.5t-81.5 -61.5t-44 -73t-13.5 -76zM344 1063 q0 37 24.5 58.5t53.5 21.5q25 0 39 -15.5t14 -37.5q2 -35 -21.5 -59.5t-56.5 -24.5q-25 0 -39 16t-14 41zM580 1063q0 37 25.5 58.5t53.5 21.5q25 0 39.5 -15.5t14.5 -37.5q0 -35 -23.5 -59.5t-54.5 -24.5q-27 0 -41 16t-14 41z" />
<glyph unicode="&#xe5;" horiz-adv-x="825" d="M51 168q0 117 82 205t256 123q68 14 139.5 23t124.5 16q2 12 2 23v24q0 78 -42 127t-154 49q-59 0 -121 -13.5t-127 -42.5l-14 58q78 35 145.5 49t126.5 14q168 0 227.5 -88t24.5 -280l-37 -213q-4 -20 -7 -48t-4 -56.5t2 -55.5t13 -43l-70 -41q-27 41 -22 141h-2 q-57 -78 -144.5 -117.5t-175.5 -39.5q-113 2 -168 54t-55 132zM127 184q0 -70 45 -106.5t123 -36.5q51 0 100 17.5t90 46t74 68.5t51 87q10 57 19 105q6 41 12 73.5t6 36.5q-49 -6 -118.5 -14t-133.5 -23q-78 -16 -129 -43.5t-81.5 -61.5t-44 -73t-13.5 -76zM389 1024 q0 37 16.5 66.5t40 49t50 30t45.5 8.5q47 0 76.5 -31t29.5 -78q0 -31 -13 -57.5t-34.5 -48t-49.5 -33.5t-54 -12q-47 0 -77 30.5t-30 75.5zM449 1034q0 -27 16 -42t41 -15q31 0 56.5 23.5t25.5 60.5q0 29 -18.5 43t-39.5 14q-27 0 -54 -21.5t-27 -62.5z" />
<glyph unicode="&#xe6;" horiz-adv-x="1292" d="M0 168q0 119 82 206t256 124q66 14 138.5 22t125.5 15q0 12 1 24t1 23q0 80 -43 129t-155 49q-57 0 -120 -13.5t-128 -44.5l-15 60q80 35 146.5 48t128.5 13q121 0 183.5 -44t76.5 -138q59 82 144 132t190 50q129 0 204.5 -74.5t73.5 -203.5q0 -20 -1 -41t-3 -39 l-631 -88q-2 -12 -2 -23.5v-23.5q0 -129 71 -204t187 -75q66 0 136.5 19.5t113.5 60.5l27 -41q-57 -53 -131 -80.5t-158 -27.5q-117 0 -196.5 59t-108.5 160h-2q-23 -35 -55.5 -74t-78.5 -70.5t-104.5 -53t-132.5 -21.5q-111 2 -166 54t-55 132zM76 184q0 -68 44 -104.5 t122 -36.5q51 0 100 16.5t91 46t75 68.5t51 86q10 57 19 105q6 41 12 73.5t6 36.5q-49 -6 -119.5 -14t-134.5 -23q-76 -16 -127 -43.5t-82 -61.5t-44 -72t-13 -77zM668 446l544 78v26.5t-2 24.5q-8 94 -61 139.5t-143 45.5q-117 0 -209 -79t-129 -235z" />
<glyph unicode="&#xe7;" horiz-adv-x="679" d="M63 315q0 106 36 198.5t99.5 161t149.5 108.5t189 40q53 0 103 -9t91 -28l-33 -61q-31 14 -76 22.5t-98 8.5q-84 0 -154.5 -34t-121.5 -91.5t-79 -136t-28 -166.5q0 -129 60.5 -203t183.5 -74q61 0 121.5 21.5t95.5 48.5l27 -49q-45 -35 -102.5 -57.5t-118.5 -28.5 q-51 -137 -181 -224l-26 54q55 35 90 79t55 91q-74 4 -127 30.5t-88 71.5t-51.5 103.5t-16.5 123.5z" />
<glyph unicode="&#xe8;" horiz-adv-x="815" d="M63 317q0 100 33 191.5t91.5 161t138.5 111.5t174 42q129 0 203.5 -74.5t74.5 -203.5q0 -41 -6 -78l-631 -90q0 -12 -1 -23.5t-1 -21.5q0 -129 71 -206t187 -77q66 0 136.5 20.5t113.5 61.5l27 -43q-55 -53 -130 -79.5t-159 -26.5q-74 0 -133 24.5t-101 68.5t-65 106.5 t-23 135.5zM154 446l544 78v27.5t-2 26.5q-8 92 -61 138t-143 46q-117 0 -209.5 -80t-128.5 -236zM371 1188l100 31l129 -263l-67 -28z" />
<glyph unicode="&#xe9;" horiz-adv-x="815" d="M63 317q0 100 33 191.5t91.5 161t138.5 111.5t174 42q129 0 203.5 -74.5t74.5 -203.5q0 -41 -6 -78l-631 -90q0 -12 -1 -23.5t-1 -21.5q0 -129 71 -206t187 -77q66 0 136.5 20.5t113.5 61.5l27 -43q-55 -53 -130 -79.5t-159 -26.5q-74 0 -133 24.5t-101 68.5t-65 106.5 t-23 135.5zM154 446l544 78v27.5t-2 26.5q-8 92 -61 138t-143 46q-117 0 -209.5 -80t-128.5 -236zM461 975l211 242l88 -54l-242 -233z" />
<glyph unicode="&#xea;" horiz-adv-x="815" d="M63 317q0 100 33 191.5t91.5 161t138.5 111.5t174 42q129 0 203.5 -74.5t74.5 -203.5q0 -41 -6 -78l-631 -90q0 -12 -1 -23.5t-1 -21.5q0 -129 71 -206t187 -77q66 0 136.5 20.5t113.5 61.5l27 -43q-55 -53 -130 -79.5t-159 -26.5q-74 0 -133 24.5t-101 68.5t-65 106.5 t-23 135.5zM154 446l544 78v27.5t-2 26.5q-8 92 -61 138t-143 46q-117 0 -209.5 -80t-128.5 -236zM309 985q59 53 127 106.5t133 92.5q18 -10 45 -35t54.5 -53.5t53 -58t40.5 -52.5l-56 -41q-12 18 -29.5 39t-39 40t-44 35.5t-40.5 26.5q-23 -10 -49.5 -28.5t-54 -40 t-52.5 -43t-43 -39.5z" />
<glyph unicode="&#xeb;" horiz-adv-x="815" d="M63 317q0 100 33 191.5t91.5 161t138.5 111.5t174 42q129 0 203.5 -74.5t74.5 -203.5q0 -41 -6 -78l-631 -90q0 -12 -1 -23.5t-1 -21.5q0 -129 71 -206t187 -77q66 0 136.5 20.5t113.5 61.5l27 -43q-55 -53 -130 -79.5t-159 -26.5q-74 0 -133 24.5t-101 68.5t-65 106.5 t-23 135.5zM154 446l544 78v27.5t-2 26.5q-8 92 -61 138t-143 46q-117 0 -209.5 -80t-128.5 -236zM365 1063q0 37 24.5 58.5t53.5 21.5q25 0 39 -15.5t14 -37.5q2 -35 -21.5 -59.5t-56.5 -24.5q-25 0 -39 16t-14 41zM601 1063q0 37 25.5 58.5t53.5 21.5q25 0 39.5 -15.5 t14.5 -37.5q0 -35 -23.5 -59.5t-54.5 -24.5q-27 0 -41 16t-14 41z" />
<glyph unicode="&#xec;" horiz-adv-x="376" d="M82 0l143 805h76l-141 -805h-78zM135 1188l100 31l129 -263l-67 -28z" />
<glyph unicode="&#xed;" horiz-adv-x="376" d="M82 0l143 805h76l-141 -805h-78zM205 965l211 242l88 -54l-242 -233z" />
<glyph unicode="&#xee;" horiz-adv-x="376" d="M82 0l143 805h76l-141 -805h-78zM92 985q59 53 127 106.5t133 92.5q18 -10 45 -35t54.5 -53.5t53 -58t40.5 -52.5l-56 -41q-12 18 -29.5 39t-39 40t-44 35.5t-40.5 26.5q-23 -10 -49.5 -28.5t-54 -40t-52.5 -43t-43 -39.5z" />
<glyph unicode="&#xef;" horiz-adv-x="376" d="M82 0l143 805h76l-141 -805h-78zM137 1063q0 37 24.5 58.5t53.5 21.5q25 0 39 -15.5t14 -37.5q2 -35 -21.5 -59.5t-56.5 -24.5q-25 0 -39 16t-14 41zM373 1063q0 37 25.5 58.5t53.5 21.5q25 0 39.5 -15.5t14.5 -37.5q0 -35 -23.5 -59.5t-54.5 -24.5q-27 0 -41 16t-14 41z " />
<glyph unicode="&#xf0;" horiz-adv-x="935" d="M66 326q0 94 38.5 184t104 158.5t155 110.5t187.5 42q80 0 134 -22.5t103 -67.5l5 4q-31 119 -82.5 227.5t-132.5 194.5l-302 -199l-34 64l286 190q-43 47 -104.5 94.5t-112.5 79.5l58 44q121 -72 225 -175l264 177l37 -58l-250 -168q55 -61 100.5 -136t76 -154.5 t47 -162.5t16.5 -159q0 -166 -47 -282.5t-120 -189.5t-157 -106.5t-158 -33.5q-80 0 -143 27.5t-106 74.5t-65.5 109.5t-22.5 132.5zM141 338q0 -66 20.5 -118t57.5 -89t86 -57.5t107 -20.5q68 0 131 29t114.5 77t87 110.5t48.5 129.5q16 92 2.5 158t-49 109t-91 63.5 t-120.5 20.5q-82 0 -154 -36t-125 -94.5t-84 -132t-31 -149.5z" />
<glyph unicode="&#xf1;" horiz-adv-x="903" d="M82 0l98 563q14 80 10 132.5t-14 70.5l66 39q12 -20 18 -57t4 -84h4q47 74 123 116.5t166 42.5q145 0 211 -79.5t37 -239.5l-88 -504h-78l88 504q25 133 -24.5 194.5t-157.5 61.5q-86 0 -165 -53.5t-116 -151.5q-6 -16 -13 -42t-11 -54l-82 -459h-76zM344 1036 q25 39 65.5 74t90.5 35q31 0 59.5 -12.5t54.5 -24.5q29 -10 53.5 -22.5t49.5 -12.5q61 0 92 82l49 -47q-20 -45 -66.5 -78t-93.5 -33q-23 0 -50.5 13.5t-55.5 23.5q-29 14 -57.5 25.5t-55.5 11.5t-48 -22.5t-38 -61.5z" />
<glyph unicode="&#xf2;" horiz-adv-x="860" d="M63 309q0 98 33 191.5t93.5 165t143.5 114.5t181 43q74 0 130 -24.5t95 -68.5t59.5 -104t20.5 -134q0 -86 -30.5 -176.5t-89 -165t-142.5 -121.5t-190 -47q-150 0 -227 90t-77 237zM139 315q0 -53 13.5 -101t42 -85t73.5 -58.5t109 -21.5q78 0 144.5 34t115.5 92 t76.5 139t27.5 173q0 123 -62.5 197t-176.5 74q-74 0 -139.5 -33t-115.5 -92.5t-79 -140t-29 -177.5zM397 1188l100 31l129 -263l-67 -28z" />
<glyph unicode="&#xf3;" horiz-adv-x="860" d="M63 309q0 98 33 191.5t93.5 165t143.5 114.5t181 43q74 0 130 -24.5t95 -68.5t59.5 -104t20.5 -134q0 -86 -30.5 -176.5t-89 -165t-142.5 -121.5t-190 -47q-150 0 -227 90t-77 237zM139 315q0 -53 13.5 -101t42 -85t73.5 -58.5t109 -21.5q78 0 144.5 34t115.5 92 t76.5 139t27.5 173q0 123 -62.5 197t-176.5 74q-74 0 -139.5 -33t-115.5 -92.5t-79 -140t-29 -177.5zM446 975l211 242l88 -54l-242 -233z" />
<glyph unicode="&#xf4;" horiz-adv-x="860" d="M63 309q0 98 33 191.5t93.5 165t143.5 114.5t181 43q74 0 130 -24.5t95 -68.5t59.5 -104t20.5 -134q0 -86 -30.5 -176.5t-89 -165t-142.5 -121.5t-190 -47q-150 0 -227 90t-77 237zM139 315q0 -53 13.5 -101t42 -85t73.5 -58.5t109 -21.5q78 0 144.5 34t115.5 92 t76.5 139t27.5 173q0 123 -62.5 197t-176.5 74q-74 0 -139.5 -33t-115.5 -92.5t-79 -140t-29 -177.5zM334 985q59 53 127 106.5t133 92.5q18 -10 45 -35t54.5 -53.5t53 -58t40.5 -52.5l-56 -41q-12 18 -29.5 39t-39 40t-44 35.5t-40.5 26.5q-23 -10 -49.5 -28.5t-54 -40 t-52.5 -43t-43 -39.5z" />
<glyph unicode="&#xf5;" horiz-adv-x="860" d="M63 309q0 98 33 191.5t93.5 165t143.5 114.5t181 43q74 0 130 -24.5t95 -68.5t59.5 -104t20.5 -134q0 -86 -30.5 -176.5t-89 -165t-142.5 -121.5t-190 -47q-150 0 -227 90t-77 237zM139 315q0 -53 13.5 -101t42 -85t73.5 -58.5t109 -21.5q78 0 144.5 34t115.5 92 t76.5 139t27.5 173q0 123 -62.5 197t-176.5 74q-74 0 -139.5 -33t-115.5 -92.5t-79 -140t-29 -177.5zM332 1036q25 39 65.5 74t90.5 35q31 0 59.5 -12.5t54.5 -24.5q29 -10 53.5 -22.5t49.5 -12.5q61 0 92 82l49 -47q-20 -45 -66.5 -78t-93.5 -33q-23 0 -50.5 13.5 t-55.5 23.5q-29 14 -57.5 25.5t-55.5 11.5t-48 -22.5t-38 -61.5z" />
<glyph unicode="&#xf6;" horiz-adv-x="860" d="M63 309q0 98 33 191.5t93.5 165t143.5 114.5t181 43q74 0 130 -24.5t95 -68.5t59.5 -104t20.5 -134q0 -86 -30.5 -176.5t-89 -165t-142.5 -121.5t-190 -47q-150 0 -227 90t-77 237zM139 315q0 -53 13.5 -101t42 -85t73.5 -58.5t109 -21.5q78 0 144.5 34t115.5 92 t76.5 139t27.5 173q0 123 -62.5 197t-176.5 74q-74 0 -139.5 -33t-115.5 -92.5t-79 -140t-29 -177.5zM381 1063q0 37 24.5 58.5t53.5 21.5q25 0 39 -15.5t14 -37.5q2 -35 -21.5 -59.5t-56.5 -24.5q-25 0 -39 16t-14 41zM617 1063q0 37 25.5 58.5t53.5 21.5q25 0 39.5 -15.5 t14.5 -37.5q0 -35 -23.5 -59.5t-54.5 -24.5q-27 0 -41 16t-14 41z" />
<glyph unicode="&#xf7;" horiz-adv-x="974" d="M53 406l17 81h864l-16 -81h-865zM358 59q0 33 24 58.5t58 25.5q25 0 40.5 -15t17.5 -40q0 -35 -26 -60.5t-58 -25.5q-25 0 -40.5 16.5t-15.5 40.5zM492 807q0 33 22.5 58.5t56.5 25.5q27 0 41.5 -15t16.5 -38q2 -37 -23.5 -62.5t-58.5 -25.5q-27 0 -42.5 16t-12.5 41z " />
<glyph unicode="&#xf8;" horiz-adv-x="903" d="M0 -2l127 123q-43 76 -43 190q0 98 33 191.5t92 164t142 113.5t184 43q72 0 126 -22.5t95 -63.5l104 103l43 -41l-112 -109q23 -41 36 -90t11 -106q0 -86 -31 -176.5t-88 -165t-142 -121.5t-192 -47q-143 0 -223 90l-117 -115zM160 317q0 -78 26 -139l514 504 q-61 74 -178 74q-74 0 -139.5 -33t-115.5 -91.5t-78.5 -138.5t-28.5 -176zM217 127q29 -35 73 -55.5t107 -20.5q78 0 144.5 34t115 92.5t76 139t27.5 172.5q0 80 -29 144z" />
<glyph unicode="&#xf9;" horiz-adv-x="923" d="M123 303l88 502h76l-88 -502q-23 -133 26 -195.5t156 -62.5q88 0 166 55.5t115 153.5q14 33 26 96l80 455h78l-98 -559q-16 -82 -11.5 -134.5t13.5 -70.5l-66 -41q-10 23 -17.5 60.5t-2.5 84.5h-5q-49 -74 -124.5 -118.5t-163.5 -44.5q-145 0 -211 80.5t-37 240.5z M420 1188l100 31l129 -263l-67 -28z" />
<glyph unicode="&#xfa;" horiz-adv-x="923" d="M123 303l88 502h76l-88 -502q-23 -133 26 -195.5t156 -62.5q88 0 166 55.5t115 153.5q14 33 26 96l80 455h78l-98 -559q-16 -82 -11.5 -134.5t13.5 -70.5l-66 -41q-10 23 -17.5 60.5t-2.5 84.5h-5q-49 -74 -124.5 -118.5t-163.5 -44.5q-145 0 -211 80.5t-37 240.5z M469 975l211 242l88 -54l-242 -233z" />
<glyph unicode="&#xfb;" horiz-adv-x="923" d="M123 303l88 502h76l-88 -502q-23 -133 26 -195.5t156 -62.5q88 0 166 55.5t115 153.5q14 33 26 96l80 455h78l-98 -559q-16 -82 -11.5 -134.5t13.5 -70.5l-66 -41q-10 23 -17.5 60.5t-2.5 84.5h-5q-49 -74 -124.5 -118.5t-163.5 -44.5q-145 0 -211 80.5t-37 240.5z M346 985q59 53 127 106.5t133 92.5q18 -10 45 -35t54.5 -53.5t53 -58t40.5 -52.5l-56 -41q-12 18 -29.5 39t-39 40t-44 35.5t-40.5 26.5q-23 -10 -49.5 -28.5t-54 -40t-52.5 -43t-43 -39.5z" />
<glyph unicode="&#xfc;" horiz-adv-x="923" d="M123 303l88 502h76l-88 -502q-23 -133 26 -195.5t156 -62.5q88 0 166 55.5t115 153.5q14 33 26 96l80 455h78l-98 -559q-16 -82 -11.5 -134.5t13.5 -70.5l-66 -41q-10 23 -17.5 60.5t-2.5 84.5h-5q-49 -74 -124.5 -118.5t-163.5 -44.5q-145 0 -211 80.5t-37 240.5z M408 1063q0 37 24.5 58.5t53.5 21.5q25 0 39 -15.5t14 -37.5q2 -35 -21.5 -59.5t-56.5 -24.5q-25 0 -39 16t-14 41zM644 1063q0 37 25.5 58.5t53.5 21.5q25 0 39.5 -15.5t14.5 -37.5q0 -35 -23.5 -59.5t-54.5 -24.5q-27 0 -41 16t-14 41z" />
<glyph unicode="&#xfd;" horiz-adv-x="704" d="M-162 -449q55 51 109.5 110.5t105.5 121t97.5 121t85.5 114.5q-29 84 -55.5 190.5t-47 214t-33 208t-12.5 174.5h76q2 -70 13 -160t27.5 -187.5t38 -190.5t46.5 -169h2q80 119 142.5 231.5t109.5 206t77.5 163t43.5 106.5h77q-41 -119 -114.5 -270.5t-165.5 -305.5 q-41 -68 -96.5 -151.5t-122 -172.5t-143 -180.5t-162.5 -175.5h-99v2zM340 975l211 242l88 -54l-242 -233z" />
<glyph unicode="&#xfe;" horiz-adv-x="991" d="M29 -453l331 1891h80l-137 -776h2q57 78 148.5 119.5t177.5 41.5q78 0 137 -25.5t100 -69.5t61.5 -105.5t20.5 -130.5q0 -94 -32.5 -185.5t-92 -163t-145.5 -115.5t-193 -44q-92 0 -165.5 39.5t-108.5 117.5h-2l-105 -594h-77zM248 251.5q12 -61.5 46 -105.5t87 -67.5 t121 -23.5q72 0 138.5 33t118.5 89t82.5 132t30.5 160q0 68 -20.5 121t-54 89t-79.5 54.5t-97 18.5q-66 0 -127.5 -27t-110.5 -75t-85 -114.5t-50 -148.5q-12 -74 0 -135.5z" />
<glyph unicode="&#xff;" horiz-adv-x="704" d="M-162 -449q55 51 109.5 110.5t105.5 121t97.5 121t85.5 114.5q-29 84 -55.5 190.5t-47 214t-33 208t-12.5 174.5h76q2 -70 13 -160t27.5 -187.5t38 -190.5t46.5 -169h2q80 119 142.5 231.5t109.5 206t77.5 163t43.5 106.5h77q-41 -119 -114.5 -270.5t-165.5 -305.5 q-41 -68 -96.5 -151.5t-122 -172.5t-143 -180.5t-162.5 -175.5h-99v2zM283 1063q0 37 24.5 58.5t53.5 21.5q25 0 39 -15.5t14 -37.5q2 -35 -21.5 -59.5t-56.5 -24.5q-25 0 -39 16t-14 41zM519 1063q0 37 25.5 58.5t53.5 21.5q25 0 39.5 -15.5t14.5 -37.5q0 -35 -23.5 -59.5 t-54.5 -24.5q-27 0 -41 16t-14 41z" />
<glyph unicode="&#x152;" horiz-adv-x="1951" d="M102 510q0 172 55.5 321.5t154 261t232.5 175t290 63.5q168 0 290.5 -83t173.5 -234l54 301h682l-13 -76h-600l-86 -483h449l-12 -76h-449l-106 -604h643l-13 -76h-727l51 295q-94 -137 -238.5 -225t-332.5 -88q-117 0 -209 38.5t-155.5 109.5t-98.5 168t-35 212z M184 524q0 -98 27 -183t81 -147.5t134 -99.5t186 -37q147 0 266 64.5t202 169t127 238t44 268.5q0 104 -29.5 189t-86 145.5t-136 93t-180.5 32.5q-121 0 -234.5 -50t-202.5 -144t-143.5 -230.5t-54.5 -308.5z" />
<glyph unicode="&#x153;" horiz-adv-x="1476" d="M63 309q0 100 33 192.5t92.5 164t142.5 114.5t183 43q117 0 190.5 -59t100.5 -158q57 98 149.5 157.5t206.5 59.5q129 0 204 -74.5t75 -203.5q0 -20 -1 -41t-3 -39l-631 -88q-2 -12 -2 -23.5v-23.5q-2 -129 68.5 -204t187.5 -75q66 0 137.5 19.5t112.5 60.5l28 -41 q-57 -53 -132 -80.5t-158 -27.5q-117 0 -198 62t-110 167q-57 -98 -151 -163.5t-223 -65.5q-147 0 -224.5 90t-77.5 237zM139 315q0 -53 13.5 -101t41 -85t72.5 -58.5t111 -21.5q78 0 144.5 34t114.5 92t75.5 139t27.5 173q0 125 -61.5 198t-175.5 73q-74 0 -139.5 -33 t-115.5 -92.5t-79 -140t-29 -177.5zM817 446l543 78q2 14 1 26.5t-1 24.5q-10 94 -62.5 139.5t-142.5 45.5q-119 0 -210 -79t-128 -235z" />
<glyph unicode="&#x178;" horiz-adv-x="888" d="M137 1315h76q14 -74 37.5 -160t60.5 -190q29 -80 69 -170t93 -193q78 86 147.5 171t129.5 169q72 98 131 192.5t106 180.5h86q-53 -102 -118.5 -204.5t-137.5 -203.5q-78 -104 -157.5 -202.5t-157.5 -186.5l-92 -518h-82l94 537q-111 207 -184 411q-35 96 -60.5 187.5 t-40.5 179.5zM440 1563q0 39 23.5 60.5t52.5 21.5q27 0 41 -16.5t14 -39.5q0 -35 -22.5 -59.5t-56.5 -24.5q-23 0 -37.5 16.5t-14.5 41.5zM717 1563q0 39 24.5 60.5t55.5 21.5q23 0 38 -16.5t15 -39.5q0 -35 -23.5 -59.5t-54.5 -24.5q-27 0 -41 16.5t-14 41.5z" />
<glyph unicode="&#x2c6;" horiz-adv-x="452" d="M0 985q59 53 127 106.5t133 92.5q18 -10 45 -35t54.5 -53.5t53 -58t40.5 -52.5l-56 -41q-12 18 -29.5 39t-39 40t-44 35.5t-40.5 26.5q-23 -10 -49.5 -28.5t-54 -40t-52.5 -43t-43 -39.5z" />
<glyph unicode="&#x2dc;" horiz-adv-x="514" d="M0 1036q25 39 65.5 74t90.5 35q31 0 59.5 -12.5t54.5 -24.5q29 -10 53.5 -22.5t49.5 -12.5q61 0 92 82l49 -47q-20 -45 -66.5 -78t-93.5 -33q-23 0 -50.5 13.5t-55.5 23.5q-29 14 -57.5 25.5t-55.5 11.5t-48 -22.5t-38 -61.5z" />
<glyph unicode="&#x2000;" horiz-adv-x="856" />
<glyph unicode="&#x2001;" horiz-adv-x="1712" />
<glyph unicode="&#x2002;" horiz-adv-x="856" />
<glyph unicode="&#x2003;" horiz-adv-x="1712" />
<glyph unicode="&#x2004;" horiz-adv-x="570" />
<glyph unicode="&#x2005;" horiz-adv-x="428" />
<glyph unicode="&#x2006;" horiz-adv-x="285" />
<glyph unicode="&#x2007;" horiz-adv-x="285" />
<glyph unicode="&#x2008;" horiz-adv-x="214" />
<glyph unicode="&#x2009;" horiz-adv-x="342" />
<glyph unicode="&#x200a;" horiz-adv-x="95" />
<glyph unicode="&#x2010;" horiz-adv-x="376" d="M41 516l12 78h324l-15 -78h-321z" />
<glyph unicode="&#x2011;" horiz-adv-x="376" d="M41 516l12 78h324l-15 -78h-321z" />
<glyph unicode="&#x2012;" horiz-adv-x="376" d="M41 516l12 78h324l-15 -78h-321z" />
<glyph unicode="&#x2013;" horiz-adv-x="837" d="M20 518l15 76h844l-13 -76h-846z" />
<glyph unicode="&#x2014;" horiz-adv-x="1681" d="M20 518l13 76h1689l-14 -76h-1688z" />
<glyph unicode="&#x2018;" horiz-adv-x="391" d="M190 928l207 395l54 -20l-187 -398z" />
<glyph unicode="&#x2019;" horiz-adv-x="391" d="M190 926l187 397l74 -23l-207 -395z" />
<glyph unicode="&#x201a;" horiz-adv-x="464" d="M20 -270l185 399l76 -27l-209 -393z" />
<glyph unicode="&#x201c;" horiz-adv-x="610" d="M190 928l207 395l54 -20l-187 -398zM410 928l206 395l54 -20l-187 -398z" />
<glyph unicode="&#x201d;" horiz-adv-x="610" d="M190 926l187 397l74 -23l-207 -395zM410 926l186 397l74 -23l-207 -395z" />
<glyph unicode="&#x201e;" horiz-adv-x="696" d="M20 -270l185 399l76 -27l-209 -393zM252 -270l184 399l76 -27l-209 -393z" />
<glyph unicode="&#x2022;" horiz-adv-x="1124" d="M403 655q0 76 50.5 128.5t128.5 52.5t128 -52.5t50 -128.5q0 -37 -13.5 -68.5t-37 -55t-56 -38t-71.5 -14.5t-72 14.5t-56.5 38t-37 55t-13.5 68.5z" />
<glyph unicode="&#x2026;" horiz-adv-x="1173" d="M86 41q0 35 24.5 59.5t59.5 24.5q25 0 41 -16t16 -39q0 -39 -26.5 -63.5t-55.5 -24.5q-27 0 -43 17t-16 42zM477 41q0 35 24.5 59.5t59.5 24.5q25 0 41 -16t16 -39q0 -39 -26.5 -63.5t-54.5 -24.5q-27 0 -43.5 17t-16.5 42zM868 41q0 35 25 59.5t59 24.5q25 0 41.5 -16 t16.5 -39q0 -39 -27 -63.5t-55 -24.5q-27 0 -43.5 17t-16.5 42z" />
<glyph unicode="&#x202f;" horiz-adv-x="342" />
<glyph unicode="&#x2039;" horiz-adv-x="432" d="M106 549q0 2 9 14q61 74 138 146.5t155 124.5l26 -66q-31 -20 -65.5 -48t-68.5 -58.5t-64.5 -61.5t-51.5 -57q33 -66 78 -127.5t98 -104.5l-43 -53q-53 43 -109 114.5t-97 157.5q-4 10 -5 19z" />
<glyph unicode="&#x203a;" horiz-adv-x="432" d="M106 324q31 20 66 47.5t68.5 58.5t63.5 61.5t52 57.5q-33 66 -78 127t-98 104l43 54q53 -43 109.5 -115t97.5 -158q4 -10 4 -18q0 -2 -8 -15q-61 -74 -138 -146.5t-155 -123.5z" />
<glyph unicode="&#x205f;" horiz-adv-x="428" />
<glyph unicode="&#x20ac;" horiz-adv-x="1298" d="M37 494l14 77h217q6 109 41 213h-221l14 78h236q43 102 110.5 188.5t155.5 149t194.5 98t227.5 35.5q111 0 216.5 -35.5t174.5 -113.5l-65 -51q-59 59 -145.5 93t-219.5 34q-92 0 -177 -30t-157.5 -82t-132 -126t-100.5 -160h809l-15 -78h-827q-35 -104 -41 -213h832 l-15 -77h-819q2 -86 29.5 -166t81 -139.5t134.5 -95.5t191 -36q127 0 229.5 34t184.5 97l43 -53q-96 -72 -209 -112.5t-260 -40.5q-125 0 -218 38.5t-155.5 107.5t-94.5 163t-34 203h-229z" />
<glyph unicode="&#x2122;" horiz-adv-x="1701" d="M225 1245l13 70h540l-12 -70h-215l-119 -665h-78l117 665h-246zM809 580l129 735h90q33 -47 63.5 -98.5t59.5 -106.5q29 -57 54.5 -114.5t45.5 -112.5q39 55 84 113.5t92 113.5t97.5 106.5t99.5 98.5h98l-129 -735h-75l114 657q-33 -33 -67.5 -71t-69.5 -79 q-63 -74 -119.5 -147.5t-97.5 -138.5h-74q-20 66 -49 139.5t-68 146.5q-18 35 -38.5 72t-47.5 78l-116 -657h-76z" />
<glyph unicode="&#x25fc;" horiz-adv-x="808" d="M0 0v809h809v-809h-809z" />
<glyph unicode="&#xfb01;" horiz-adv-x="849" d="M102 0l131 741h-86l11 64h86l59 334q55 315 297 315q41 0 73 -8t48 -19l-35 -57q-37 18 -92 19q-90 0 -141.5 -61.5t-73.5 -192.5l-57 -330h196l-12 -64h-197l-129 -741h-78zM555 0l143 805h76l-141 -805h-78zM713 1071q6 29 30.5 50.5t53.5 21.5q31 0 47 -21.5t12 -50.5 q-6 -29 -30.5 -49.5t-53.5 -20.5q-31 0 -47 20.5t-12 49.5z" />
<glyph unicode="&#xfb02;" horiz-adv-x="884" d="M102 0l131 741h-86l11 64h86l59 334q55 315 297 315q41 0 73 -8t48 -19l-35 -57q-37 18 -92 19q-90 0 -141.5 -61.5t-73.5 -192.5l-57 -330h196l-12 -64h-197l-129 -741h-78zM588 137q0 47 10 107q2 16 12 76.5t25.5 147.5t35 191.5t38.5 212.5q45 252 98 564h78 q-55 -311 -101 -566q-18 -109 -36.5 -214t-34 -193t-26.5 -147.5t-13 -75.5q-10 -57 -5 -92t20 -54.5t41 -27t56 -7.5l-12 -67q-70 0 -109.5 16.5t-58 49t-18.5 79.5z" />
</font>
</defs>
</svg>
